<?xml version="1.0" encoding="utf-8"?>
<!-- Generator: Adobe Illustrator 16.0.0, SVG Export Plug-In . SVG Version: 6.00 Build 0)  -->
<!DOCTYPE svg PUBLIC "-//W3C//DTD SVG 1.1//EN" "http://www.w3.org/Graphics/SVG/1.1/DTD/svg11.dtd">
<svg version="1.1" id="Warstwa_1" xmlns="http://www.w3.org/2000/svg" xmlns:xlink="http://www.w3.org/1999/xlink" x="0px" y="0px"
	 width="896.694px" height="896.695px" viewBox="0 0 896.694 896.695" enable-background="new 0 0 896.694 896.695"
	 xml:space="preserve">
<g>
	<g>
		<path fill="#898A8B" d="M448.348,0C200.732,0,0,200.732,0,448.348c0,247.614,200.732,448.347,448.348,448.347
			c247.614,0,448.346-200.732,448.346-448.347C896.694,200.732,695.961,0,448.348,0z M448.348,848.919
			c-221.229,0-400.574-179.342-400.574-400.571c0-221.231,179.345-400.574,400.574-400.574
			c221.231,0,400.573,179.343,400.573,400.574C848.92,669.578,669.579,848.919,448.348,848.919z"/>
		<path fill="#1A1A1A" d="M448.348,47.774c-221.229,0-400.574,179.343-400.574,400.574c0,221.229,179.345,400.571,400.574,400.571
			c221.231,0,400.573-179.342,400.573-400.571C848.92,227.117,669.579,47.774,448.348,47.774z M448.348,839.673
			c-216.125,0-391.327-175.201-391.327-391.325c0-216.124,175.202-391.327,391.327-391.327
			c216.124,0,391.327,175.203,391.327,391.327C839.674,664.472,664.471,839.673,448.348,839.673z"/>
	</g>
	<path fill="#424243" d="M463.694,24.035c0,10.109-8.193,18.307-18.306,18.307c-10.11,0-18.308-8.197-18.308-18.307
		c0-10.111,8.197-18.307,18.308-18.307C455.5,5.729,463.694,13.924,463.694,24.035"/>
	<path fill="#939596" d="M460.737,21.075c0,10.11-8.197,18.308-18.308,18.308c-10.109,0-18.307-8.197-18.307-18.308
		c0-10.109,8.197-18.307,18.307-18.307C452.54,2.769,460.737,10.966,460.737,21.075"/>
	<path fill="#424243" d="M463.694,875.619c0,10.109-8.193,18.307-18.306,18.307c-10.11,0-18.308-8.197-18.308-18.307
		c0-10.111,8.197-18.307,18.308-18.307C455.5,857.312,463.694,865.507,463.694,875.619"/>
	<path fill="#939596" d="M460.737,872.66c0,10.111-8.197,18.309-18.308,18.309c-10.109,0-18.307-8.197-18.307-18.309
		c0-10.109,8.197-18.307,18.307-18.307C452.54,854.353,460.737,862.55,460.737,872.66"/>
	<path fill="#424243" d="M24.034,425.793c10.11,0,18.308,8.195,18.308,18.307c0,10.111-8.197,18.309-18.308,18.309
		S5.727,454.211,5.727,444.1C5.727,433.988,13.924,425.793,24.034,425.793"/>
	<path fill="#939596" d="M21.075,428.751c10.11,0,18.308,8.197,18.308,18.308c0,10.109-8.197,18.306-18.308,18.306
		c-10.111,0-18.308-8.196-18.308-18.306C2.768,436.948,10.964,428.751,21.075,428.751"/>
	<path fill="#424243" d="M875.618,425.793c10.111,0,18.309,8.195,18.309,18.307c0,10.111-8.197,18.309-18.309,18.309
		c-10.109,0-18.307-8.197-18.307-18.309C857.311,433.988,865.508,425.793,875.618,425.793"/>
	<path fill="#939596" d="M872.659,428.751c10.111,0,18.309,8.197,18.309,18.308c0,10.109-8.197,18.306-18.309,18.306
		c-10.109,0-18.307-8.196-18.307-18.306C854.352,436.948,862.549,428.751,872.659,428.751"/>
	<path fill="#424243" d="M134.321,731.623c7.148-7.148,18.74-7.148,25.891,0c7.148,7.148,7.148,18.74,0,25.891
		c-7.15,7.15-18.742,7.15-25.891,0S127.173,738.771,134.321,731.623"/>
	<path fill="#939596" d="M134.321,735.806c7.148-7.148,18.74-7.148,25.891,0c7.148,7.15,7.148,18.742,0,25.893
		c-7.15,7.146-18.742,7.146-25.891,0C127.173,754.548,127.173,742.957,134.321,735.806"/>
	<path fill="#424243" d="M736.483,129.461c7.148-7.149,18.74-7.149,25.891,0c7.148,7.149,7.148,18.74,0,25.89
		c-7.15,7.15-18.742,7.15-25.891,0C729.333,148.201,729.333,136.61,736.483,129.461"/>
	<path fill="#939596" d="M736.483,133.646c7.148-7.15,18.74-7.15,25.891,0c7.148,7.149,7.148,18.739,0,25.89
		c-7.15,7.149-18.742,7.149-25.891,0C729.333,152.386,729.333,140.796,736.483,133.646"/>
	<path fill="#424243" d="M737.711,759.605c-7.148-7.148-7.148-18.74,0-25.891c7.15-7.148,18.74-7.148,25.893,0
		c7.15,7.15,7.15,18.742,0,25.891C756.452,766.753,744.862,766.753,737.711,759.605"/>
	<path fill="#939596" d="M741.897,759.605c-7.15-7.148-7.15-18.74,0-25.891c7.148-7.148,18.742-7.148,25.891,0
		c7.148,7.15,7.148,18.742,0,25.891S749.045,766.753,741.897,759.605"/>
	<path fill="#424243" d="M135.552,157.444c-7.15-7.149-7.15-18.741,0-25.89c7.149-7.15,18.74-7.15,25.89,0
		c7.149,7.148,7.149,18.74,0,25.89S142.701,164.594,135.552,157.444"/>
	<path fill="#939596" d="M139.736,157.444c-7.149-7.149-7.149-18.741,0-25.89c7.149-7.15,18.74-7.15,25.89,0
		c7.15,7.148,7.15,18.74,0,25.89C158.477,164.594,146.886,164.594,139.736,157.444"/>
</g>
</svg>
