<?xml version="1.0" encoding="utf-8"?>
<!-- Generator: Adobe Illustrator 16.0.0, SVG Export Plug-In . SVG Version: 6.00 Build 0)  -->
<!DOCTYPE svg PUBLIC "-//W3C//DTD SVG 1.1//EN" "http://www.w3.org/Graphics/SVG/1.1/DTD/svg11.dtd">
<svg version="1.1" id="Warstwa_1" xmlns="http://www.w3.org/2000/svg" xmlns:xlink="http://www.w3.org/1999/xlink" x="0px" y="0px"
	 width="220.174px" height="220.175px" viewBox="0.175 -0.258 220.174 220.175"
	 enable-background="new 0.175 -0.258 220.174 220.175" xml:space="preserve">
<g>
	<circle fill="#FAFBFB" cx="110.261" cy="109.83" r="110.087"/>
	<g>
		<circle fill="#E0E0E0" cx="70.852" cy="179.097" r="17.33"/>
		<path fill="#BDBDBD" d="M72.333,194.944c-9.57,0-17.328-7.76-17.328-17.329c0-4.408,1.648-8.429,4.359-11.489
			c-3.583,3.176-5.843,7.81-5.843,12.971c0,9.572,7.76,17.33,17.33,17.33c5.163,0,9.795-2.26,12.971-5.843
			C80.764,193.295,76.742,194.944,72.333,194.944z"/>
		<path fill="#F5F5F5" d="M53.521,178.414c0,0.115,0.007,0.228,0.01,0.341c0.182-9.411,7.865-16.987,17.32-16.987
			c9.572,0,17.33,7.76,17.33,17.329c0,9.455-7.575,17.139-16.988,17.322c0.113,0.002,0.227,0.008,0.342,0.008
			c9.948,0,18.014-8.064,18.014-18.013c0-9.949-8.066-18.015-18.014-18.015C61.587,160.399,53.521,168.465,53.521,178.414z"/>
	</g>
	<g>
		<circle fill="#E0E0E0" cx="40.489" cy="64.001" r="8.665"/>
		<path fill="#BDBDBD" d="M41.23,71.924c-4.786,0-8.665-3.878-8.665-8.664c0-2.204,0.825-4.214,2.18-5.744
			c-1.792,1.587-2.922,3.904-2.922,6.485c0,4.784,3.88,8.665,8.666,8.665c2.581,0,4.898-1.13,6.485-2.92
			C45.445,71.101,43.435,71.924,41.23,71.924z"/>
		<path fill="#F5F5F5" d="M31.823,63.66c0,0.057,0.004,0.113,0.005,0.17c0.092-4.705,3.933-8.494,8.661-8.494
			c4.786,0,8.665,3.88,8.665,8.666c0,4.729-3.788,8.569-8.495,8.661c0.058,0.002,0.115,0.004,0.172,0.004
			c4.974,0,9.006-4.033,9.006-9.006c0-4.974-4.032-9.006-9.006-9.006C35.857,54.653,31.823,58.686,31.823,63.66z"/>
	</g>
	<g>
		<circle fill="#E0E0E0" cx="128.368" cy="33.678" r="21.622"/>
		<path fill="#BDBDBD" d="M130.217,53.453c-11.941,0-21.62-9.681-21.62-21.624c0-5.5,2.056-10.515,5.438-14.332
			c-4.467,3.961-7.288,9.74-7.288,16.183c0,11.942,9.682,21.621,21.622,21.621c6.441,0,12.221-2.819,16.184-7.289
			C140.736,51.395,135.718,53.453,130.217,53.453z"/>
		<path fill="#F5F5F5" d="M106.746,32.827c0,0.142,0.008,0.283,0.011,0.425c0.228-11.745,9.813-21.196,21.611-21.196
			c11.941,0,21.622,9.681,21.622,21.623c0,11.797-9.452,21.383-21.194,21.611c0.143,0.002,0.282,0.009,0.426,0.009
			c12.412,0,22.475-10.061,22.475-22.473c0-12.414-10.063-22.476-22.475-22.476C116.809,10.351,106.746,20.414,106.746,32.827z"/>
	</g>
	<g>
		<circle fill="#E0E0E0" cx="178.883" cy="91.458" r="21.623"/>
		<path fill="#BDBDBD" d="M180.733,111.23c-11.942,0-21.624-9.681-21.624-21.623c0-5.499,2.058-10.516,5.441-14.333
			c-4.47,3.961-7.29,9.74-7.29,16.182c0,11.942,9.68,21.624,21.622,21.624c6.441,0,12.222-2.822,16.182-7.292
			C191.249,109.173,186.233,111.23,180.733,111.23z"/>
		<path fill="#F5F5F5" d="M157.261,90.605c0,0.142,0.009,0.283,0.012,0.425c0.228-11.743,9.813-21.196,21.61-21.196
			c11.941,0,21.622,9.681,21.622,21.623c0,11.797-9.452,21.384-21.196,21.611c0.144,0.002,0.285,0.013,0.427,0.013
			c12.413,0,22.477-10.063,22.477-22.476c0-12.414-10.063-22.476-22.477-22.476S157.261,78.191,157.261,90.605z"/>
	</g>
	<g>
		<path fill="#E0E0E0" d="M165.745,122.089c6.726,0,12.176,5.45,12.176,12.174c0,6.726-5.45,12.176-12.176,12.176
			c-6.722,0-12.176-5.45-12.176-12.176C153.569,127.539,159.023,122.089,165.745,122.089z"/>
		<path fill="#BDBDBD" d="M166.788,145.397c-6.725,0-12.175-5.451-12.175-12.176c0-3.097,1.157-5.922,3.062-8.07
			c-2.516,2.229-4.105,5.484-4.105,9.111c0,6.726,5.454,12.176,12.176,12.176c3.629,0,6.884-1.588,9.114-4.104
			C172.71,144.239,169.885,145.397,166.788,145.397z"/>
		<path fill="#F5F5F5" d="M153.569,133.783c0,0.079,0.006,0.161,0.006,0.239c0.13-6.612,5.526-11.934,12.17-11.934
			c6.726,0,12.176,5.45,12.176,12.174c0,6.644-5.321,12.043-11.934,12.17c0.079,0.002,0.159,0.006,0.239,0.006
			c6.99,0,12.656-5.665,12.656-12.655s-5.666-12.656-12.656-12.656S153.569,126.793,153.569,133.783z"/>
	</g>
	<g>
		<circle fill="#E0E0E0" cx="148.908" cy="111.616" r="7.37"/>
		<path fill="#BDBDBD" d="M149.538,118.355c-4.07,0-7.37-3.299-7.37-7.368c0-1.875,0.702-3.585,1.854-4.887
			c-1.522,1.349-2.484,3.32-2.484,5.516c0,4.072,3.3,7.37,7.37,7.37c2.195,0,4.165-0.961,5.517-2.483
			C153.123,117.654,151.414,118.355,149.538,118.355z"/>
		<path fill="#F5F5F5" d="M141.538,111.325c0,0.05,0.003,0.098,0.003,0.146c0.079-4.002,3.345-7.226,7.367-7.226
			c4.071,0,7.369,3.301,7.369,7.37c0,4.022-3.221,7.289-7.224,7.365c0.049,0.002,0.097,0.005,0.146,0.005
			c4.23,0,7.661-3.429,7.661-7.661c0-4.229-3.431-7.66-7.661-7.66C144.968,103.665,141.538,107.096,141.538,111.325z"/>
	</g>
	<g>
		<circle fill="#E0E0E0" cx="97.824" cy="13.711" r="8.336"/>
		<path fill="#BDBDBD" d="M98.538,21.335c-4.604,0-8.336-3.733-8.336-8.337c0-2.119,0.793-4.054,2.096-5.525
			c-1.722,1.527-2.809,3.755-2.809,6.24c0,4.602,3.732,8.335,8.336,8.335c2.483,0,4.71-1.088,6.238-2.81
			C102.591,20.542,100.657,21.335,98.538,21.335z"/>
		<path fill="#F5F5F5" d="M89.488,13.382c0,0.055,0.003,0.11,0.005,0.164c0.086-4.527,3.782-8.171,8.331-8.171
			c4.603,0,8.335,3.731,8.335,8.338c0,4.546-3.643,8.242-8.17,8.331c0.055,0,0.108,0.004,0.164,0.004
			c4.785,0,8.665-3.88,8.665-8.666c0-4.784-3.88-8.664-8.665-8.664C93.367,4.718,89.488,8.598,89.488,13.382z"/>
	</g>
	<g>
		<circle fill="#E0E0E0" cx="108.14" cy="167.995" r="10.988"/>
		<path fill="#BDBDBD" d="M109.08,178.044c-6.07,0-10.99-4.918-10.99-10.988c0-2.796,1.046-5.346,2.765-7.284
			c-2.271,2.014-3.705,4.95-3.705,8.224c0,6.068,4.921,10.988,10.99,10.988c3.273,0,6.21-1.432,8.223-3.703
			C114.425,177,111.876,178.044,109.08,178.044z"/>
		<path fill="#F5F5F5" d="M97.15,167.563c0,0.072,0.004,0.144,0.005,0.216c0.117-5.967,4.988-10.771,10.985-10.771
			c6.069,0,10.988,4.921,10.988,10.988c0,5.998-4.803,10.868-10.771,10.984c0.072,0,0.143,0.004,0.216,0.004
			c6.309,0,11.422-5.111,11.422-11.421s-5.113-11.422-11.422-11.422C102.264,156.141,97.15,161.253,97.15,167.563z"/>
	</g>
	<g>
		<circle fill="#E0E0E0" cx="68.052" cy="142.99" r="9.207"/>
		<path fill="#BDBDBD" d="M68.839,151.409c-5.084,0-9.206-4.122-9.206-9.207c0-2.341,0.875-4.479,2.315-6.104
			c-1.903,1.688-3.104,4.149-3.104,6.892c0,5.085,4.122,9.208,9.208,9.208c2.742,0,5.203-1.201,6.891-3.104
			C73.316,150.534,71.181,151.409,68.839,151.409z"/>
		<path fill="#F5F5F5" d="M58.844,142.628c0,0.06,0.004,0.12,0.005,0.18c0.097-5,4.179-9.024,9.203-9.024
			c5.084,0,9.207,4.121,9.207,9.206c0,5.025-4.024,9.107-9.026,9.204c0.061,0,0.122,0.004,0.182,0.004
			c5.286,0,9.571-4.285,9.571-9.569c0-5.287-4.286-9.57-9.571-9.57C63.13,133.058,58.844,137.341,58.844,142.628z"/>
	</g>
	<g>
		<circle fill="#E0E0E0" cx="172.183" cy="159.583" r="6.209"/>
		<path fill="#BDBDBD" d="M172.715,165.262c-3.43,0-6.209-2.782-6.209-6.211c0-1.578,0.592-3.019,1.562-4.115
			c-1.282,1.138-2.092,2.798-2.092,4.646c0,3.431,2.778,6.211,6.207,6.211c1.852,0,3.511-0.81,4.647-2.094
			C175.735,164.67,174.294,165.262,172.715,165.262z"/>
		<path fill="#F5F5F5" d="M165.976,159.338c0,0.041,0.001,0.081,0.002,0.123c0.064-3.374,2.817-6.088,6.205-6.088
			c3.431,0,6.21,2.779,6.21,6.208c0,3.39-2.715,6.142-6.086,6.207c0.041,0.002,0.081,0.004,0.122,0.004
			c3.563,0,6.454-2.891,6.454-6.454c0-3.565-2.891-6.454-6.454-6.454C168.864,152.884,165.976,155.772,165.976,159.338z"/>
	</g>
	<path opacity="0.1" fill="#212121" d="M173.401,109.829c0,49.253-29.877,91.523-72.494,109.687
		c3.084,0.261,6.202,0.401,9.354,0.401c60.801,0,110.088-49.288,110.088-110.088c0-60.798-49.287-110.087-110.088-110.087
		c-3.151,0-6.269,0.141-9.354,0.399C143.524,18.307,173.401,60.577,173.401,109.829z"/>
	<path opacity="0.1" fill="#212121" d="M198.459,109.829c0,46.048-25.367,86.165-62.883,107.158
		c48.596-11.436,84.772-55.07,84.772-107.158c0-52.087-36.177-95.721-84.772-107.157C173.092,23.667,198.459,63.782,198.459,109.829
		z"/>
</g>
</svg>
