<?xml version="1.0" encoding="UTF-8" standalone="no"?>
<svg
   xmlns:dc="http://purl.org/dc/elements/1.1/"
   xmlns:cc="http://creativecommons.org/ns#"
   xmlns:rdf="http://www.w3.org/1999/02/22-rdf-syntax-ns#"
   xmlns:svg="http://www.w3.org/2000/svg"
   xmlns="http://www.w3.org/2000/svg"
   xmlns:sodipodi="http://sodipodi.sourceforge.net/DTD/sodipodi-0.dtd"
   xmlns:inkscape="http://www.inkscape.org/namespaces/inkscape"
   inkscape:version="1.0 (4035a4fb49, 2020-05-01)"
   sodipodi:docname="imPiotrr.svg"
   xml:space="preserve"
   enable-background="new 0 0 1920 1080"
   viewBox="0 0 541.77301 316.79999"
   height="316.79999"
   width="541.77301"
   y="0px"
   x="0px"
   id="Warstwa_1"
   version="1.1"><metadata
   id="metadata1471"><rdf:RDF><cc:Work
       rdf:about=""><dc:format>image/svg+xml</dc:format><dc:type
         rdf:resource="http://purl.org/dc/dcmitype/StillImage" /></cc:Work></rdf:RDF></metadata><defs
   id="defs1469" /><sodipodi:namedview
   inkscape:current-layer="Warstwa_1"
   inkscape:window-maximized="1"
   inkscape:window-y="-8"
   inkscape:window-x="-8"
   inkscape:cy="323.94701"
   inkscape:cx="714.403"
   inkscape:zoom="0.67552083"
   showgrid="false"
   id="namedview1467"
   inkscape:window-height="1017"
   inkscape:window-width="1920"
   inkscape:pageshadow="2"
   inkscape:pageopacity="0"
   guidetolerance="10"
   gridtolerance="10"
   objecttolerance="10"
   borderopacity="1"
   bordercolor="#666666"
   pagecolor="#ffffff" />


<g
   transform="translate(-245.597,-216.05299)"
   id="g1572"><g
     id="g1522"><g
       id="g272">
	<g
   id="g190">
		<g
   id="g188">
			<path
   id="path180"
   d="M 245.597,336.559 V 216.053 h 16.812 v 52.071 h 30.942 v -52.071 h 16.812 v 120.506 h -16.812 v -56.385 h -30.942 v 56.385 z"
   fill="#ef4c23" />
			<g
   id="g186">
				<g
   id="g184">
					<path
   id="path182"
   d="m 328.638,237.789 v -16.665 h 15.921 v 16.665 z m 0,98.781 v -85.988 h 15.921 v 85.988 z"
   fill="#231f20" />
				</g>
			</g>
		</g>
	</g>
	<g
   id="g210">
		<path
   id="path192"
   d="M 328.742,452.116 V 336.385 h 15.86 v 115.731 z"
   fill="#231f20" />
		<path
   id="path194"
   d="m 365.459,374.248 -2.715,-5.716 c 2.952,-0.189 4.976,-1.571 6.072,-4.144 1.094,-2.571 1.643,-6.522 1.643,-11.858 h -7.572 v -16.146 h 16.717 c 0,2.286 0,4.597 0,6.93 0,2.335 0,4.644 0,6.93 0,7.43 -1.049,13.216 -3.144,17.359 -2.095,4.144 -5.763,6.359 -11.001,6.645 z"
   fill="#231f20" />
		<path
   id="path196"
   d="m 391.748,452.116 v -82.584 h 14.145 v 7.858 c 2.762,-3.143 5.809,-5.476 9.144,-7.001 3.333,-1.522 6.762,-2.286 10.288,-2.286 3.047,0 5.786,0.764 8.215,2.286 2.429,1.525 4.166,4.24 5.215,8.145 2.952,-3.619 6.166,-6.263 9.645,-7.93 3.476,-1.666 7.119,-2.501 10.93,-2.501 2.666,0 5.094,0.644 7.287,1.93 2.19,1.285 3.952,3.335 5.287,6.144 1.333,2.811 2,6.501 2,11.073 v 64.866 H 459.902 V 388.25 c 0,-4.001 -0.643,-6.691 -1.929,-8.073 -1.286,-1.379 -3.025,-2.071 -5.215,-2.071 -2.096,0 -4.286,0.596 -6.572,1.786 -2.286,1.192 -4.382,2.835 -6.287,4.929 0,0.382 0,0.764 0,1.144 0,0.382 0,0.811 0,1.286 v 64.866 H 425.897 V 388.25 c 0,-4.001 -0.643,-6.691 -1.929,-8.073 -1.286,-1.379 -3.025,-2.071 -5.215,-2.071 -2.096,0 -4.264,0.596 -6.501,1.786 -2.239,1.192 -4.357,2.835 -6.358,4.929 v 67.296 h -14.146 z"
   fill="#231f20" />
		<path
   id="path198"
   d="M 522.908,452.116 V 336.385 h 28.718 c 6.952,0 12.502,1.264 16.646,3.786 4.144,2.525 7.166,6.169 9.073,10.931 1.904,4.764 2.857,10.526 2.857,17.288 0,6.097 -1.072,11.384 -3.215,15.859 -2.143,4.479 -5.311,7.93 -9.501,10.358 -4.192,2.43 -9.43,3.644 -15.716,3.644 h -12.716 v 53.865 z m 16.145,-65.438 h 7.43 c 4.666,0 8.334,-0.522 11.001,-1.571 2.666,-1.047 4.572,-2.88 5.715,-5.501 1.143,-2.618 1.714,-6.309 1.714,-11.073 0,-5.522 -0.406,-9.763 -1.214,-12.716 -0.811,-2.951 -2.5,-5.001 -5.072,-6.144 -2.572,-1.144 -6.572,-1.715 -12.001,-1.715 h -7.573 z"
   fill="#231f20" />
		<path
   id="path200"
   d="m 591.202,357.245 v -16.002 h 15.288 v 16.002 z m 0,94.871 v -82.584 h 15.288 v 82.584 z"
   fill="#231f20" />
		<path
   id="path202"
   d="m 645.637,453.259 c -6.097,0 -10.908,-1.236 -14.431,-3.715 -3.525,-2.476 -6.025,-6 -7.501,-10.572 -1.478,-4.572 -2.215,-9.952 -2.215,-16.146 v -24.004 c 0,-6.19 0.737,-11.572 2.215,-16.145 1.476,-4.572 3.976,-8.095 7.501,-10.573 3.523,-2.476 8.333,-3.715 14.431,-3.715 6.095,0 10.881,1.239 14.359,3.715 3.476,2.479 5.952,6.001 7.429,10.573 1.476,4.572 2.215,9.954 2.215,16.145 v 24.004 c 0,6.193 -0.739,11.573 -2.215,16.146 -1.478,4.572 -3.954,8.097 -7.429,10.572 -3.478,2.478 -8.264,3.715 -14.359,3.715 z m 0,-11.287 c 2.951,0 5.023,-0.857 6.215,-2.571 1.189,-1.715 1.904,-3.977 2.143,-6.787 0.236,-2.809 0.357,-5.737 0.357,-8.787 v -25.86 c 0,-3.144 -0.121,-6.095 -0.357,-8.858 -0.239,-2.762 -0.954,-5.023 -2.143,-6.787 -1.192,-1.762 -3.264,-2.644 -6.215,-2.644 -2.954,0 -5.05,0.882 -6.287,2.644 -1.239,1.764 -1.978,4.025 -2.215,6.787 -0.239,2.764 -0.357,5.715 -0.357,8.858 v 25.86 c 0,3.05 0.118,5.979 0.357,8.787 0.237,2.811 0.976,5.072 2.215,6.787 1.237,1.713 3.334,2.571 6.287,2.571 z"
   fill="#231f20" />
		<path
   id="path204"
   d="m 705.645,453.259 c -4.287,0 -7.74,-0.81 -10.359,-2.429 -2.621,-1.618 -4.525,-3.904 -5.715,-6.858 -1.192,-2.951 -1.786,-6.429 -1.786,-10.43 v -53.865 h -8.715 v -10.145 h 8.715 v -24.146 h 15.288 v 24.146 h 13.288 v 10.145 h -13.288 v 52.865 c 0,3.239 0.522,5.55 1.571,6.93 1.047,1.382 3.047,2.071 6.001,2.071 0.761,0 1.643,-0.047 2.644,-0.143 1,-0.094 1.976,-0.189 2.929,-0.286 v 11.288 c -1.906,0.285 -3.668,0.5 -5.287,0.643 -1.621,0.143 -3.382,0.214 -5.286,0.214 z"
   fill="#231f20" />
		<path
   id="path206"
   d="m 728.076,452.116 v -82.584 h 15.288 v 11.717 c 3.047,-5.048 6.095,-8.43 9.144,-10.145 3.047,-1.715 6.095,-2.572 9.144,-2.572 0.38,0 0.737,0 1.072,0 0.333,0 0.786,0.05 1.357,0.144 v 16.859 c -1.143,-0.476 -2.454,-0.88 -3.929,-1.215 -1.478,-0.332 -2.978,-0.5 -4.5,-0.5 -2.382,0 -4.55,0.55 -6.501,1.644 -1.954,1.096 -3.882,3.215 -5.787,6.357 v 60.295 z"
   fill="#231f20" />
		<path
   id="path208"
   d="m 773.94,470.833 -2.429,-6.572 c 2.572,-0.857 4.594,-2.357 6.072,-4.501 1.476,-2.143 2.214,-4.692 2.214,-7.644 h -8.144 v -16.431 h 15.717 v 16.145 c 0,5.048 -1.096,9.073 -3.286,12.073 -2.192,3.001 -5.572,5.31 -10.144,6.93 z"
   fill="#231f20" />
	</g>
	<g
   id="g260">
		<g
   id="g258">
			<path
   id="path212"
   d="m 396.535,511.651 c -1.044,-0.283 -2.045,-0.75 -3.002,-1.403 -0.958,-0.652 -1.816,-1.425 -2.578,-2.317 -0.761,-0.892 -1.392,-1.876 -1.893,-2.953 -0.5,-1.077 -0.816,-2.182 -0.946,-3.313 0,-0.152 -0.005,-0.294 -0.016,-0.424 -0.011,-0.131 -0.005,-0.262 0.016,-0.392 0.022,-0.131 0.077,-0.251 0.163,-0.359 0.087,-0.109 0.229,-0.186 0.424,-0.229 0.283,0.152 0.561,0.462 0.832,0.93 0.272,0.468 0.561,1.028 0.865,1.682 0.305,0.652 0.631,1.338 0.979,2.056 0.348,0.718 0.75,1.371 1.208,1.958 0.457,0.588 0.979,1.077 1.566,1.469 0.587,0.392 1.251,0.587 1.991,0.587 0.239,0 0.44,-0.064 0.604,-0.195 0.163,-0.131 0.293,-0.289 0.392,-0.474 0.098,-0.185 0.163,-0.386 0.196,-0.604 0.032,-0.218 0.049,-0.413 0.049,-0.587 0.086,-1.915 0.011,-3.824 -0.229,-5.728 -0.24,-1.904 -0.533,-3.803 -0.881,-5.695 -0.348,-1.892 -0.707,-3.774 -1.077,-5.646 -0.37,-1.871 -0.631,-3.742 -0.783,-5.613 0.043,-0.152 0.065,-0.283 0.065,-0.392 0,-0.109 0.027,-0.201 0.082,-0.277 0.055,-0.076 0.136,-0.136 0.245,-0.18 0.108,-0.044 0.293,-0.065 0.555,-0.065 0.217,0.152 0.451,0.544 0.702,1.175 0.25,0.631 0.506,1.436 0.767,2.415 0.261,0.979 0.522,2.094 0.783,3.345 0.261,1.252 0.5,2.563 0.718,3.933 0.217,1.371 0.402,2.763 0.555,4.178 0.152,1.414 0.256,2.784 0.31,4.112 0.054,1.326 0.054,2.566 0,3.72 -0.054,1.154 -0.185,2.138 -0.392,2.954 -0.207,0.815 -0.495,1.436 -0.865,1.86 -0.372,0.424 -0.84,0.581 -1.405,0.472 z m -3.819,-33.842 c 0,-0.087 0.082,-0.206 0.245,-0.359 0.164,-0.151 0.299,-0.238 0.408,-0.261 0.304,-0.065 0.56,-0.027 0.767,0.114 0.206,0.142 0.375,0.326 0.506,0.555 0.13,0.229 0.228,0.484 0.293,0.767 0.065,0.283 0.098,0.534 0.098,0.751 -0.24,0.218 -0.495,0.338 -0.767,0.359 -0.272,0.021 -0.522,-0.044 -0.75,-0.196 -0.229,-0.151 -0.419,-0.38 -0.571,-0.686 -0.153,-0.304 -0.229,-0.653 -0.229,-1.044 z"
   fill="#231f20" />
			<path
   id="path214"
   d="m 410.96,491.939 c -0.501,0.283 -0.93,0.626 -1.29,1.028 -0.359,0.402 -0.723,0.783 -1.093,1.143 -0.37,0.358 -0.778,0.669 -1.224,0.93 -0.446,0.261 -1.017,0.392 -1.713,0.392 -0.783,0 -1.491,-0.168 -2.121,-0.506 -0.631,-0.337 -1.191,-0.794 -1.681,-1.37 -0.489,-0.577 -0.914,-1.229 -1.272,-1.959 -0.359,-0.729 -0.653,-1.479 -0.881,-2.251 -0.228,-0.772 -0.403,-1.534 -0.522,-2.285 -0.12,-0.75 -0.18,-1.43 -0.18,-2.039 -0.174,-1.176 -0.142,-2.094 0.098,-2.758 0.239,-0.664 0.527,-1.088 0.865,-1.273 0.337,-0.185 0.625,-0.141 0.865,0.131 0.239,0.272 0.272,0.745 0.098,1.42 -0.044,0.087 -0.077,0.223 -0.098,0.407 -0.022,0.186 -0.044,0.376 -0.065,0.571 -0.021,0.196 -0.043,0.381 -0.065,0.555 -0.022,0.175 -0.033,0.294 -0.033,0.359 0,0.457 0.043,0.995 0.13,1.615 0.087,0.62 0.223,1.268 0.408,1.942 0.185,0.674 0.418,1.344 0.702,2.007 0.282,0.664 0.62,1.257 1.012,1.778 0.392,0.522 0.843,0.946 1.354,1.273 0.511,0.326 1.072,0.489 1.681,0.489 0.392,0 0.837,-0.19 1.338,-0.571 0.5,-0.381 0.974,-0.837 1.419,-1.371 0.446,-0.532 0.827,-1.082 1.143,-1.647 0.315,-0.565 0.473,-1.045 0.473,-1.437 0,-0.217 0.005,-0.576 0.016,-1.076 0.011,-0.501 0.017,-1.033 0.017,-1.6 0,-0.565 -0.006,-1.099 -0.017,-1.6 -0.011,-0.5 -0.016,-0.848 -0.016,-1.044 0.13,-0.217 0.271,-0.386 0.424,-0.506 0.152,-0.119 0.337,-0.18 0.555,-0.18 0.261,0 0.478,0.175 0.653,0.522 0.174,0.349 0.315,0.795 0.424,1.338 0.108,0.544 0.185,1.132 0.228,1.763 0.043,0.631 0.076,1.24 0.098,1.827 0.021,0.588 0.043,1.104 0.065,1.551 0.021,0.446 0.054,0.745 0.098,0.897 0.109,0.436 0.266,0.925 0.473,1.468 0.207,0.545 0.408,1.072 0.604,1.583 0.196,0.512 0.37,0.979 0.522,1.403 0.152,0.425 0.229,0.746 0.229,0.963 0,0.326 -0.093,0.522 -0.277,0.588 -0.185,0.064 -0.419,0.098 -0.702,0.098 -0.348,0 -0.604,-0.087 -0.767,-0.261 -0.163,-0.175 -0.283,-0.397 -0.359,-0.67 -0.077,-0.271 -0.136,-0.57 -0.18,-0.897 -0.043,-0.326 -0.114,-0.663 -0.212,-1.012 -0.098,-0.348 -0.24,-0.674 -0.424,-0.979 -0.186,-0.302 -0.452,-0.552 -0.8,-0.749 z"
   fill="#231f20" />
			<path
   id="path216"
   d="m 416.148,483.944 c 0,-0.196 0.07,-0.321 0.212,-0.376 0.141,-0.054 0.299,-0.081 0.473,-0.081 0.13,0 0.223,0.032 0.277,0.098 0.054,0.065 0.092,0.142 0.114,0.229 0.021,0.087 0.054,0.169 0.098,0.245 0.044,0.076 0.12,0.114 0.229,0.114 0.305,0 0.674,-0.12 1.11,-0.359 0.435,-0.239 0.908,-0.5 1.419,-0.783 0.511,-0.282 1.055,-0.544 1.632,-0.783 0.576,-0.239 1.147,-0.359 1.713,-0.359 0.739,0 1.419,0.191 2.04,0.571 0.62,0.381 1.175,0.887 1.665,1.518 0.49,0.632 0.908,1.338 1.256,2.121 0.348,0.783 0.642,1.583 0.881,2.399 0.239,0.815 0.413,1.61 0.522,2.382 0.109,0.772 0.163,1.441 0.163,2.007 0,0.196 -0.016,0.49 -0.049,0.882 -0.033,0.392 -0.087,0.783 -0.163,1.175 -0.077,0.392 -0.201,0.734 -0.375,1.027 -0.174,0.294 -0.392,0.441 -0.652,0.441 -0.044,0 -0.12,-0.006 -0.229,-0.017 -0.109,-0.011 -0.218,-0.032 -0.327,-0.065 -0.109,-0.032 -0.201,-0.07 -0.277,-0.114 -0.076,-0.043 -0.114,-0.108 -0.114,-0.195 0.196,-1.676 0.196,-3.248 0,-4.716 -0.196,-1.469 -0.511,-2.758 -0.946,-3.867 -0.436,-1.11 -0.968,-1.991 -1.599,-2.644 -0.631,-0.653 -1.305,-0.979 -2.023,-0.979 -0.675,0 -1.305,0.109 -1.893,0.326 -0.587,0.218 -1.099,0.533 -1.534,0.946 -0.436,0.414 -0.778,0.914 -1.028,1.502 -0.25,0.587 -0.375,1.229 -0.375,1.925 0,0.697 0.065,1.388 0.196,2.072 0.131,0.686 0.277,1.371 0.441,2.057 0.163,0.686 0.31,1.376 0.44,2.072 0.13,0.696 0.196,1.393 0.196,2.089 -0.609,0 -1.121,-0.25 -1.534,-0.751 -0.414,-0.5 -0.746,-1.143 -0.996,-1.926 -0.25,-0.783 -0.446,-1.664 -0.587,-2.644 -0.142,-0.979 -0.24,-1.941 -0.294,-2.888 -0.054,-0.947 -0.082,-1.839 -0.082,-2.676 0,-0.838 0,-1.496 0,-1.975 z"
   fill="#231f20" />
			<path
   id="path218"
   d="m 430.965,477.188 c 0,-0.261 0.076,-0.43 0.229,-0.506 0.152,-0.076 0.348,-0.114 0.587,-0.114 0.152,-0.021 0.354,0.071 0.604,0.277 0.25,0.207 0.457,0.44 0.62,0.702 0.164,0.261 0.256,0.5 0.277,0.718 0.021,0.261 -0.142,0.413 -0.489,0.457 h -0.163 c -0.327,0 -0.599,-0.021 -0.816,-0.065 -0.218,-0.043 -0.387,-0.114 -0.506,-0.212 -0.12,-0.099 -0.207,-0.245 -0.261,-0.44 -0.055,-0.196 -0.082,-0.468 -0.082,-0.817 z m 1.664,8.192 c 0,-0.087 0,-0.25 0,-0.489 0,-0.239 0.005,-0.489 0.016,-0.751 0.011,-0.261 0.017,-0.511 0.017,-0.75 0,-0.239 0,-0.402 0,-0.49 -0.087,-0.674 0.108,-1.012 0.587,-1.012 0.217,0 0.402,0.055 0.555,0.163 0.152,0.109 0.293,0.272 0.424,0.49 -0.065,1.131 -0.017,2.225 0.147,3.279 0.163,1.056 0.348,2.101 0.555,3.133 0.207,1.034 0.402,2.073 0.587,3.117 0.185,1.044 0.277,2.133 0.277,3.264 0,0.305 -0.093,0.609 -0.277,0.914 -0.185,0.305 -0.462,0.456 -0.832,0.456 -0.283,0 -0.528,-0.244 -0.734,-0.734 -0.207,-0.489 -0.387,-1.109 -0.539,-1.859 -0.152,-0.751 -0.283,-1.583 -0.392,-2.497 -0.109,-0.914 -0.191,-1.789 -0.245,-2.627 -0.055,-0.837 -0.093,-1.588 -0.114,-2.252 -0.021,-0.664 -0.032,-1.115 -0.032,-1.355 z"
   fill="#231f20" />
			<path
   id="path220"
   d="m 437.035,490.015 c 0,-1.196 0.261,-2.241 0.783,-3.134 0.522,-0.892 1.208,-1.642 2.056,-2.251 0.848,-0.609 1.8,-1.062 2.855,-1.354 1.055,-0.294 2.116,-0.441 3.182,-0.441 0.565,0 1.093,0.104 1.583,0.311 0.49,0.207 0.957,0.489 1.403,0.849 0.446,0.358 0.843,0.772 1.191,1.24 0.348,0.468 0.647,0.952 0.897,1.452 0.25,0.501 0.44,1.007 0.571,1.518 0.13,0.512 0.196,1.007 0.196,1.484 0,1.11 -0.218,2.101 -0.653,2.971 -0.436,0.87 -1.023,1.604 -1.762,2.202 -0.74,0.599 -1.578,1.056 -2.513,1.371 -0.936,0.315 -1.893,0.473 -2.872,0.473 -1.001,0 -1.92,-0.157 -2.757,-0.473 -0.838,-0.315 -1.567,-0.756 -2.187,-1.322 -0.62,-0.565 -1.104,-1.267 -1.453,-2.104 -0.349,-0.837 -0.52,-1.77 -0.52,-2.792 z m 1.599,-0.262 c 0,0.675 0.125,1.322 0.375,1.942 0.25,0.62 0.598,1.158 1.044,1.615 0.446,0.457 0.974,0.821 1.583,1.093 0.609,0.272 1.262,0.408 1.958,0.408 0.37,0.044 0.821,-0.017 1.354,-0.18 0.533,-0.163 1.066,-0.402 1.599,-0.718 0.533,-0.315 1.044,-0.696 1.534,-1.143 0.49,-0.445 0.897,-0.935 1.224,-1.468 0.326,-0.533 0.527,-1.088 0.604,-1.665 0.076,-0.576 -0.022,-1.152 -0.293,-1.729 -0.272,-0.576 -0.767,-1.131 -1.485,-1.664 -0.718,-0.533 -1.708,-1.028 -2.97,-1.485 -0.718,0 -1.463,0.104 -2.235,0.311 -0.772,0.207 -1.474,0.517 -2.105,0.93 -0.631,0.414 -1.153,0.936 -1.566,1.566 -0.414,0.632 -0.621,1.361 -0.621,2.187 z"
   fill="#231f20" />
			<path
   id="path222"
   d="m 456.29,496.672 c -0.479,-0.87 -0.892,-1.816 -1.24,-2.839 -0.348,-1.023 -0.642,-2.057 -0.881,-3.101 -0.24,-1.045 -0.43,-2.062 -0.571,-3.052 -0.142,-0.989 -0.234,-1.887 -0.277,-2.692 0,-0.151 -0.011,-0.32 -0.033,-0.506 -0.022,-0.185 -0.027,-0.375 -0.016,-0.571 0.011,-0.195 0.043,-0.38 0.098,-0.555 0.054,-0.174 0.147,-0.326 0.277,-0.457 h 0.065 c 0.021,0 0.033,-0.005 0.033,-0.016 0,-0.011 0.011,-0.017 0.033,-0.017 0.021,0 0.032,0.006 0.032,0.017 0,0.011 0.021,0.016 0.065,0.016 h 0.065 c 0.043,0.022 0.152,0.065 0.326,0.131 0.174,0.065 0.283,0.12 0.327,0.163 0.392,-0.131 0.794,-0.288 1.208,-0.473 0.413,-0.186 0.832,-0.359 1.256,-0.522 0.424,-0.163 0.854,-0.299 1.289,-0.408 0.435,-0.108 0.859,-0.163 1.273,-0.163 0.304,0 0.571,0.011 0.799,0.032 0.229,0.022 0.457,0.061 0.686,0.114 0.228,0.055 0.473,0.12 0.734,0.196 0.261,0.076 0.566,0.169 0.914,0.277 0.174,0.131 0.332,0.256 0.473,0.375 0.141,0.12 0.272,0.256 0.392,0.408 0.119,0.152 0.212,0.338 0.277,0.555 0.065,0.218 0.098,0.501 0.098,0.849 -0.349,0.044 -0.756,0.017 -1.224,-0.082 -0.468,-0.098 -0.958,-0.223 -1.468,-0.375 -0.512,-0.151 -1.04,-0.282 -1.583,-0.392 -0.544,-0.108 -1.066,-0.151 -1.566,-0.131 -0.501,0.022 -0.968,0.164 -1.403,0.425 -0.457,0.218 -0.86,0.609 -1.208,1.175 -0.152,0.631 -0.218,1.251 -0.196,1.86 0.021,0.609 0.098,1.202 0.229,1.778 0.13,0.577 0.299,1.153 0.506,1.729 0.207,0.577 0.402,1.153 0.587,1.73 0.185,0.576 0.353,1.147 0.506,1.713 0.152,0.566 0.25,1.143 0.293,1.729 0,0.218 -0.12,0.452 -0.359,0.702 -0.24,0.253 -0.511,0.378 -0.816,0.378 z"
   fill="#231f20" />
			<path
   id="path224"
   d="m 487.849,486.294 c 0.457,0 0.653,0.218 0.587,0.652 0.196,0.24 0.19,0.463 -0.016,0.669 -0.207,0.207 -0.55,0.359 -1.028,0.457 -0.478,0.098 -1.077,0.142 -1.795,0.131 -0.718,-0.011 -1.501,-0.104 -2.35,-0.277 0,0.827 0.19,1.599 0.571,2.317 0.38,0.718 0.799,1.403 1.256,2.056 0.457,0.653 0.881,1.284 1.272,1.893 0.392,0.609 0.588,1.219 0.588,1.828 0,0.282 -0.087,0.468 -0.261,0.555 -0.13,0.087 -0.327,0.13 -0.587,0.13 -0.218,0 -0.452,-0.081 -0.702,-0.244 -0.25,-0.163 -0.479,-0.364 -0.686,-0.604 -0.207,-0.239 -0.397,-0.49 -0.571,-0.751 -0.153,-0.261 -0.272,-0.479 -0.359,-0.652 -0.087,-0.175 -0.212,-0.425 -0.375,-0.751 -0.163,-0.326 -0.354,-0.707 -0.571,-1.143 -0.218,-0.435 -0.436,-0.886 -0.653,-1.354 -0.218,-0.467 -0.43,-0.919 -0.636,-1.354 -0.207,-0.436 -0.387,-0.827 -0.539,-1.176 -0.174,-0.326 -0.293,-0.576 -0.359,-0.75 l -0.359,-0.359 c -0.109,0.044 -0.31,0.093 -0.604,0.147 -0.293,0.054 -0.604,0.114 -0.93,0.179 -0.326,0.065 -0.642,0.131 -0.946,0.196 -0.304,0.065 -0.522,0.098 -0.653,0.098 h -0.163 c -0.174,0 -0.293,-0.06 -0.359,-0.18 -0.065,-0.119 -0.098,-0.266 -0.098,-0.44 0,-0.369 0.131,-0.652 0.392,-0.849 0.261,-0.195 0.576,-0.337 0.946,-0.424 0.37,-0.087 0.755,-0.147 1.159,-0.18 0.402,-0.032 0.734,-0.06 0.995,-0.081 -0.044,-0.653 -0.077,-1.425 -0.098,-2.317 -0.022,-0.892 0.021,-1.816 0.13,-2.774 0.108,-0.957 0.288,-1.897 0.539,-2.823 0.25,-0.924 0.609,-1.756 1.077,-2.496 0.468,-0.739 1.061,-1.338 1.779,-1.795 0.718,-0.457 1.599,-0.686 2.644,-0.686 0.587,0 1.229,0.147 1.925,0.44 0.696,0.294 1.343,0.681 1.942,1.159 0.598,0.479 1.093,1.017 1.485,1.615 0.392,0.598 0.587,1.202 0.587,1.812 h -0.75 c -0.436,0 -0.821,-0.163 -1.159,-0.49 -0.337,-0.326 -0.691,-0.69 -1.061,-1.093 -0.37,-0.402 -0.762,-0.768 -1.175,-1.094 -0.414,-0.326 -0.881,-0.489 -1.403,-0.489 -0.74,0 -1.415,0.163 -2.023,0.489 -0.609,0.326 -1.131,0.762 -1.566,1.306 -0.436,0.544 -0.762,1.153 -0.979,1.827 -0.218,0.675 -0.327,1.36 -0.327,2.057 v 0.326 l 0.587,4.667 c 0.043,0.044 0.164,0.081 0.359,0.114 0.196,0.032 0.506,0.076 0.93,0.131 0.424,0.054 0.99,0.114 1.697,0.179 0.708,0.065 1.605,0.131 2.694,0.196 z"
   fill="#231f20" />
			<path
   id="path226"
   d="m 493.005,496.672 c -0.479,-0.87 -0.892,-1.816 -1.24,-2.839 -0.348,-1.023 -0.642,-2.057 -0.881,-3.101 -0.24,-1.045 -0.43,-2.062 -0.571,-3.052 -0.142,-0.989 -0.234,-1.887 -0.277,-2.692 0,-0.151 -0.011,-0.32 -0.033,-0.506 -0.022,-0.185 -0.027,-0.375 -0.016,-0.571 0.011,-0.195 0.043,-0.38 0.098,-0.555 0.054,-0.174 0.147,-0.326 0.277,-0.457 h 0.065 c 0.021,0 0.033,-0.005 0.033,-0.016 0,-0.011 0.011,-0.017 0.033,-0.017 0.021,0 0.032,0.006 0.032,0.017 0,0.011 0.021,0.016 0.065,0.016 h 0.065 c 0.043,0.022 0.152,0.065 0.326,0.131 0.174,0.065 0.283,0.12 0.327,0.163 0.392,-0.131 0.794,-0.288 1.208,-0.473 0.413,-0.186 0.832,-0.359 1.256,-0.522 0.424,-0.163 0.854,-0.299 1.289,-0.408 0.435,-0.108 0.859,-0.163 1.273,-0.163 0.304,0 0.571,0.011 0.799,0.032 0.229,0.022 0.457,0.061 0.686,0.114 0.228,0.055 0.473,0.12 0.734,0.196 0.261,0.076 0.566,0.169 0.914,0.277 0.174,0.131 0.332,0.256 0.473,0.375 0.141,0.12 0.272,0.256 0.392,0.408 0.119,0.152 0.212,0.338 0.277,0.555 0.065,0.218 0.098,0.501 0.098,0.849 -0.349,0.044 -0.756,0.017 -1.224,-0.082 -0.468,-0.098 -0.958,-0.223 -1.468,-0.375 -0.512,-0.151 -1.04,-0.282 -1.583,-0.392 -0.544,-0.108 -1.066,-0.151 -1.566,-0.131 -0.501,0.022 -0.968,0.164 -1.403,0.425 -0.457,0.218 -0.86,0.609 -1.208,1.175 -0.152,0.631 -0.218,1.251 -0.196,1.86 0.021,0.609 0.098,1.202 0.229,1.778 0.13,0.577 0.299,1.153 0.506,1.729 0.207,0.577 0.402,1.153 0.587,1.73 0.185,0.576 0.353,1.147 0.506,1.713 0.152,0.566 0.25,1.143 0.293,1.729 0,0.218 -0.12,0.452 -0.359,0.702 -0.24,0.253 -0.511,0.378 -0.816,0.378 z"
   fill="#231f20" />
			<path
   id="path228"
   d="m 501.621,490.015 c 0,-1.196 0.261,-2.241 0.783,-3.134 0.522,-0.892 1.208,-1.642 2.056,-2.251 0.848,-0.609 1.8,-1.062 2.855,-1.354 1.055,-0.294 2.116,-0.441 3.182,-0.441 0.565,0 1.093,0.104 1.583,0.311 0.49,0.207 0.957,0.489 1.403,0.849 0.446,0.358 0.843,0.772 1.191,1.24 0.348,0.468 0.647,0.952 0.897,1.452 0.25,0.501 0.44,1.007 0.571,1.518 0.13,0.512 0.196,1.007 0.196,1.484 0,1.11 -0.218,2.101 -0.653,2.971 -0.436,0.87 -1.023,1.604 -1.762,2.202 -0.74,0.599 -1.578,1.056 -2.513,1.371 -0.936,0.315 -1.893,0.473 -2.872,0.473 -1.001,0 -1.92,-0.157 -2.757,-0.473 -0.838,-0.315 -1.567,-0.756 -2.187,-1.322 -0.62,-0.565 -1.104,-1.267 -1.453,-2.104 -0.349,-0.837 -0.52,-1.77 -0.52,-2.792 z m 1.599,-0.262 c 0,0.675 0.125,1.322 0.375,1.942 0.25,0.62 0.598,1.158 1.044,1.615 0.446,0.457 0.974,0.821 1.583,1.093 0.609,0.272 1.262,0.408 1.958,0.408 0.37,0.044 0.821,-0.017 1.354,-0.18 0.533,-0.163 1.066,-0.402 1.599,-0.718 0.533,-0.315 1.044,-0.696 1.534,-1.143 0.49,-0.445 0.897,-0.935 1.224,-1.468 0.326,-0.533 0.527,-1.088 0.604,-1.665 0.076,-0.576 -0.022,-1.152 -0.293,-1.729 -0.272,-0.576 -0.767,-1.131 -1.485,-1.664 -0.718,-0.533 -1.708,-1.028 -2.97,-1.485 -0.718,0 -1.463,0.104 -2.235,0.311 -0.772,0.207 -1.474,0.517 -2.105,0.93 -0.631,0.414 -1.153,0.936 -1.566,1.566 -0.415,0.632 -0.621,1.361 -0.621,2.187 z"
   fill="#231f20" />
			<path
   id="path230"
   d="m 518.232,483.944 c 0,-0.196 0.07,-0.321 0.212,-0.376 0.141,-0.054 0.299,-0.081 0.473,-0.081 0.13,0 0.223,0.032 0.277,0.098 0.054,0.065 0.092,0.142 0.114,0.229 0.021,0.087 0.054,0.169 0.098,0.245 0.044,0.076 0.12,0.114 0.229,0.114 0.305,0 0.674,-0.12 1.11,-0.359 0.435,-0.239 0.908,-0.5 1.419,-0.783 0.511,-0.282 1.055,-0.544 1.632,-0.783 0.576,-0.239 1.147,-0.359 1.713,-0.359 0.739,0 1.419,0.191 2.04,0.571 0.62,0.381 1.175,0.887 1.665,1.518 0.49,0.632 0.908,1.338 1.256,2.121 0.348,0.783 0.642,1.583 0.881,2.399 0.239,0.815 0.413,1.61 0.522,2.382 0.109,0.772 0.163,1.441 0.163,2.007 0,0.196 -0.016,0.49 -0.049,0.882 -0.033,0.392 -0.087,0.783 -0.163,1.175 -0.077,0.392 -0.201,0.734 -0.375,1.027 -0.174,0.294 -0.392,0.441 -0.652,0.441 -0.044,0 -0.12,-0.006 -0.229,-0.017 -0.109,-0.011 -0.218,-0.032 -0.327,-0.065 -0.109,-0.032 -0.201,-0.07 -0.277,-0.114 -0.076,-0.043 -0.114,-0.108 -0.114,-0.195 0.196,-1.676 0.196,-3.248 0,-4.716 -0.196,-1.469 -0.511,-2.758 -0.946,-3.867 -0.436,-1.11 -0.968,-1.991 -1.599,-2.644 -0.631,-0.653 -1.305,-0.979 -2.023,-0.979 -0.675,0 -1.305,0.109 -1.893,0.326 -0.587,0.218 -1.099,0.533 -1.534,0.946 -0.436,0.414 -0.778,0.914 -1.028,1.502 -0.25,0.587 -0.375,1.229 -0.375,1.925 0,0.697 0.065,1.388 0.196,2.072 0.131,0.686 0.277,1.371 0.441,2.057 0.163,0.686 0.31,1.376 0.44,2.072 0.13,0.696 0.196,1.393 0.196,2.089 -0.609,0 -1.121,-0.25 -1.534,-0.751 -0.414,-0.5 -0.746,-1.143 -0.996,-1.926 -0.25,-0.783 -0.446,-1.664 -0.587,-2.644 -0.142,-0.979 -0.24,-1.941 -0.294,-2.888 -0.054,-0.947 -0.082,-1.839 -0.082,-2.676 0,-0.838 0,-1.496 0,-1.975 z"
   fill="#231f20" />
			<path
   id="path232"
   d="m 537.095,485.445 c -0.174,0 -0.479,0 -0.914,0 -0.435,0 -0.887,-0.038 -1.354,-0.114 -0.468,-0.076 -0.893,-0.201 -1.273,-0.375 -0.381,-0.174 -0.571,-0.425 -0.571,-0.751 0,-0.087 0.017,-0.212 0.049,-0.375 0.032,-0.163 0.135,-0.245 0.31,-0.245 l 3.361,-0.294 c 0.086,-0.805 0.152,-1.463 0.196,-1.974 0.043,-0.512 0.054,-0.99 0.033,-1.437 -0.022,-0.445 -0.049,-0.914 -0.082,-1.403 -0.033,-0.489 -0.061,-1.126 -0.082,-1.909 0,-0.152 0.032,-0.271 0.098,-0.359 0.065,-0.086 0.147,-0.151 0.245,-0.195 0.098,-0.043 0.207,-0.076 0.327,-0.098 0.119,-0.021 0.212,-0.033 0.277,-0.033 0.13,0 0.266,0.044 0.408,0.131 0.142,0.087 0.266,0.195 0.375,0.326 0.108,0.131 0.196,0.267 0.261,0.408 0.065,0.142 0.098,0.277 0.098,0.408 l 0.261,6.103 2.807,0.131 c 0.37,-0.044 0.712,0.027 1.028,0.212 0.316,0.185 0.484,0.527 0.506,1.028 -0.261,0.282 -0.577,0.451 -0.946,0.506 -0.37,0.054 -0.756,0.076 -1.159,0.064 -0.403,-0.011 -0.799,-0.011 -1.191,0 -0.392,0.012 -0.74,0.114 -1.044,0.311 0,0.13 0.011,0.489 0.033,1.077 0.021,0.587 0.043,1.283 0.065,2.088 0.021,0.806 0.049,1.665 0.082,2.579 0.033,0.913 0.06,1.757 0.082,2.528 0.021,0.773 0.038,1.432 0.049,1.975 0.011,0.544 0.016,0.849 0.016,0.914 -0.5,0.305 -0.903,0.277 -1.208,-0.082 -0.305,-0.358 -0.55,-0.892 -0.734,-1.599 -0.185,-0.707 -0.315,-1.534 -0.392,-2.48 -0.077,-0.946 -0.12,-1.882 -0.13,-2.807 -0.011,-0.925 -0.006,-1.778 0.016,-2.562 0.021,-0.783 0.053,-1.348 0.097,-1.697 z"
   fill="#231f20" />
			<path
   id="path234"
   d="m 556.774,487.926 c 0,-1.131 0.168,-2.214 0.506,-3.247 0.337,-1.033 0.827,-1.942 1.469,-2.726 0.641,-0.783 1.424,-1.408 2.35,-1.876 0.924,-0.468 1.996,-0.702 3.214,-0.702 0.718,0.087 1.343,0.283 1.876,0.588 0.533,0.305 0.968,0.68 1.306,1.126 0.337,0.445 0.582,0.962 0.734,1.55 0.13,0.566 0.196,1.175 0.196,1.827 0,0.783 -0.229,1.491 -0.686,2.122 -0.457,0.631 -1.034,1.158 -1.729,1.582 -0.697,0.425 -1.447,0.751 -2.252,0.979 -0.805,0.229 -1.556,0.343 -2.252,0.343 -0.261,0 -0.528,0 -0.799,0 -0.272,0 -0.517,-0.043 -0.734,-0.131 -0.218,-0.087 -0.392,-0.217 -0.522,-0.392 -0.131,-0.174 -0.196,-0.435 -0.196,-0.783 0,-0.108 0.016,-0.201 0.049,-0.277 0.033,-0.076 0.125,-0.131 0.277,-0.163 0.152,-0.032 0.38,-0.038 0.686,-0.017 0.304,0.044 0.718,0.109 1.24,0.196 0.305,0 0.745,-0.104 1.322,-0.311 0.576,-0.206 1.164,-0.473 1.762,-0.799 0.598,-0.327 1.115,-0.702 1.55,-1.126 0.435,-0.425 0.653,-0.844 0.653,-1.257 0,-0.435 -0.071,-0.865 -0.212,-1.289 -0.142,-0.424 -0.354,-0.8 -0.637,-1.126 -0.283,-0.326 -0.615,-0.588 -0.995,-0.783 -0.381,-0.196 -0.811,-0.271 -1.289,-0.229 -0.762,0.065 -1.453,0.272 -2.073,0.62 -0.62,0.349 -1.147,0.8 -1.583,1.354 -0.436,0.555 -0.772,1.17 -1.012,1.844 -0.24,0.675 -0.359,1.382 -0.359,2.121 0,0.566 0.011,1.132 0.032,1.697 0.021,0.566 0.103,1.121 0.245,1.664 0.141,0.545 0.37,1.066 0.685,1.566 0.315,0.501 0.772,0.941 1.371,1.322 0.598,0.381 1.354,0.696 2.268,0.946 0.914,0.25 2.044,0.408 3.394,0.474 l 5.842,-0.392 c -0.349,0.479 -0.789,0.87 -1.322,1.175 -0.534,0.305 -1.099,0.55 -1.697,0.734 -0.599,0.185 -1.191,0.321 -1.778,0.407 -0.587,0.088 -1.143,0.131 -1.665,0.131 -1.262,0 -2.448,-0.206 -3.557,-0.62 -1.11,-0.413 -2.089,-0.995 -2.938,-1.746 -0.849,-0.75 -1.518,-1.664 -2.007,-2.741 -0.488,-1.074 -0.733,-2.287 -0.733,-3.635 z"
   fill="#231f20" />
			<path
   id="path236"
   d="m 574.332,483.944 c 0,-0.196 0.07,-0.321 0.212,-0.376 0.141,-0.054 0.299,-0.081 0.473,-0.081 0.13,0 0.223,0.032 0.277,0.098 0.054,0.065 0.092,0.142 0.114,0.229 0.021,0.087 0.054,0.169 0.098,0.245 0.044,0.076 0.12,0.114 0.229,0.114 0.305,0 0.674,-0.12 1.11,-0.359 0.435,-0.239 0.908,-0.5 1.419,-0.783 0.511,-0.282 1.055,-0.544 1.632,-0.783 0.576,-0.239 1.147,-0.359 1.713,-0.359 0.739,0 1.419,0.191 2.04,0.571 0.62,0.381 1.175,0.887 1.665,1.518 0.49,0.632 0.908,1.338 1.256,2.121 0.348,0.783 0.642,1.583 0.881,2.399 0.239,0.815 0.413,1.61 0.522,2.382 0.109,0.772 0.163,1.441 0.163,2.007 0,0.196 -0.016,0.49 -0.049,0.882 -0.033,0.392 -0.087,0.783 -0.163,1.175 -0.077,0.392 -0.201,0.734 -0.375,1.027 -0.174,0.294 -0.392,0.441 -0.652,0.441 -0.044,0 -0.12,-0.006 -0.229,-0.017 -0.109,-0.011 -0.218,-0.032 -0.327,-0.065 -0.109,-0.032 -0.201,-0.07 -0.277,-0.114 -0.076,-0.043 -0.114,-0.108 -0.114,-0.195 0.196,-1.676 0.196,-3.248 0,-4.716 -0.196,-1.469 -0.511,-2.758 -0.946,-3.867 -0.436,-1.11 -0.968,-1.991 -1.599,-2.644 -0.631,-0.653 -1.305,-0.979 -2.023,-0.979 -0.675,0 -1.305,0.109 -1.893,0.326 -0.587,0.218 -1.099,0.533 -1.534,0.946 -0.436,0.414 -0.778,0.914 -1.028,1.502 -0.25,0.587 -0.375,1.229 -0.375,1.925 0,0.697 0.065,1.388 0.196,2.072 0.131,0.686 0.277,1.371 0.441,2.057 0.163,0.686 0.31,1.376 0.44,2.072 0.13,0.696 0.196,1.393 0.196,2.089 -0.609,0 -1.121,-0.25 -1.534,-0.751 -0.414,-0.5 -0.746,-1.143 -0.996,-1.926 -0.25,-0.783 -0.446,-1.664 -0.587,-2.644 -0.142,-0.979 -0.24,-1.941 -0.294,-2.888 -0.054,-0.947 -0.082,-1.839 -0.082,-2.676 0,-0.838 0,-1.496 0,-1.975 z"
   fill="#231f20" />
			<path
   id="path238"
   d="m 589.377,489.264 c 0,-0.805 0.103,-1.653 0.31,-2.546 0.207,-0.892 0.533,-1.718 0.979,-2.48 0.446,-0.761 1.012,-1.387 1.697,-1.876 0.685,-0.489 1.528,-0.734 2.529,-0.734 0.522,0 1.044,0.076 1.567,0.229 0.522,0.152 1.061,0.37 1.615,0.652 0.555,0.283 1.131,0.615 1.729,0.996 0.598,0.381 1.235,0.799 1.909,1.256 0.087,-0.87 0.054,-1.768 -0.098,-2.692 -0.152,-0.925 -0.348,-1.833 -0.587,-2.725 -0.24,-0.893 -0.484,-1.735 -0.734,-2.529 -0.25,-0.794 -0.43,-1.507 -0.539,-2.138 -0.109,-0.631 -0.12,-1.153 -0.033,-1.566 0.087,-0.413 0.348,-0.675 0.783,-0.783 0.588,0.436 1.093,1.05 1.518,1.844 0.425,0.794 0.789,1.713 1.093,2.758 0.305,1.044 0.555,2.159 0.751,3.345 0.196,1.187 0.359,2.388 0.489,3.606 0.131,1.219 0.234,2.404 0.31,3.558 0.076,1.154 0.158,2.214 0.245,3.182 0.087,0.968 0.168,1.795 0.245,2.48 0.076,0.685 0.19,1.17 0.343,1.452 0,0.348 -0.125,0.565 -0.375,0.652 -0.25,0.087 -0.506,0.131 -0.767,0.131 -0.218,0 -0.403,-0.082 -0.555,-0.245 -0.152,-0.163 -0.272,-0.354 -0.359,-0.571 -0.087,-0.217 -0.169,-0.462 -0.245,-0.734 -0.077,-0.271 -0.158,-0.521 -0.245,-0.75 -0.087,-0.229 -0.185,-0.419 -0.293,-0.571 -0.109,-0.152 -0.25,-0.229 -0.424,-0.229 -0.044,0 -0.104,0.006 -0.18,0.017 -0.076,0.011 -0.114,0.027 -0.114,0.049 -0.414,0.566 -0.897,1.115 -1.452,1.648 -0.555,0.533 -1.164,1.001 -1.828,1.403 -0.664,0.402 -1.36,0.723 -2.088,0.962 -0.729,0.24 -1.464,0.359 -2.203,0.359 -0.827,0 -1.55,-0.271 -2.17,-0.815 -0.62,-0.544 -1.142,-1.196 -1.566,-1.959 -0.424,-0.761 -0.74,-1.566 -0.946,-2.415 -0.208,-0.85 -0.311,-1.59 -0.311,-2.221 z m 2.024,0.588 c 0.217,0.783 0.413,1.468 0.587,2.056 0.174,0.587 0.386,1.066 0.636,1.436 0.25,0.37 0.549,0.647 0.897,0.832 0.348,0.186 0.805,0.278 1.371,0.278 0.696,0 1.436,-0.201 2.219,-0.604 0.783,-0.402 1.512,-0.919 2.187,-1.55 0.675,-0.631 1.229,-1.322 1.665,-2.072 0.435,-0.751 0.653,-1.474 0.653,-2.171 0,-0.064 0,-0.195 0,-0.392 0,-0.195 0,-0.326 0,-0.392 -1.153,-1.131 -2.214,-1.941 -3.182,-2.431 -0.968,-0.49 -1.833,-0.739 -2.594,-0.751 -0.762,-0.011 -1.425,0.158 -1.991,0.506 -0.566,0.349 -1.034,0.806 -1.403,1.371 -0.371,0.565 -0.642,1.196 -0.816,1.893 -0.175,0.696 -0.251,1.36 -0.229,1.991 z"
   fill="#231f20" />
			<path
   id="path240"
   d="m 619.435,489.264 c 0,-0.805 0.103,-1.653 0.31,-2.546 0.207,-0.892 0.533,-1.718 0.979,-2.48 0.446,-0.761 1.012,-1.387 1.697,-1.876 0.685,-0.489 1.528,-0.734 2.529,-0.734 0.522,0 1.044,0.076 1.567,0.229 0.522,0.152 1.061,0.37 1.615,0.652 0.555,0.283 1.131,0.615 1.729,0.996 0.598,0.381 1.235,0.799 1.909,1.256 0.087,-0.87 0.054,-1.768 -0.098,-2.692 -0.152,-0.925 -0.348,-1.833 -0.587,-2.725 -0.24,-0.893 -0.484,-1.735 -0.734,-2.529 -0.25,-0.794 -0.43,-1.507 -0.539,-2.138 -0.109,-0.631 -0.12,-1.153 -0.033,-1.566 0.087,-0.413 0.348,-0.675 0.783,-0.783 0.588,0.436 1.093,1.05 1.518,1.844 0.425,0.794 0.789,1.713 1.093,2.758 0.305,1.044 0.555,2.159 0.751,3.345 0.196,1.187 0.359,2.388 0.489,3.606 0.131,1.219 0.234,2.404 0.31,3.558 0.076,1.154 0.158,2.214 0.245,3.182 0.087,0.968 0.168,1.795 0.245,2.48 0.076,0.685 0.19,1.17 0.343,1.452 0,0.348 -0.125,0.565 -0.375,0.652 -0.25,0.087 -0.506,0.131 -0.767,0.131 -0.218,0 -0.403,-0.082 -0.555,-0.245 -0.152,-0.163 -0.272,-0.354 -0.359,-0.571 -0.087,-0.217 -0.169,-0.462 -0.245,-0.734 -0.077,-0.271 -0.158,-0.521 -0.245,-0.75 -0.087,-0.229 -0.185,-0.419 -0.293,-0.571 -0.109,-0.152 -0.25,-0.229 -0.424,-0.229 -0.044,0 -0.104,0.006 -0.18,0.017 -0.076,0.011 -0.114,0.027 -0.114,0.049 -0.414,0.566 -0.897,1.115 -1.452,1.648 -0.555,0.533 -1.164,1.001 -1.828,1.403 -0.664,0.402 -1.36,0.723 -2.088,0.962 -0.729,0.24 -1.464,0.359 -2.203,0.359 -0.827,0 -1.55,-0.271 -2.17,-0.815 -0.62,-0.544 -1.142,-1.196 -1.566,-1.959 -0.424,-0.761 -0.74,-1.566 -0.946,-2.415 -0.208,-0.85 -0.311,-1.59 -0.311,-2.221 z m 2.023,0.588 c 0.217,0.783 0.413,1.468 0.587,2.056 0.174,0.587 0.386,1.066 0.636,1.436 0.25,0.37 0.549,0.647 0.897,0.832 0.348,0.186 0.805,0.278 1.371,0.278 0.696,0 1.436,-0.201 2.219,-0.604 0.783,-0.402 1.512,-0.919 2.187,-1.55 0.675,-0.631 1.229,-1.322 1.665,-2.072 0.435,-0.751 0.653,-1.474 0.653,-2.171 0,-0.064 0,-0.195 0,-0.392 0,-0.195 0,-0.326 0,-0.392 -1.153,-1.131 -2.214,-1.941 -3.182,-2.431 -0.968,-0.49 -1.833,-0.739 -2.594,-0.751 -0.762,-0.011 -1.425,0.158 -1.991,0.506 -0.566,0.349 -1.034,0.806 -1.403,1.371 -0.371,0.565 -0.642,1.196 -0.816,1.893 -0.175,0.696 -0.251,1.36 -0.229,1.991 z"
   fill="#231f20" />
			<path
   id="path242"
   d="m 636.959,487.926 c 0,-1.131 0.168,-2.214 0.506,-3.247 0.337,-1.033 0.827,-1.942 1.469,-2.726 0.641,-0.783 1.424,-1.408 2.35,-1.876 0.924,-0.468 1.996,-0.702 3.214,-0.702 0.718,0.087 1.343,0.283 1.876,0.588 0.533,0.305 0.968,0.68 1.306,1.126 0.337,0.445 0.582,0.962 0.734,1.55 0.13,0.566 0.196,1.175 0.196,1.827 0,0.783 -0.229,1.491 -0.686,2.122 -0.457,0.631 -1.034,1.158 -1.729,1.582 -0.697,0.425 -1.447,0.751 -2.252,0.979 -0.805,0.229 -1.556,0.343 -2.252,0.343 -0.261,0 -0.528,0 -0.799,0 -0.272,0 -0.517,-0.043 -0.734,-0.131 -0.218,-0.087 -0.392,-0.217 -0.522,-0.392 -0.131,-0.174 -0.196,-0.435 -0.196,-0.783 0,-0.108 0.016,-0.201 0.049,-0.277 0.033,-0.076 0.125,-0.131 0.277,-0.163 0.152,-0.032 0.38,-0.038 0.686,-0.017 0.304,0.044 0.718,0.109 1.24,0.196 0.305,0 0.745,-0.104 1.322,-0.311 0.576,-0.206 1.164,-0.473 1.762,-0.799 0.598,-0.327 1.115,-0.702 1.55,-1.126 0.435,-0.425 0.653,-0.844 0.653,-1.257 0,-0.435 -0.071,-0.865 -0.212,-1.289 -0.142,-0.424 -0.354,-0.8 -0.637,-1.126 -0.283,-0.326 -0.615,-0.588 -0.995,-0.783 -0.381,-0.196 -0.811,-0.271 -1.289,-0.229 -0.762,0.065 -1.453,0.272 -2.073,0.62 -0.62,0.349 -1.147,0.8 -1.583,1.354 -0.436,0.555 -0.772,1.17 -1.012,1.844 -0.24,0.675 -0.359,1.382 -0.359,2.121 0,0.566 0.011,1.132 0.032,1.697 0.021,0.566 0.103,1.121 0.245,1.664 0.141,0.545 0.37,1.066 0.685,1.566 0.315,0.501 0.772,0.941 1.371,1.322 0.598,0.381 1.354,0.696 2.268,0.946 0.914,0.25 2.044,0.408 3.394,0.474 l 5.842,-0.392 c -0.349,0.479 -0.789,0.87 -1.322,1.175 -0.534,0.305 -1.099,0.55 -1.697,0.734 -0.599,0.185 -1.191,0.321 -1.778,0.407 -0.587,0.088 -1.143,0.131 -1.665,0.131 -1.262,0 -2.448,-0.206 -3.557,-0.62 -1.11,-0.413 -2.089,-0.995 -2.938,-1.746 -0.849,-0.75 -1.518,-1.664 -2.007,-2.741 -0.488,-1.074 -0.733,-2.287 -0.733,-3.635 z"
   fill="#231f20" />
			<path
   id="path244"
   d="m 653.897,485.054 c 0.021,-0.065 0.054,-0.146 0.098,-0.245 0.043,-0.098 0.103,-0.2 0.179,-0.31 0.076,-0.108 0.152,-0.201 0.229,-0.277 0.077,-0.076 0.168,-0.114 0.277,-0.114 0.021,0 0.033,0.006 0.033,0.017 0,0.011 0.021,0.016 0.065,0.016 h 0.065 c 0.5,0.24 0.914,0.583 1.24,1.028 0.327,0.446 0.615,0.952 0.865,1.518 0.25,0.565 0.484,1.17 0.702,1.812 0.217,0.642 0.462,1.272 0.734,1.893 0.271,0.62 0.592,1.224 0.962,1.812 0.37,0.587 0.837,1.109 1.403,1.566 0.196,-0.653 0.392,-1.289 0.587,-1.909 0.195,-0.62 0.419,-1.245 0.669,-1.877 0.25,-0.631 0.544,-1.283 0.881,-1.958 0.337,-0.674 0.723,-1.403 1.159,-2.187 0.522,-0.217 0.941,-0.348 1.256,-0.392 0.315,-0.043 0.539,-0.005 0.669,0.114 0.131,0.12 0.152,0.299 0.065,0.538 -0.087,0.24 -0.272,0.522 -0.555,0.849 -0.175,0.152 -0.375,0.501 -0.604,1.045 -0.229,0.544 -0.473,1.186 -0.734,1.925 -0.261,0.74 -0.539,1.513 -0.832,2.317 -0.294,0.806 -0.593,1.539 -0.897,2.203 -0.305,0.664 -0.604,1.213 -0.897,1.647 -0.294,0.436 -0.583,0.642 -0.865,0.62 -0.305,0 -0.648,-0.233 -1.028,-0.701 -0.381,-0.468 -0.789,-1.071 -1.224,-1.812 -0.436,-0.739 -0.871,-1.55 -1.306,-2.432 -0.435,-0.881 -0.854,-1.756 -1.256,-2.627 -0.403,-0.87 -0.772,-1.669 -1.109,-2.398 -0.336,-0.729 -0.614,-1.29 -0.831,-1.681 z"
   fill="#231f20" />
			<path
   id="path246"
   d="m 667.212,487.926 c 0,-1.131 0.168,-2.214 0.506,-3.247 0.337,-1.033 0.827,-1.942 1.469,-2.726 0.641,-0.783 1.424,-1.408 2.35,-1.876 0.924,-0.468 1.996,-0.702 3.214,-0.702 0.718,0.087 1.343,0.283 1.876,0.588 0.533,0.305 0.968,0.68 1.306,1.126 0.337,0.445 0.582,0.962 0.734,1.55 0.13,0.566 0.196,1.175 0.196,1.827 0,0.783 -0.229,1.491 -0.686,2.122 -0.457,0.631 -1.034,1.158 -1.729,1.582 -0.697,0.425 -1.447,0.751 -2.252,0.979 -0.805,0.229 -1.556,0.343 -2.252,0.343 -0.261,0 -0.528,0 -0.799,0 -0.272,0 -0.517,-0.043 -0.734,-0.131 -0.218,-0.087 -0.392,-0.217 -0.522,-0.392 -0.131,-0.174 -0.196,-0.435 -0.196,-0.783 0,-0.108 0.016,-0.201 0.049,-0.277 0.033,-0.076 0.125,-0.131 0.277,-0.163 0.152,-0.032 0.38,-0.038 0.686,-0.017 0.304,0.044 0.718,0.109 1.24,0.196 0.305,0 0.745,-0.104 1.322,-0.311 0.576,-0.206 1.164,-0.473 1.762,-0.799 0.598,-0.327 1.115,-0.702 1.55,-1.126 0.435,-0.425 0.653,-0.844 0.653,-1.257 0,-0.435 -0.071,-0.865 -0.212,-1.289 -0.142,-0.424 -0.354,-0.8 -0.637,-1.126 -0.283,-0.326 -0.615,-0.588 -0.995,-0.783 -0.381,-0.196 -0.811,-0.271 -1.289,-0.229 -0.762,0.065 -1.453,0.272 -2.073,0.62 -0.62,0.349 -1.147,0.8 -1.583,1.354 -0.436,0.555 -0.772,1.17 -1.012,1.844 -0.24,0.675 -0.359,1.382 -0.359,2.121 0,0.566 0.011,1.132 0.032,1.697 0.021,0.566 0.103,1.121 0.245,1.664 0.141,0.545 0.37,1.066 0.685,1.566 0.315,0.501 0.772,0.941 1.371,1.322 0.598,0.381 1.354,0.696 2.268,0.946 0.914,0.25 2.044,0.408 3.394,0.474 l 5.842,-0.392 c -0.349,0.479 -0.789,0.87 -1.322,1.175 -0.534,0.305 -1.099,0.55 -1.697,0.734 -0.599,0.185 -1.191,0.321 -1.778,0.407 -0.587,0.088 -1.143,0.131 -1.665,0.131 -1.262,0 -2.448,-0.206 -3.557,-0.62 -1.11,-0.413 -2.089,-0.995 -2.938,-1.746 -0.849,-0.75 -1.518,-1.664 -2.007,-2.741 -0.488,-1.074 -0.733,-2.287 -0.733,-3.635 z"
   fill="#231f20" />
			<path
   id="path248"
   d="m 685.162,496.411 c -0.218,-1.545 -0.354,-3.084 -0.408,-4.618 -0.055,-1.534 -0.082,-3.073 -0.082,-4.618 0,-1.544 0.021,-3.078 0.065,-4.602 0.043,-1.522 0.054,-3.046 0.033,-4.568 0,-0.175 0.065,-0.294 0.196,-0.359 0.131,-0.065 0.283,-0.098 0.457,-0.098 0.196,0 0.37,0.07 0.522,0.212 0.152,0.142 0.283,0.315 0.392,0.522 0.109,0.207 0.19,0.413 0.245,0.62 0.054,0.207 0.082,0.375 0.082,0.506 0.13,3.111 0.217,5.706 0.261,7.783 0.043,2.078 0.043,3.753 0,5.025 -0.044,1.273 -0.114,2.215 -0.212,2.823 -0.098,0.609 -0.223,1.023 -0.375,1.24 -0.152,0.218 -0.332,0.305 -0.538,0.261 -0.208,-0.042 -0.421,-0.085 -0.638,-0.129 z"
   fill="#231f20" />
			<path
   id="path250"
   d="m 688.458,490.015 c 0,-1.196 0.261,-2.241 0.783,-3.134 0.522,-0.892 1.208,-1.642 2.056,-2.251 0.848,-0.609 1.8,-1.062 2.855,-1.354 1.055,-0.294 2.116,-0.441 3.182,-0.441 0.565,0 1.093,0.104 1.583,0.311 0.49,0.207 0.957,0.489 1.403,0.849 0.446,0.358 0.843,0.772 1.191,1.24 0.348,0.468 0.647,0.952 0.897,1.452 0.25,0.501 0.44,1.007 0.571,1.518 0.13,0.512 0.196,1.007 0.196,1.484 0,1.11 -0.218,2.101 -0.653,2.971 -0.436,0.87 -1.023,1.604 -1.762,2.202 -0.74,0.599 -1.578,1.056 -2.513,1.371 -0.936,0.315 -1.893,0.473 -2.872,0.473 -1.001,0 -1.92,-0.157 -2.757,-0.473 -0.838,-0.315 -1.567,-0.756 -2.187,-1.322 -0.62,-0.565 -1.104,-1.267 -1.453,-2.104 -0.349,-0.837 -0.52,-1.77 -0.52,-2.792 z m 1.599,-0.262 c 0,0.675 0.125,1.322 0.375,1.942 0.25,0.62 0.598,1.158 1.044,1.615 0.446,0.457 0.974,0.821 1.583,1.093 0.609,0.272 1.262,0.408 1.958,0.408 0.37,0.044 0.821,-0.017 1.354,-0.18 0.533,-0.163 1.066,-0.402 1.599,-0.718 0.533,-0.315 1.044,-0.696 1.534,-1.143 0.49,-0.445 0.897,-0.935 1.224,-1.468 0.326,-0.533 0.527,-1.088 0.604,-1.665 0.076,-0.576 -0.022,-1.152 -0.293,-1.729 -0.272,-0.576 -0.767,-1.131 -1.485,-1.664 -0.718,-0.533 -1.708,-1.028 -2.97,-1.485 -0.718,0 -1.463,0.104 -2.235,0.311 -0.772,0.207 -1.474,0.517 -2.105,0.93 -0.631,0.414 -1.153,0.936 -1.566,1.566 -0.414,0.632 -0.621,1.361 -0.621,2.187 z"
   fill="#231f20" />
			<path
   id="path252"
   d="m 704.743,492.396 c 0,-1.37 0.239,-2.523 0.718,-3.459 0.479,-0.936 1.115,-1.687 1.909,-2.252 0.794,-0.565 1.719,-0.979 2.774,-1.24 1.055,-0.261 2.159,-0.392 3.313,-0.392 0.936,0 1.844,0.152 2.725,0.457 0.881,0.305 1.67,0.729 2.366,1.272 0.696,0.544 1.251,1.208 1.665,1.991 0.413,0.783 0.62,1.676 0.62,2.676 0,0.87 -0.163,1.583 -0.49,2.138 -0.326,0.555 -0.772,0.99 -1.338,1.306 -0.566,0.315 -1.191,0.538 -1.876,0.669 -0.686,0.13 -1.387,0.195 -2.105,0.195 -0.697,0 -1.409,-0.032 -2.138,-0.098 -0.729,-0.065 -1.398,-0.217 -2.007,-0.457 -0.609,-0.239 -1.109,-0.598 -1.501,-1.077 -0.392,-0.478 -0.587,-1.152 -0.587,-2.023 0.457,0 0.897,0.093 1.322,0.277 0.424,0.186 0.854,0.382 1.289,0.588 0.435,0.207 0.87,0.397 1.305,0.571 0.413,0.195 0.859,0.294 1.338,0.294 0.348,0 0.81,-0.033 1.387,-0.099 0.576,-0.065 1.121,-0.189 1.632,-0.375 0.511,-0.185 0.952,-0.44 1.322,-0.767 0.37,-0.327 0.555,-0.739 0.555,-1.24 0,-0.739 -0.163,-1.382 -0.489,-1.926 -0.327,-0.544 -0.751,-0.995 -1.273,-1.354 -0.522,-0.358 -1.11,-0.636 -1.762,-0.832 -0.653,-0.196 -1.306,-0.294 -1.958,-0.294 -0.087,0 -0.299,0.022 -0.636,0.065 -0.337,0.044 -0.724,0.114 -1.159,0.212 -0.435,0.099 -0.892,0.218 -1.371,0.359 -0.479,0.141 -0.919,0.315 -1.322,0.522 -0.403,0.207 -0.734,0.44 -0.995,0.701 -0.261,0.261 -0.392,0.555 -0.392,0.881 v 0.392 c 0.021,0.24 0.049,0.561 0.082,0.963 0.033,0.403 0.06,0.806 0.082,1.208 0.021,0.402 0.054,0.756 0.098,1.061 0.044,0.305 0.065,0.479 0.065,0.522 0.043,0.348 0.12,0.887 0.229,1.615 0.108,0.729 0.229,1.544 0.359,2.447 0.131,0.902 0.277,1.854 0.441,2.855 0.163,1.001 0.32,1.953 0.473,2.855 0.152,0.903 0.288,1.714 0.408,2.432 0.119,0.718 0.212,1.24 0.277,1.566 0,0.044 0.005,0.082 0.017,0.114 0.011,0.033 0.016,0.07 0.016,0.114 l -0.033,0.065 v 0.065 c -0.044,0.065 -0.142,0.174 -0.293,0.326 -0.174,0.131 -0.283,0.217 -0.327,0.261 h -0.196 c -0.218,0 -0.446,-0.201 -0.685,-0.604 -0.24,-0.402 -0.484,-0.946 -0.734,-1.632 -0.25,-0.686 -0.501,-1.474 -0.75,-2.366 -0.25,-0.892 -0.495,-1.816 -0.734,-2.773 -0.24,-0.958 -0.457,-1.904 -0.653,-2.84 -0.196,-0.936 -0.37,-1.806 -0.522,-2.61 -0.153,-0.805 -0.267,-1.501 -0.343,-2.089 -0.08,-0.582 -0.118,-0.995 -0.118,-1.236 z"
   fill="#231f20" />
			<path
   id="path254"
   d="m 722.138,487.926 c 0,-1.131 0.168,-2.214 0.506,-3.247 0.337,-1.033 0.827,-1.942 1.469,-2.726 0.641,-0.783 1.424,-1.408 2.35,-1.876 0.924,-0.468 1.996,-0.702 3.214,-0.702 0.718,0.087 1.343,0.283 1.876,0.588 0.533,0.305 0.968,0.68 1.306,1.126 0.337,0.445 0.582,0.962 0.734,1.55 0.13,0.566 0.196,1.175 0.196,1.827 0,0.783 -0.229,1.491 -0.686,2.122 -0.457,0.631 -1.034,1.158 -1.729,1.582 -0.697,0.425 -1.447,0.751 -2.252,0.979 -0.805,0.229 -1.556,0.343 -2.252,0.343 -0.261,0 -0.528,0 -0.799,0 -0.272,0 -0.517,-0.043 -0.734,-0.131 -0.218,-0.087 -0.392,-0.217 -0.522,-0.392 -0.131,-0.174 -0.196,-0.435 -0.196,-0.783 0,-0.108 0.016,-0.201 0.049,-0.277 0.033,-0.076 0.125,-0.131 0.277,-0.163 0.152,-0.032 0.38,-0.038 0.686,-0.017 0.304,0.044 0.718,0.109 1.24,0.196 0.305,0 0.745,-0.104 1.322,-0.311 0.576,-0.206 1.164,-0.473 1.762,-0.799 0.598,-0.327 1.115,-0.702 1.55,-1.126 0.435,-0.425 0.653,-0.844 0.653,-1.257 0,-0.435 -0.071,-0.865 -0.212,-1.289 -0.142,-0.424 -0.354,-0.8 -0.637,-1.126 -0.283,-0.326 -0.615,-0.588 -0.995,-0.783 -0.381,-0.196 -0.811,-0.271 -1.289,-0.229 -0.762,0.065 -1.453,0.272 -2.073,0.62 -0.62,0.349 -1.147,0.8 -1.583,1.354 -0.436,0.555 -0.772,1.17 -1.012,1.844 -0.24,0.675 -0.359,1.382 -0.359,2.121 0,0.566 0.011,1.132 0.032,1.697 0.021,0.566 0.103,1.121 0.245,1.664 0.141,0.545 0.37,1.066 0.685,1.566 0.315,0.501 0.772,0.941 1.371,1.322 0.598,0.381 1.354,0.696 2.268,0.946 0.914,0.25 2.044,0.408 3.394,0.474 l 5.842,-0.392 c -0.349,0.479 -0.789,0.87 -1.322,1.175 -0.534,0.305 -1.099,0.55 -1.697,0.734 -0.599,0.185 -1.191,0.321 -1.778,0.407 -0.587,0.088 -1.143,0.131 -1.665,0.131 -1.262,0 -2.448,-0.206 -3.557,-0.62 -1.11,-0.413 -2.089,-0.995 -2.938,-1.746 -0.849,-0.75 -1.518,-1.664 -2.007,-2.741 -0.488,-1.074 -0.733,-2.287 -0.733,-3.635 z"
   fill="#231f20" />
			<path
   id="path256"
   d="m 742.339,496.672 c -0.479,-0.87 -0.892,-1.816 -1.24,-2.839 -0.348,-1.023 -0.642,-2.057 -0.881,-3.101 -0.24,-1.045 -0.43,-2.062 -0.571,-3.052 -0.142,-0.989 -0.234,-1.887 -0.277,-2.692 0,-0.151 -0.011,-0.32 -0.033,-0.506 -0.022,-0.185 -0.027,-0.375 -0.016,-0.571 0.011,-0.195 0.043,-0.38 0.098,-0.555 0.054,-0.174 0.147,-0.326 0.277,-0.457 h 0.065 c 0.021,0 0.033,-0.005 0.033,-0.016 0,-0.011 0.011,-0.017 0.033,-0.017 0.021,0 0.032,0.006 0.032,0.017 0,0.011 0.021,0.016 0.065,0.016 h 0.065 c 0.043,0.022 0.152,0.065 0.326,0.131 0.174,0.065 0.283,0.12 0.327,0.163 0.392,-0.131 0.794,-0.288 1.208,-0.473 0.413,-0.186 0.832,-0.359 1.256,-0.522 0.424,-0.163 0.854,-0.299 1.289,-0.408 0.435,-0.108 0.859,-0.163 1.273,-0.163 0.304,0 0.571,0.011 0.799,0.032 0.229,0.022 0.457,0.061 0.686,0.114 0.228,0.055 0.473,0.12 0.734,0.196 0.261,0.076 0.566,0.169 0.914,0.277 0.174,0.131 0.332,0.256 0.473,0.375 0.141,0.12 0.272,0.256 0.392,0.408 0.119,0.152 0.212,0.338 0.277,0.555 0.065,0.218 0.098,0.501 0.098,0.849 -0.349,0.044 -0.756,0.017 -1.224,-0.082 -0.468,-0.098 -0.958,-0.223 -1.468,-0.375 -0.512,-0.151 -1.04,-0.282 -1.583,-0.392 -0.544,-0.108 -1.066,-0.151 -1.566,-0.131 -0.501,0.022 -0.968,0.164 -1.403,0.425 -0.457,0.218 -0.86,0.609 -1.208,1.175 -0.152,0.631 -0.218,1.251 -0.196,1.86 0.021,0.609 0.098,1.202 0.229,1.778 0.13,0.577 0.299,1.153 0.506,1.729 0.207,0.577 0.402,1.153 0.587,1.73 0.185,0.576 0.353,1.147 0.506,1.713 0.152,0.566 0.25,1.143 0.293,1.729 0,0.218 -0.12,0.452 -0.359,0.702 -0.239,0.253 -0.511,0.378 -0.816,0.378 z"
   fill="#231f20" />
		</g>
	</g>
	<g
   id="g266">
		<g
   id="g264">
			<rect
   id="rect262"
   height="316.79999"
   width="17.370001"
   fill="#ef4c23"
   y="216.05299"
   x="292.793" />
		</g>
	</g>
	<g
   id="g270">
		<rect
   id="rect268"
   height="201.92"
   width="17.370001"
   fill="#ef4c23"
   y="250.192"
   x="327.91299" />
	</g>
</g></g></g>


</svg>
