<?xml version="1.0" encoding="utf-8"?>
<!-- Generator: Adobe Illustrator 16.0.0, SVG Export Plug-In . SVG Version: 6.00 Build 0)  -->
<!DOCTYPE svg PUBLIC "-//W3C//DTD SVG 1.1//EN" "http://www.w3.org/Graphics/SVG/1.1/DTD/svg11.dtd">
<svg version="1.1" id="Warstwa_1" xmlns="http://www.w3.org/2000/svg" xmlns:xlink="http://www.w3.org/1999/xlink" x="0px" y="0px"
	 width="498.331px" height="498.331px" viewBox="0.045 -107.782 498.331 498.331"
	 enable-background="new 0.045 -107.782 498.331 498.331" xml:space="preserve">
<g>
	<defs>
		<rect id="SVGID_1_" y="-30.54" width="498.422" height="421.089"/>
	</defs>
	<clipPath id="SVGID_2_">
		<use xlink:href="#SVGID_1_"  overflow="visible"/>
	</clipPath>
	<g clip-path="url(#SVGID_2_)">
		<g>
			<g>
				<defs>
					<path id="SVGID_3_" d="M498.422,390.549V0.371c-29.875,6.521-58.285,24.237-72.22,51.421
						c-8.78,17.125-12.36,38.266-27.694,49.895c-12.858,9.745-30.854,11.662-46.36,7.18c-15.507-4.483-18.562-5.659-33.398-12.012
						c-23.147-9.932-52.021-10.122-76.48-4.098c-24.471,6.009-42.145,24.146-48.76,48.463c-7.146,26.311,3.158,58.411-14.697,79.039
						c-19.957,23.071-73.508,0.367-95.646,21.368c-14.152,13.419-16.27,35.354-13.357,54.643
						c2.912,19.289,0.443,46.119-8.604,57.493C51.045,366.531,7.348,380.398,0,390.549H498.422z"/>
				</defs>
				<clipPath id="SVGID_4_">
					<use xlink:href="#SVGID_3_"  overflow="visible"/>
				</clipPath>
				<rect x="-3.896" y="-62.134" clip-path="url(#SVGID_4_)" fill="#010101" width="506.877" height="455.418"/>
			</g>
			<g>
				<defs>
					<path id="SVGID_5_" d="M498.422,390.549V0.371c-29.875,6.521-58.285,24.237-72.22,51.421
						c-8.78,17.125-12.36,38.266-27.694,49.895c-12.858,9.745-30.854,11.662-46.36,7.18c-15.507-4.483-18.562-5.659-33.398-12.012
						c-23.147-9.932-52.021-10.122-76.48-4.098c-24.471,6.009-42.145,24.146-48.76,48.463c-7.146,26.311,3.158,58.411-14.697,79.039
						c-19.957,23.071-73.508,0.367-95.646,21.368c-14.152,13.419-16.27,35.354-13.357,54.643
						c2.912,19.289,0.443,46.119-8.604,57.493C51.045,366.531,7.348,380.398,0,390.549H498.422z"/>
				</defs>
				<clipPath id="SVGID_6_">
					<use xlink:href="#SVGID_5_"  overflow="visible"/>
				</clipPath>
			</g>
			<g>
				<defs>
					<path id="SVGID_7_" d="M498.422,390.549V0.371c-29.875,6.521-58.285,24.237-72.22,51.421
						c-8.78,17.125-12.36,38.266-27.694,49.895c-12.858,9.745-30.854,11.662-46.36,7.18c-15.507-4.483-18.562-5.659-33.398-12.012
						c-23.147-9.932-52.021-10.122-76.48-4.098c-24.471,6.009-42.145,24.146-48.76,48.463c-7.146,26.311,3.158,58.411-14.697,79.039
						c-19.957,23.071-73.508,0.367-95.646,21.368c-14.152,13.419-16.27,35.354-13.357,54.643
						c2.912,19.289,0.443,46.119-8.604,57.493C51.045,366.531,7.348,380.398,0,390.549H498.422z"/>
				</defs>
				<clipPath id="SVGID_8_">
					<use xlink:href="#SVGID_7_"  overflow="visible"/>
				</clipPath>
				<g clip-path="url(#SVGID_8_)">
					<circle opacity="0.5" fill="#FFFFFF" cx="379.858" cy="136.548" r="1.267"/>
					<circle fill="#FFFFFF" cx="188.176" cy="275.843" r="1.268"/>
					<circle fill="#FFFFFF" cx="165.039" cy="351.727" r="1.268"/>
					<circle fill="#FFFFFF" cx="349.998" cy="97.309" r="1.267"/>
					<circle fill="#FFFFFF" cx="289.732" cy="113.235" r="1.267"/>
					<circle opacity="0.5" fill="#FFFFFF" cx="264.034" cy="195.791" r="1.267"/>
					<circle opacity="0.4" fill="#FFFFFF" cx="223.036" cy="215.7" r="1.267"/>
					<circle fill="#FFFFFF" cx="472.61" cy="19.325" r="1.266"/>
					<circle opacity="0.5" fill="#FFFFFF" cx="283.6" cy="343.725" r="1.267"/>
					<circle fill="#FFFFFF" cx="338.476" cy="272.793" r="1.267"/>
					<circle opacity="0.4" fill="#FFFFFF" cx="117.885" cy="357.902" r="1.268"/>
					<circle fill="#FFFFFF" cx="232.138" cy="260.969" r="1.267"/>
					<circle fill="#FFFFFF" cx="229.888" cy="131.529" r="1.267"/>
					<circle fill="#FFFFFF" cx="473.876" cy="229.559" r="1.267"/>
					<circle opacity="0.4" fill="#FFFFFF" cx="93.419" cy="275.017" r="1.267"/>
					<circle fill="#FFFFFF" cx="413.866" cy="249.13" r="1.267"/>
					<circle fill="#FFFFFF" cx="427.454" cy="322.641" r="1.267"/>
					<circle fill="#FFFFFF" cx="456.608" cy="294.255" r="1.267"/>
					<circle fill="#FFFFFF" cx="326.877" cy="148.706" r="1.267"/>
					<circle fill="#FFFFFF" cx="212.004" cy="325.86" r="1.267"/>
					<circle fill="#FFFFFF" cx="471.342" cy="132.746" r="1.267"/>
					<circle opacity="0.5" fill="#FFFFFF" cx="455.341" cy="217.13" r="1.267"/>
					<circle opacity="0.5" fill="#FFFFFF" cx="462.919" cy="75.982" r="1.267"/>
					<circle fill="#FFFFFF" cx="463.193" cy="356.377" r="1.267"/>
					<circle fill="#FFFFFF" cx="392.998" cy="301.26" r="1.267"/>
					<circle fill="#FFFFFF" cx="384.494" cy="353.58" r="1.267"/>
					<circle fill="#FFFFFF" cx="416.767" cy="375.873" r="1.267"/>
				</g>
			</g>
		</g>
	</g>
	<g clip-path="url(#SVGID_2_)">
		<circle fill="#F9FBFB" cx="394.62" cy="283.437" r="70.092"/>
		<g>
			<path fill="#DFDFDF" d="M369.531,316.504c6.093,0,11.03,4.939,11.03,11.032c0,6.095-4.938,11.036-11.03,11.036
				c-6.096,0-11.035-4.941-11.035-11.036C358.496,321.444,363.436,316.504,369.531,316.504z"/>
			<path fill="#BDBDBD" d="M370.472,337.625c-6.093,0-11.033-4.938-11.033-11.031c0-2.806,1.051-5.368,2.776-7.314
				c-2.279,2.022-3.719,4.971-3.719,8.257c0,6.096,4.939,11.036,11.035,11.036c3.284,0,6.233-1.44,8.255-3.723
				C375.841,336.575,373.281,337.625,370.472,337.625z"/>
			<path fill="#F4F4F4" d="M358.496,327.104c0,0.07,0.005,0.146,0.006,0.219c0.114-5.993,5.007-10.818,11.029-10.818
				c6.093,0,11.03,4.939,11.03,11.032c0,6.021-4.822,10.913-10.813,11.029c0.07,0.003,0.143,0.007,0.216,0.007
				c6.336,0,11.47-5.136,11.47-11.469c0-6.336-5.134-11.47-11.47-11.47C363.63,315.634,358.496,320.768,358.496,327.104z"/>
		</g>
		<g>
			<circle fill="#DFDFDF" cx="350.197" cy="254.258" r="5.516"/>
			<path fill="#BDBDBD" d="M350.671,259.301c-3.047,0-5.518-2.468-5.518-5.517c0-1.402,0.525-2.682,1.389-3.655
				c-1.143,1.01-1.861,2.483-1.861,4.126c0,3.048,2.469,5.519,5.517,5.519c1.644,0,3.118-0.719,4.131-1.858
				C353.355,258.778,352.072,259.301,350.671,259.301z"/>
			<path fill="#F4F4F4" d="M344.681,254.04c0,0.036,0.004,0.073,0.004,0.108c0.059-2.996,2.504-5.406,5.513-5.406
				c3.048,0,5.519,2.469,5.519,5.517c0,3.011-2.412,5.453-5.409,5.513c0.037,0.002,0.074,0.002,0.109,0.002
				c3.167,0,5.734-2.566,5.734-5.733s-2.567-5.734-5.734-5.734C347.248,248.306,344.681,250.873,344.681,254.04z"/>
		</g>
		<g>
			<path fill="#DFDFDF" d="M406.149,221.185c7.604,0,13.766,6.162,13.766,13.767c0,7.604-6.162,13.764-13.766,13.764
				c-7.604,0-13.77-6.16-13.77-13.764C392.38,227.347,398.545,221.185,406.149,221.185z"/>
			<path fill="#BDBDBD" d="M407.326,247.542c-7.604,0-13.764-6.165-13.764-13.769c0-3.504,1.306-6.695,3.462-9.125
				c-2.845,2.523-4.64,6.202-4.64,10.304c0,7.603,6.162,13.767,13.765,13.767c4.101,0,7.781-1.796,10.307-4.641
				C414.024,246.232,410.829,247.542,407.326,247.542z"/>
			<path fill="#F4F4F4" d="M392.38,234.409c0,0.091,0.008,0.179,0.011,0.27c0.145-7.477,6.247-13.494,13.759-13.494
				c7.604,0,13.766,6.162,13.766,13.767c0,7.513-6.017,13.613-13.492,13.759c0.091,0.002,0.182,0.005,0.27,0.005
				c7.902,0,14.31-6.403,14.31-14.306c0-7.903-6.407-14.311-14.31-14.311C398.792,220.099,392.38,226.506,392.38,234.409z"/>
		</g>
		<g>
			<circle fill="#DFDFDF" cx="438.311" cy="271.739" r="13.768"/>
			<path fill="#BDBDBD" d="M439.489,284.327c-7.603,0-13.77-6.163-13.77-13.767c0-3.502,1.311-6.696,3.466-9.126
				c-2.846,2.521-4.644,6.201-4.644,10.301c0,7.604,6.165,13.769,13.768,13.769c4.102,0,7.781-1.797,10.303-4.642
				C446.186,283.017,442.991,284.327,439.489,284.327z"/>
			<path fill="#F4F4F4" d="M424.545,271.196c0,0.09,0.006,0.181,0.006,0.272c0.147-7.479,6.249-13.496,13.76-13.496
				c7.604,0,13.77,6.163,13.77,13.768c0,7.509-6.02,13.614-13.497,13.76c0.092,0,0.182,0.008,0.271,0.008
				c7.902,0,14.313-6.406,14.313-14.312c0-7.902-6.41-14.31-14.313-14.31C430.95,256.885,424.545,263.293,424.545,271.196z"/>
		</g>
		<g>
			<path fill="#DFDFDF" d="M429.945,291.242c4.285,0,7.753,3.467,7.753,7.75c0,4.28-3.468,7.752-7.753,7.752
				c-4.279,0-7.751-3.472-7.751-7.752C422.194,294.709,425.666,291.242,429.945,291.242z"/>
			<path fill="#BDBDBD" d="M430.611,306.08c-4.28,0-7.754-3.469-7.754-7.751c0-1.972,0.739-3.772,1.95-5.139
				c-1.601,1.418-2.612,3.493-2.612,5.801c0,4.282,3.472,7.753,7.754,7.753c2.309,0,4.381-1.011,5.801-2.613
				C434.382,305.345,432.584,306.08,430.611,306.08z"/>
			<path fill="#F4F4F4" d="M422.194,298.688c0,0.049,0.004,0.1,0.004,0.15c0.083-4.208,3.515-7.598,7.747-7.598
				c4.285,0,7.753,3.469,7.753,7.751c0,4.231-3.386,7.667-7.599,7.749c0.049,0,0.103,0.004,0.152,0.004
				c4.45,0,8.058-3.607,8.058-8.058c0-4.451-3.607-8.06-8.058-8.06C425.802,290.628,422.194,294.236,422.194,298.688z"/>
		</g>
		<g>
			<circle fill="#DFDFDF" cx="419.226" cy="284.574" r="4.692"/>
			<path fill="#BDBDBD" d="M419.628,288.863c-2.591,0-4.69-2.099-4.69-4.69c0-1.195,0.444-2.282,1.177-3.11
				c-0.967,0.855-1.579,2.111-1.579,3.511c0,2.592,2.1,4.693,4.69,4.693c1.399,0,2.654-0.612,3.515-1.581
				C421.909,288.415,420.822,288.863,419.628,288.863z"/>
			<path fill="#F4F4F4" d="M414.535,284.391c0,0.028,0.001,0.061,0.001,0.089c0.051-2.546,2.128-4.599,4.689-4.599
				c2.593,0,4.694,2.102,4.694,4.692c0,2.561-2.052,4.642-4.602,4.688c0.033,0.002,0.061,0.002,0.095,0.002
				c2.692,0,4.879-2.18,4.879-4.877c0-2.691-2.187-4.876-4.879-4.876C416.717,279.512,414.535,281.694,414.535,284.391z"/>
		</g>
		<g>
			<circle fill="#DFDFDF" cx="386.703" cy="222.239" r="5.307"/>
			<path fill="#BDBDBD" d="M387.156,227.094c-2.932,0-5.305-2.378-5.305-5.312c0-1.347,0.504-2.579,1.333-3.517
				c-1.095,0.974-1.79,2.391-1.79,3.974c0,2.929,2.378,5.306,5.309,5.306c1.582,0,2.999-0.692,3.971-1.789
				C389.739,226.587,388.506,227.094,387.156,227.094z"/>
			<path fill="#F4F4F4" d="M381.395,222.029c0,0.037,0.002,0.068,0.006,0.105c0.054-2.883,2.406-5.202,5.303-5.202
				c2.931,0,5.307,2.373,5.307,5.308c0,2.894-2.32,5.247-5.203,5.305c0.035,0,0.071,0.002,0.103,0.002c3.049,0,5.52-2.47,5.52-5.518
				c0-3.047-2.471-5.517-5.52-5.517C383.866,216.512,381.395,218.982,381.395,222.029z"/>
		</g>
		<g>
			<circle fill="#DFDFDF" cx="393.271" cy="320.469" r="6.995"/>
			<path fill="#BDBDBD" d="M393.869,326.867c-3.863,0-6.997-3.129-6.997-6.996c0-1.781,0.666-3.404,1.762-4.638
				c-1.448,1.282-2.358,3.152-2.358,5.236c0,3.862,3.133,6.997,6.995,6.997c2.084,0,3.952-0.912,5.235-2.359
				C397.272,326.204,395.649,326.867,393.869,326.867z"/>
			<path fill="#F4F4F4" d="M386.275,320.195c0,0.046,0,0.09,0,0.137c0.073-3.798,3.175-6.857,6.995-6.857
				c3.864,0,6.993,3.134,6.993,6.996c0,3.819-3.055,6.921-6.857,6.993c0.048,0,0.093,0.004,0.14,0.004
				c4.015,0,7.272-3.254,7.272-7.272c0-4.018-3.258-7.273-7.272-7.273C389.529,312.921,386.275,316.177,386.275,320.195z"/>
		</g>
		<g>
			<circle fill="#DFDFDF" cx="367.745" cy="304.549" r="5.862"/>
			<path fill="#BDBDBD" d="M368.247,309.909c-3.237,0-5.86-2.626-5.86-5.86c0-1.492,0.556-2.855,1.473-3.89
				c-1.209,1.078-1.976,2.644-1.976,4.39c0,3.238,2.625,5.861,5.861,5.861c1.748,0,3.314-0.764,4.389-1.977
				C371.1,309.353,369.739,309.909,368.247,309.909z"/>
			<path fill="#F4F4F4" d="M361.884,304.319c0,0.037,0.005,0.077,0.005,0.114c0.059-3.186,2.657-5.745,5.856-5.745
				c3.237,0,5.861,2.624,5.861,5.861c0,3.2-2.56,5.798-5.745,5.859c0.037,0,0.079,0,0.115,0c3.366,0,6.096-2.726,6.096-6.091
				c0-3.368-2.731-6.093-6.096-6.093C364.61,298.226,361.884,300.951,361.884,304.319z"/>
		</g>
		<g>
			<path fill="#DFDFDF" d="M434.043,311.159c2.187,0,3.955,1.771,3.955,3.955c0,2.181-1.769,3.951-3.955,3.951
				c-2.181,0-3.952-1.771-3.952-3.951C430.091,312.93,431.862,311.159,434.043,311.159z"/>
			<path fill="#BDBDBD" d="M434.384,318.731c-2.183,0-3.952-1.771-3.952-3.958c0-1.004,0.377-1.921,0.994-2.619
				c-0.818,0.725-1.332,1.781-1.332,2.961c0,2.183,1.769,3.951,3.949,3.951c1.182,0,2.239-0.515,2.961-1.332
				C436.307,318.351,435.39,318.731,434.384,318.731z"/>
			<path fill="#F4F4F4" d="M430.094,314.958c0,0.024,0.002,0.051,0.002,0.076c0.041-2.146,1.793-3.875,3.947-3.875
				c2.188,0,3.956,1.769,3.956,3.955c0,2.153-1.729,3.905-3.874,3.949c0.026,0,0.052,0.002,0.077,0.002
				c2.269,0,4.107-1.841,4.107-4.107c0-2.271-1.84-4.109-4.107-4.109C431.932,310.849,430.094,312.687,430.094,314.958z"/>
		</g>
		<path opacity="0.1" fill="#212121" enable-background="new    " d="M434.82,283.435c0,31.36-19.023,58.271-46.157,69.838
			c1.967,0.165,3.949,0.255,5.957,0.255c38.711,0,70.093-31.382,70.093-70.094c0-38.707-31.382-70.089-70.093-70.089
			c-2.006,0-3.99,0.089-5.957,0.252C415.799,225.163,434.82,252.077,434.82,283.435z"/>
		<path opacity="0.1" fill="#212121" enable-background="new    " d="M450.775,283.435c0,29.317-16.151,54.86-40.037,68.228
			c30.94-7.282,53.975-35.064,53.975-68.228c0-33.161-23.034-60.944-53.975-68.228C434.624,228.576,450.775,254.116,450.775,283.435
			z"/>
	</g>
	<g clip-path="url(#SVGID_2_)">
		<g>
			<polygon fill="#2D292A" points="104.479,56.694 117.624,53.086 118.535,43.618 98.865,49.016 			"/>
		</g>
		<path fill="#F04E24" d="M133.822,73.892c0,0,14.897-13.268,8.039-39.138c0,0-2.455-6.994-3.021-3.782
			c-2.682,15.177-13.759,20.035-13.759,20.035L133.822,73.892z"/>
		<path fill="#F04E24" d="M101.097,82.87c0,0-19.58-3.803-26.888-29.552c0,0-1.459-7.267,0.667-4.795
			C84.93,60.206,96.935,58.729,96.935,58.729L101.097,82.87z"/>
		<g>
			<polygon fill="#BDC6C9" points="157.273,137.711 147.973,142.585 136.296,147.027 123.99,149.166 113.505,149.721 101.44,85.847 
				109.406,85.18 118.894,83.604 127.792,80.145 135.048,76.624 			"/>
			<path fill="#BDC6C9" d="M136.059,146.162l-12.17,2.114l-9.652,0.512L102.5,86.653l6.979-0.583l0.074-0.009l0.071-0.011
				l9.323-1.549l0.183-0.029l0.173-0.067l8.812-3.428l0.065-0.025l0.067-0.032l6.299-3.059l21.621,59.422l-8.561,4.487
				L136.059,146.162 M136.535,147.892l11.806-4.492l10.038-5.261L135.547,75.39l-8.08,3.923l-8.812,3.427l-9.324,1.55l-8.953,0.751
				l12.393,65.612l11.317-0.6L136.535,147.892L136.535,147.892z"/>
		</g>
		<polygon fill="#FFFFFF" points="136.535,147.892 148.341,143.4 127.469,79.314 118.656,82.74 109.332,84.29 124.09,150.053 		"/>
		<polygon fill="#DF4C26" points="118.656,82.74 127.514,79.29 118.139,51.735 110.9,54.477 103.279,55.813 109.284,84.304 		"/>
		<g>
			<path fill="#B33C1D" d="M148.341,143.4l-0.052,47.324c0,0,14.359-37.023,10.09-52.584L148.341,143.4z"/>
			<path fill="#B33C1D" d="M148.289,190.724l-24.199-40.67l-11.317,0.6C117.042,166.214,148.289,190.724,148.289,190.724z"/>
		</g>
		<path fill="#DF4C26" d="M148.289,190.724c0,0,4.323-31.759,0.052-47.324l-11.806,4.492l-12.445,2.162
			C128.361,165.618,148.289,190.724,148.289,190.724z"/>
		<g>
			<path fill="#DF4C26" d="M134.824,141.66c8.9-2.445,14.135-11.64,11.693-20.541c-2.443-8.899-11.637-14.136-20.539-11.692
				c-8.9,2.442-14.135,11.636-11.692,20.536C116.729,138.865,125.923,144.099,134.824,141.66z M127.309,114.267
				c6.224-1.707,12.657,1.956,14.366,8.182c1.709,6.225-1.956,12.66-8.179,14.369c-6.226,1.708-12.661-1.956-14.369-8.181
				C117.419,122.41,121.081,115.976,127.309,114.267z"/>
			<path fill="#CDC8C1" d="M133.912,138.331c7.062-1.938,11.217-9.234,9.279-16.298c-1.938-7.064-9.236-11.217-16.298-9.278
				c-7.063,1.938-11.22,9.233-9.282,16.297C119.55,136.115,126.848,140.268,133.912,138.331z M127.309,114.267
				c6.224-1.707,12.657,1.956,14.366,8.182c1.709,6.225-1.956,12.66-8.179,14.369c-6.226,1.708-12.661-1.956-14.369-8.181
				C117.419,122.41,121.081,115.976,127.309,114.267z"/>
			<path fill="#406594" d="M119.127,128.636c-1.708-6.226,1.954-12.66,8.182-14.37c6.224-1.707,12.657,1.956,14.366,8.182
				c1.709,6.225-1.956,12.66-8.179,14.369C127.271,138.525,120.835,134.861,119.127,128.636z"/>
			<g>
				<path fill="#CFCBC7" d="M136.869,115.81c2.271,1.505,4.029,3.804,4.806,6.639c1.709,6.225-1.956,12.66-8.179,14.369
					c-2.834,0.776-5.708,0.44-8.162-0.744c2.716,1.804,6.167,2.47,9.562,1.54c6.226-1.708,9.888-8.14,8.179-14.368
					C142.145,119.854,139.81,117.223,136.869,115.81z"/>
				<path fill="#CFCBC7" d="M122.844,140.448c-3.384-2.148-6.013-5.515-7.158-9.688c-2.441-8.897,2.795-18.094,11.695-20.535
					c4.169-1.144,8.404-0.606,11.979,1.21c-3.837-2.434-8.65-3.306-13.38-2.008c-8.899,2.441-14.135,11.634-11.692,20.536
					C115.584,134.695,118.788,138.39,122.844,140.448z"/>
			</g>
			<path fill="#FFFFFF" d="M136.99,115.887l-17.521,13.786c0.795,2.117,2.158,3.887,3.868,5.18l17.778-13.989
				C140.217,118.801,138.768,117.097,136.99,115.887z"/>
			<path fill="#FFFFFF" d="M128.877,137.137l13.148-10.346c0.151-1.417,0.049-2.885-0.351-4.343
				c-0.037-0.132-0.078-0.266-0.121-0.396l-17.168,13.51C125.75,136.382,127.28,136.927,128.877,137.137z"/>
			<g>
				<path fill="#EEEEF7" d="M124.205,139.443c3.551,1.326,7.486,1.368,10.935,0.083c3.449-1.263,6.392-3.78,8.109-6.996
					c1.763-3.191,2.278-7.026,1.463-10.609c-0.802-3.592-2.968-6.875-6.013-9.138c1.664,0.92,3.121,2.221,4.323,3.732
					c1.171,1.527,2.048,3.315,2.583,5.179c1.089,3.76,0.581,7.955-1.304,11.409c-1.874,3.462-5.12,6.167-8.867,7.294
					c-1.864,0.565-3.826,0.804-5.75,0.648C127.762,140.854,125.881,140.337,124.205,139.443z"/>
			</g>
		</g>
		<g>
			<polygon fill="#B33C1D" points="135.547,75.39 124.807,47.802 118.139,51.735 127.469,79.314 			"/>
			<polygon fill="#B33C1D" points="109.332,84.29 103.279,55.813 95.537,55.834 100.379,85.041 			"/>
		</g>
		
			<rect x="99.068" y="45.252" transform="matrix(0.9643 -0.2647 0.2647 0.9643 -8.2512 30.3534)" fill="#CFCBC7" width="18.906" height="1.093"/>
	</g>
	<path clip-path="url(#SVGID_2_)" fill="#EF4C23" d="M304.441,288.595c-11.5,4.853-21.754,11.366-32.557,17.5
		c-2.813,1.596-4.873-2.46-2.872-4.475c3.384-3.407,7.164-6.451,11.168-9.206c-12.532,0.772-25.84-0.871-37.399-3.163
		c-15.508-3.076-30.741-8.704-44.451-16.598c-22.74-13.094-47.91-39.377-48.797-67.279c-0.052-1.593,2.292-1.739,2.901-0.504
		c6.182,12.529,10.91,24.497,20.301,35.191c9.199,10.477,20.715,19.464,33.137,25.815c13.129,6.71,27.36,10.279,41.944,12.041
		c12.209,1.478,24.154,0.673,36.23,0.583c-6.762-5.361-12.617-11.936-16.018-19.165c-1.997-4.245,3.772-7.862,6.843-4.392
		c4.673,5.275,8.48,10.922,13.889,15.578c5.019,4.314,10.549,7.595,16.311,10.796C307.854,282.866,307.178,287.44,304.441,288.595z"
		/>
	<g clip-path="url(#SVGID_2_)">
		
			<linearGradient id="SVGID_9_" gradientUnits="userSpaceOnUse" x1="98.5864" y1="-15.5149" x2="98.721" y2="11.4866" gradientTransform="matrix(0.9762 -0.2167 0.2167 0.9762 2.5784 23.5147)">
			<stop  offset="0" style="stop-color:#FFFFFF"/>
			<stop  offset="0.7635" style="stop-color:#C7C7C7"/>
		</linearGradient>
		<polygon fill="url(#SVGID_9_)" points="111.725,45.047 106.289,46.27 105.717,46.399 89.795,-24.395 95.803,-25.746 		"/>
		<polygon fill="#F2F2F2" points="99.16,3.324 111.583,45.088 105.572,46.422 		"/>
	</g>
</g>
</svg>
