<?xml version="1.0" encoding="utf-8"?>
<!-- Generator: Adobe Illustrator 16.0.0, SVG Export Plug-In . SVG Version: 6.00 Build 0)  -->
<!DOCTYPE svg PUBLIC "-//W3C//DTD SVG 1.1//EN" "http://www.w3.org/Graphics/SVG/1.1/DTD/svg11.dtd">
<svg version="1.1" id="Warstwa_1" xmlns="http://www.w3.org/2000/svg" xmlns:xlink="http://www.w3.org/1999/xlink" x="0px" y="0px"
	 width="498.422px" height="390.178px" viewBox="0 0 498.422 390.178" enable-background="new 0 0 498.422 390.178"
	 xml:space="preserve">
<g>
	<g>
		<g>
			<defs>
				<path id="SVGID_1_" d="M498.422,390.178V0c-29.875,6.522-58.285,24.238-72.22,51.421c-8.78,17.125-12.36,38.266-27.694,49.895
					c-12.859,9.745-30.855,11.662-46.361,7.179s-18.561-5.659-33.398-12.011c-23.148-9.932-52.021-10.122-76.48-4.098
					c-24.471,6.009-42.145,24.146-48.76,48.463c-7.146,26.31,3.158,58.411-14.697,79.039c-19.957,23.071-73.508,0.367-95.646,21.368
					c-14.152,13.419-16.27,35.354-13.357,54.643c2.912,19.289,0.443,46.119-8.604,57.493C51.045,366.16,7.348,380.027,0,390.178
					H498.422z"/>
			</defs>
			<clipPath id="SVGID_2_">
				<use xlink:href="#SVGID_1_"  overflow="visible"/>
			</clipPath>
			<rect x="-3.896" y="-62.505" clip-path="url(#SVGID_2_)" fill="#010101" width="506.877" height="455.418"/>
			<g clip-path="url(#SVGID_2_)">
				<path fill="#062D3F" d="M193.193,322.664c30.418-1.92,45.891,69.939,73.295,66.675c32.577-3.881,49.495-110.066,55.644-193.161
					h-18.979c-10.846,56.943-27.449,117.944-54.58,120.502c-31.137,2.937-55.018-73.076-78.393-120.502h-57.686
					C90.428,269.424,85.059,434.741,88.85,533.587h29.25C132.447,448.633,153.799,325.149,193.193,322.664z M129.813,314.335
					c-13.752-5.645-12.141-41.23-7.521-61.72c2.084-9.252,7.674-34.059,18.461-35.166c13.475-1.386,36.818,34.034,28.033,63.873
					C162.691,302.016,141.416,319.098,129.813,314.335z"/>
				<path fill="#062D3F" d="M390.799,190.475c30.42-1.92,45.893,69.94,73.295,66.676c32.578-3.881,49.496-110.066,55.643-193.162
					h-18.979c-10.844,56.943-27.449,117.944-54.581,120.502c-31.136,2.937-55.019-73.076-78.392-120.502h-57.687
					c-22.065,73.246-27.433,238.563-23.644,337.41h29.25C330.053,316.443,351.404,192.961,390.799,190.475z M341.578,195.502
					c-7.435-5.645-6.563-41.23-4.066-61.72c1.127-9.252,4.149-34.059,9.981-35.167c7.286-1.385,19.907,34.035,15.157,63.874
					C359.355,183.183,347.854,200.265,341.578,195.502z"/>
			</g>
			<g clip-path="url(#SVGID_2_)">
				<circle fill="#FFFFFF" cx="379.858" cy="136.177" r="1.267"/>
				<circle fill="#FFFFFF" cx="188.176" cy="275.472" r="1.268"/>
				<circle fill="#FFFFFF" cx="165.039" cy="351.356" r="1.268"/>
				<circle fill="#FFFFFF" cx="349.998" cy="96.938" r="1.267"/>
				<circle fill="#FFFFFF" cx="289.733" cy="112.864" r="1.267"/>
				<circle fill="#FFFFFF" cx="264.034" cy="195.42" r="1.267"/>
				<circle fill="#FFFFFF" cx="223.036" cy="215.329" r="1.267"/>
				<circle fill="#FFFFFF" cx="472.61" cy="18.954" r="1.266"/>
				<circle fill="#FFFFFF" cx="283.599" cy="343.354" r="1.267"/>
				<circle fill="#FFFFFF" cx="338.476" cy="272.422" r="1.267"/>
				<circle fill="#FFFFFF" cx="117.885" cy="357.531" r="1.268"/>
				<circle fill="#FFFFFF" cx="232.138" cy="260.598" r="1.267"/>
				<circle fill="#FFFFFF" cx="229.888" cy="131.158" r="1.267"/>
				<circle fill="#FFFFFF" cx="473.876" cy="229.188" r="1.267"/>
				<circle fill="#FFFFFF" cx="93.419" cy="274.646" r="1.267"/>
				<circle fill="#FFFFFF" cx="413.866" cy="248.759" r="1.267"/>
				<circle fill="#FFFFFF" cx="427.454" cy="322.27" r="1.267"/>
				<circle fill="#FFFFFF" cx="456.608" cy="293.884" r="1.267"/>
				<circle fill="#FFFFFF" cx="326.877" cy="148.335" r="1.267"/>
				<circle fill="#FFFFFF" cx="212.004" cy="325.489" r="1.267"/>
				<circle fill="#FFFFFF" cx="471.342" cy="132.375" r="1.267"/>
				<circle fill="#FFFFFF" cx="455.341" cy="216.759" r="1.267"/>
				<circle fill="#FFFFFF" cx="462.919" cy="75.611" r="1.267"/>
				<circle fill="#FFFFFF" cx="463.193" cy="356.006" r="1.267"/>
				<circle fill="#FFFFFF" cx="392.998" cy="300.889" r="1.267"/>
				<circle fill="#FFFFFF" cx="384.494" cy="353.209" r="1.267"/>
				<circle fill="#FFFFFF" cx="416.767" cy="375.502" r="1.267"/>
			</g>
		</g>
	</g>
	<g>
		<circle fill="#F9FBFB" cx="348.734" cy="258.921" r="108.467"/>
		<g>
			<path fill="#DFDFDF" d="M309.906,310.092c9.43,0,17.07,7.646,17.07,17.073c0,9.432-7.641,17.077-17.07,17.077
				c-9.432,0-17.076-7.646-17.076-17.077C292.83,317.737,300.475,310.092,309.906,310.092z"/>
			<path fill="#BDBDBD" d="M311.363,342.778c-9.428,0-17.074-7.642-17.074-17.073c0-4.339,1.625-8.304,4.297-11.319
				c-3.527,3.132-5.756,7.694-5.756,12.779c0,9.434,7.645,17.077,17.076,17.077c5.084,0,9.648-2.227,12.777-5.758
				C319.672,341.154,315.711,342.778,311.363,342.778z"/>
			<path fill="#F4F4F4" d="M292.83,326.494c0,0.112,0.008,0.226,0.01,0.338c0.178-9.272,7.748-16.74,17.066-16.74
				c9.43,0,17.07,7.646,17.07,17.073c0,9.318-7.461,16.887-16.734,17.068c0.111,0.005,0.223,0.009,0.334,0.009
				c9.805,0,17.75-7.946,17.75-17.748s-7.945-17.749-17.75-17.749C300.775,308.745,292.83,316.692,292.83,326.494z"/>
		</g>
		<g>
			<circle fill="#DFDFDF" cx="279.988" cy="213.766" r="8.536"/>
			<path fill="#BDBDBD" d="M280.721,221.571c-4.715,0-8.539-3.819-8.539-8.536c0-2.17,0.813-4.15,2.15-5.657
				c-1.77,1.562-2.881,3.843-2.881,6.385c0,4.717,3.82,8.539,8.537,8.539c2.543,0,4.824-1.112,6.391-2.877
				C284.875,220.76,282.891,221.571,280.721,221.571z"/>
			<path fill="#F4F4F4" d="M271.451,213.43c0,0.057,0.006,0.112,0.006,0.169c0.09-4.639,3.875-8.368,8.531-8.368
				c4.717,0,8.539,3.82,8.539,8.537c0,4.661-3.73,8.44-8.369,8.531c0.057,0.003,0.113,0.003,0.168,0.003
				c4.902,0,8.875-3.972,8.875-8.872c0-4.901-3.973-8.874-8.875-8.874S271.451,208.528,271.451,213.43z"/>
		</g>
		<g>
			<path fill="#DFDFDF" d="M366.574,162.586c11.766,0,21.303,9.536,21.303,21.304c0,11.766-9.537,21.3-21.303,21.3
				c-11.768,0-21.307-9.534-21.307-21.3C345.268,172.122,354.807,162.586,366.574,162.586z"/>
			<path fill="#BDBDBD" d="M368.395,203.374c-11.766,0-21.299-9.54-21.299-21.306c0-5.422,2.021-10.362,5.357-14.122
				c-4.402,3.904-7.18,9.597-7.18,15.945c0,11.765,9.537,21.304,21.301,21.304c6.346,0,12.041-2.779,15.949-7.182
				C378.76,201.345,373.816,203.374,368.395,203.374z"/>
			<path fill="#F4F4F4" d="M345.268,183.051c0,0.141,0.01,0.277,0.014,0.417c0.225-11.57,9.668-20.882,21.293-20.882
				c11.766,0,21.303,9.536,21.303,21.304c0,11.625-9.313,21.066-20.881,21.292c0.141,0.003,0.279,0.008,0.418,0.008
				c12.229,0,22.145-9.909,22.145-22.139c0-12.231-9.916-22.146-22.145-22.146C355.188,160.906,345.268,170.82,345.268,183.051z"/>
		</g>
		<g>
			<circle fill="#DFDFDF" cx="416.344" cy="240.818" r="21.306"/>
			<path fill="#BDBDBD" d="M418.168,260.299c-11.766,0-21.307-9.538-21.307-21.305c0-5.417,2.027-10.361,5.361-14.121
				c-4.404,3.901-7.186,9.596-7.186,15.941c0,11.766,9.541,21.306,21.307,21.306c6.346,0,12.041-2.78,15.943-7.183
				C428.529,258.272,423.588,260.299,418.168,260.299z"/>
			<path fill="#F4F4F4" d="M395.041,239.976c0,0.141,0.01,0.282,0.01,0.422c0.227-11.572,9.67-20.885,21.293-20.885
				c11.768,0,21.307,9.538,21.307,21.305c0,11.622-9.314,21.069-20.885,21.295c0.141,0,0.279,0.012,0.42,0.012
				c12.229,0,22.148-9.914,22.148-22.148c0-12.229-9.92-22.144-22.148-22.144C404.953,217.832,395.041,227.747,395.041,239.976z"/>
		</g>
		<g>
			<path fill="#DFDFDF" d="M403.398,270.999c6.631,0,11.998,5.367,11.998,11.995c0,6.624-5.367,11.995-11.998,11.995
				c-6.621,0-11.994-5.371-11.994-11.995C391.404,276.366,396.777,270.999,403.398,270.999z"/>
			<path fill="#BDBDBD" d="M404.428,293.962c-6.623,0-11.996-5.368-11.996-11.996c0-3.051,1.141-5.835,3.016-7.951
				c-2.477,2.195-4.043,5.405-4.043,8.977c0,6.627,5.373,11.998,11.998,11.998c3.576,0,6.781-1.564,8.979-4.044
				C410.264,292.823,407.48,293.962,404.428,293.962z"/>
			<path fill="#F4F4F4" d="M391.404,282.521c0,0.077,0.006,0.156,0.006,0.233c0.129-6.512,5.441-11.758,11.988-11.758
				c6.631,0,11.998,5.37,11.998,11.995c0,6.547-5.24,11.866-11.758,11.992c0.076,0,0.158,0.006,0.234,0.006
				c6.889,0,12.471-5.583,12.471-12.469c0-6.889-5.582-12.471-12.471-12.471C396.986,270.05,391.404,275.632,391.404,282.521z"/>
		</g>
		<g>
			<circle fill="#DFDFDF" cx="386.811" cy="260.681" r="7.261"/>
			<path fill="#BDBDBD" d="M387.432,267.317c-4.01,0-7.26-3.248-7.26-7.259c0-1.849,0.689-3.531,1.822-4.813
				c-1.496,1.326-2.443,3.268-2.443,5.433c0,4.012,3.248,7.263,7.26,7.263c2.164,0,4.105-0.948,5.436-2.446
				C390.963,266.626,389.281,267.317,387.432,267.317z"/>
			<path fill="#F4F4F4" d="M379.551,260.396c0,0.045,0.002,0.094,0.002,0.139c0.078-3.94,3.295-7.118,7.258-7.118
				c4.012,0,7.262,3.253,7.262,7.263c0,3.962-3.174,7.182-7.119,7.256c0.051,0.004,0.094,0.004,0.146,0.004
				c4.166,0,7.549-3.375,7.549-7.548c0-4.167-3.383-7.547-7.549-7.547C382.928,252.848,379.551,256.224,379.551,260.396z"/>
		</g>
		<g>
			<circle fill="#DFDFDF" cx="336.48" cy="164.217" r="8.213"/>
			<path fill="#BDBDBD" d="M337.182,171.729c-4.537,0-8.209-3.679-8.209-8.218c0-2.085,0.779-3.993,2.063-5.442
				c-1.695,1.506-2.77,3.7-2.77,6.148c0,4.533,3.68,8.212,8.215,8.212c2.449,0,4.641-1.07,6.145-2.769
				C341.178,170.946,339.271,171.729,337.182,171.729z"/>
			<path fill="#F4F4F4" d="M328.266,163.892c0,0.057,0.004,0.107,0.008,0.162c0.084-4.461,3.725-8.05,8.207-8.05
				c4.535,0,8.213,3.673,8.213,8.214c0,4.479-3.592,8.12-8.053,8.208c0.055,0,0.109,0.004,0.16,0.004
				c4.717,0,8.539-3.822,8.539-8.538s-3.822-8.536-8.539-8.536C332.09,155.355,328.266,159.176,328.266,163.892z"/>
		</g>
		<g>
			<circle fill="#DFDFDF" cx="346.645" cy="316.228" r="10.825"/>
			<path fill="#BDBDBD" d="M347.57,326.131c-5.979,0-10.828-4.844-10.828-10.829c0-2.755,1.031-5.266,2.727-7.176
				c-2.242,1.985-3.65,4.879-3.65,8.103c0,5.979,4.846,10.829,10.826,10.829c3.225,0,6.117-1.411,8.1-3.65
				C352.838,325.103,350.326,326.131,347.57,326.131z"/>
			<path fill="#F4F4F4" d="M335.818,315.803c0,0.07,0,0.142,0,0.212c0.115-5.878,4.914-10.611,10.826-10.611
				c5.98,0,10.824,4.849,10.824,10.825c0,5.911-4.73,10.71-10.613,10.822c0.074,0,0.143,0.007,0.215,0.007
				c6.213,0,11.254-5.036,11.254-11.255c0-6.216-5.041-11.256-11.254-11.256C340.854,304.547,335.818,309.587,335.818,315.803z"/>
		</g>
		<g>
			<circle fill="#DFDFDF" cx="307.145" cy="291.591" r="9.071"/>
			<path fill="#BDBDBD" d="M307.92,299.886c-5.01,0-9.068-4.062-9.068-9.068c0-2.309,0.859-4.417,2.279-6.019
				c-1.871,1.669-3.059,4.092-3.059,6.794c0,5.01,4.063,9.069,9.072,9.069c2.705,0,5.127-1.181,6.791-3.058
				C312.334,299.026,310.23,299.886,307.92,299.886z"/>
			<path fill="#F4F4F4" d="M298.072,291.235c0,0.057,0.008,0.119,0.008,0.178c0.092-4.93,4.113-8.892,9.064-8.892
				c5.01,0,9.07,4.061,9.07,9.071c0,4.952-3.961,8.972-8.891,9.067c0.059,0,0.121,0.002,0.178,0.002c5.211,0,9.434-4.22,9.434-9.427
				c0-5.211-4.227-9.429-9.434-9.429C302.293,281.807,298.072,286.024,298.072,291.235z"/>
		</g>
		<g>
			<path fill="#DFDFDF" d="M409.74,301.821c3.383,0,6.119,2.74,6.119,6.12c0,3.377-2.736,6.117-6.119,6.117
				c-3.377,0-6.117-2.74-6.117-6.117C403.623,304.562,406.363,301.821,409.74,301.821z"/>
			<path fill="#BDBDBD" d="M410.268,313.536c-3.379,0-6.119-2.74-6.119-6.122c0-1.554,0.584-2.974,1.539-4.054
				c-1.264,1.123-2.061,2.756-2.061,4.581c0,3.38,2.736,6.117,6.113,6.117c1.828,0,3.465-0.798,4.582-2.063
				C413.242,312.95,411.824,313.536,410.268,313.536z"/>
			<path fill="#F4F4F4" d="M403.627,307.7c0,0.039,0.004,0.079,0.004,0.118c0.063-3.321,2.775-5.997,6.109-5.997
				c3.387,0,6.121,2.738,6.121,6.12c0,3.335-2.674,6.047-5.994,6.114c0.041,0,0.078,0.003,0.119,0.003
				c3.51,0,6.357-2.851,6.357-6.358c0-3.514-2.848-6.359-6.357-6.359C406.473,301.341,403.627,304.186,403.627,307.7z"/>
		</g>
		<path opacity="0.1" fill="#212121" enable-background="new    " d="M410.943,258.917c0,48.53-29.438,90.177-71.428,108.074
			c3.043,0.256,6.111,0.396,9.219,0.396c59.904,0,108.467-48.563,108.467-108.471c0-59.9-48.563-108.463-108.467-108.463
			c-3.107,0-6.176,0.137-9.219,0.39C381.506,168.744,410.943,210.393,410.943,258.917z"/>
		<path opacity="0.1" fill="#212121" enable-background="new    " d="M435.633,258.917c0,45.37-24.994,84.898-61.957,105.582
			c47.879-11.268,83.525-54.261,83.525-105.582c0-51.317-35.646-94.311-83.525-105.581
			C410.639,174.025,435.633,213.549,435.633,258.917z"/>
	</g>
</g>
</svg>
