<?xml version="1.0" encoding="utf-8"?>
<!-- Generator: Adobe Illustrator 16.0.0, SVG Export Plug-In . SVG Version: 6.00 Build 0)  -->
<!DOCTYPE svg PUBLIC "-//W3C//DTD SVG 1.1//EN" "http://www.w3.org/Graphics/SVG/1.1/DTD/svg11.dtd">
<svg version="1.1" id="Warstwa_1" xmlns="http://www.w3.org/2000/svg" xmlns:xlink="http://www.w3.org/1999/xlink" x="0px" y="0px"
	 width="390.178px" height="498.422px" viewBox="0 0 390.178 498.422" enable-background="new 0 0 390.178 498.422"
	 xml:space="preserve">
<g>
	<g>
		<g>
			<defs>
				<path id="SVGID_1_" d="M390.178,0H0c6.523,29.875,24.238,58.285,51.421,72.22C68.546,81,89.687,84.58,101.315,99.914
					c9.745,12.859,11.662,30.855,7.179,46.361s-5.659,18.561-12.011,33.398c-9.932,23.148-10.122,52.021-4.098,76.48
					c6.009,24.471,24.146,42.145,48.463,48.76c26.31,7.146,58.411-3.158,79.039,14.697c23.071,19.957,0.367,73.508,21.368,95.646
					c13.419,14.152,35.354,16.27,54.643,13.357c19.289-2.912,46.119-0.443,57.493,8.604c12.769,10.158,26.636,53.855,36.786,61.203
					V0z"/>
			</defs>
			<clipPath id="SVGID_2_">
				<use xlink:href="#SVGID_1_"  overflow="visible"/>
			</clipPath>
			<rect x="-62.504" y="-4.559" clip-path="url(#SVGID_2_)" fill="#010101" width="455.417" height="506.877"/>
			<g clip-path="url(#SVGID_2_)">
				<path fill="#052D3F" d="M322.664,305.229c-1.92-30.418,69.939-45.891,66.675-73.295
					c-3.881-32.577-110.066-49.495-193.161-55.644v18.979c56.943,10.846,117.944,27.449,120.502,54.58
					c2.937,31.137-73.076,55.018-120.502,78.393v57.686c73.246,22.066,238.563,27.436,337.409,23.645v-29.25
					C448.633,365.975,325.149,344.623,322.664,305.229z M314.335,368.609c-5.645,13.752-41.23,12.141-61.72,7.521
					c-9.252-2.084-34.059-7.674-35.166-18.461c-1.386-13.475,34.034-36.818,63.873-28.033
					C302.016,335.73,319.098,357.006,314.335,368.609z"/>
				<path fill="#052D3F" d="M190.475,107.623c-1.92-30.42,69.94-45.893,66.676-73.295C253.27,1.75,147.084-15.168,63.988-21.314
					v18.979C120.932,8.508,181.933,25.113,184.49,52.245c2.937,31.136-73.076,55.019-120.502,78.392v57.687
					c73.246,22.065,238.563,27.433,337.41,23.644v-29.25C316.443,168.369,192.961,147.018,190.475,107.623z M195.502,156.844
					c-5.645,7.435-41.23,6.563-61.72,4.066c-9.252-1.127-34.059-4.149-35.167-9.981c-1.385-7.286,34.035-19.907,63.874-15.157
					C183.183,139.066,200.265,150.568,195.502,156.844z"/>
			</g>
			<g clip-path="url(#SVGID_2_)">
				<circle fill="#FFFFFF" cx="136.177" cy="118.563" r="1.267"/>
				<circle fill="#FFFFFF" cx="275.472" cy="310.246" r="1.268"/>
				<circle fill="#FFFFFF" cx="351.356" cy="333.383" r="1.268"/>
				<circle fill="#FFFFFF" cx="96.938" cy="148.424" r="1.267"/>
				<circle fill="#FFFFFF" cx="112.864" cy="208.689" r="1.267"/>
				<circle fill="#FFFFFF" cx="195.42" cy="234.388" r="1.267"/>
				<circle fill="#FFFFFF" cx="215.329" cy="275.386" r="1.267"/>
				<circle fill="#FFFFFF" cx="18.954" cy="25.812" r="1.266"/>
				<circle fill="#FFFFFF" cx="343.354" cy="214.823" r="1.267"/>
				<circle fill="#FFFFFF" cx="272.422" cy="159.946" r="1.267"/>
				<circle fill="#FFFFFF" cx="357.531" cy="380.537" r="1.268"/>
				<circle fill="#FFFFFF" cx="260.598" cy="266.284" r="1.267"/>
				<circle fill="#FFFFFF" cx="131.158" cy="268.534" r="1.267"/>
				<circle fill="#FFFFFF" cx="229.188" cy="24.546" r="1.267"/>
				<circle fill="#FFFFFF" cx="274.646" cy="405.003" r="1.267"/>
				<circle fill="#FFFFFF" cx="248.759" cy="84.556" r="1.267"/>
				<circle fill="#FFFFFF" cx="322.27" cy="70.968" r="1.267"/>
				<circle fill="#FFFFFF" cx="293.884" cy="41.814" r="1.267"/>
				<circle fill="#FFFFFF" cx="148.335" cy="171.544" r="1.267"/>
				<circle fill="#FFFFFF" cx="325.489" cy="286.418" r="1.267"/>
				<circle fill="#FFFFFF" cx="132.375" cy="27.08" r="1.267"/>
				<circle fill="#FFFFFF" cx="216.759" cy="43.081" r="1.267"/>
				<circle fill="#FFFFFF" cx="75.611" cy="35.502" r="1.267"/>
				<circle fill="#FFFFFF" cx="356.006" cy="35.229" r="1.267"/>
				<circle fill="#FFFFFF" cx="300.889" cy="105.424" r="1.267"/>
				<circle fill="#FFFFFF" cx="353.209" cy="113.928" r="1.267"/>
				<circle fill="#FFFFFF" cx="375.502" cy="81.655" r="1.267"/>
			</g>
		</g>
	</g>
	<g>
		<circle fill="#F7F9FA" cx="258.921" cy="149.688" r="108.467"/>
		<g>
			<path fill="#DFDFDE" d="M310.092,188.516c0-9.43,7.646-17.07,17.073-17.07c9.432,0,17.077,7.641,17.077,17.07
				c0,9.432-7.646,17.076-17.077,17.076C317.737,205.592,310.092,197.947,310.092,188.516z"/>
			<path fill="#BCBCBB" d="M342.778,187.059c0,9.428-7.642,17.074-17.073,17.074c-4.339,0-8.304-1.625-11.319-4.297
				c3.132,3.527,7.694,5.756,12.779,5.756c9.434,0,17.077-7.645,17.077-17.076c0-5.084-2.227-9.648-5.758-12.777
				C341.154,178.75,342.778,182.711,342.778,187.059z"/>
			<path fill="#F3F3F3" d="M326.494,205.592c0.112,0,0.226-0.008,0.338-0.01c-9.272-0.178-16.74-7.748-16.74-17.066
				c0-9.43,7.646-17.07,17.073-17.07c9.318,0,16.887,7.461,17.068,16.734c0.005-0.111,0.009-0.223,0.009-0.334
				c0-9.805-7.946-17.75-17.748-17.75s-17.749,7.945-17.749,17.75C308.745,197.646,316.692,205.592,326.494,205.592z"/>
		</g>
		<g>
			<circle fill="#DFDFDE" cx="213.766" cy="218.434" r="8.536"/>
			<path fill="#BCBCBB" d="M221.571,217.701c0,4.715-3.819,8.539-8.536,8.539c-2.17,0-4.15-0.813-5.657-2.15
				c1.562,1.77,3.843,2.881,6.385,2.881c4.717,0,8.539-3.82,8.539-8.537c0-2.543-1.112-4.824-2.877-6.391
				C220.76,213.547,221.571,215.531,221.571,217.701z"/>
			<path fill="#F3F3F3" d="M213.43,226.971c0.057,0,0.112-0.006,0.169-0.006c-4.639-0.09-8.368-3.875-8.368-8.531
				c0-4.717,3.82-8.539,8.537-8.539c4.661,0,8.44,3.73,8.531,8.369c0.003-0.057,0.003-0.113,0.003-0.168
				c0-4.902-3.972-8.875-8.872-8.875c-4.901,0-8.874,3.973-8.874,8.875S208.528,226.971,213.43,226.971z"/>
		</g>
		<g>
			<path fill="#DFDFDE" d="M162.586,131.848c0-11.766,9.536-21.303,21.304-21.303c11.766,0,21.3,9.537,21.3,21.303
				c0,11.768-9.534,21.307-21.3,21.307C172.122,153.154,162.586,143.615,162.586,131.848z"/>
			<path fill="#BCBCBB" d="M203.374,130.027c0,11.766-9.54,21.299-21.306,21.299c-5.422,0-10.362-2.021-14.122-5.357
				c3.904,4.402,9.597,7.18,15.945,7.18c11.765,0,21.304-9.537,21.304-21.301c0-6.346-2.779-12.041-7.182-15.949
				C201.345,119.662,203.374,124.605,203.374,130.027z"/>
			<path fill="#F3F3F3" d="M183.051,153.154c0.141,0,0.277-0.01,0.417-0.014c-11.57-0.225-20.882-9.668-20.882-21.293
				c0-11.766,9.536-21.303,21.304-21.303c11.625,0,21.066,9.313,21.292,20.881c0.003-0.141,0.008-0.279,0.008-0.418
				c0-12.229-9.909-22.145-22.139-22.145c-12.231,0-22.146,9.916-22.146,22.145C160.906,143.234,170.82,153.154,183.051,153.154z"/>
		</g>
		<g>
			<circle fill="#DFDFDE" cx="240.818" cy="82.078" r="21.306"/>
			<path fill="#BCBCBB" d="M260.299,80.254c0,11.766-9.538,21.307-21.305,21.307c-5.417,0-10.361-2.027-14.121-5.361
				c3.901,4.404,9.596,7.186,15.941,7.186c11.766,0,21.306-9.541,21.306-21.307c0-6.346-2.78-12.041-7.183-15.943
				C258.272,69.893,260.299,74.834,260.299,80.254z"/>
			<path fill="#F3F3F3" d="M239.976,103.381c0.141,0,0.282-0.01,0.422-0.01c-11.572-0.227-20.885-9.67-20.885-21.293
				c0-11.768,9.538-21.307,21.305-21.307c11.622,0,21.069,9.314,21.295,20.885c0-0.141,0.012-0.279,0.012-0.42
				c0-12.229-9.914-22.148-22.148-22.148c-12.229,0-22.144,9.92-22.144,22.148C217.832,93.469,227.747,103.381,239.976,103.381z"/>
		</g>
		<g>
			<path fill="#DFDFDE" d="M270.999,95.023c0-6.631,5.367-11.998,11.995-11.998c6.624,0,11.995,5.367,11.995,11.998
				c0,6.621-5.371,11.994-11.995,11.994C276.366,107.018,270.999,101.645,270.999,95.023z"/>
			<path fill="#BCBCBB" d="M293.962,93.994c0,6.623-5.368,11.996-11.996,11.996c-3.051,0-5.835-1.141-7.951-3.016
				c2.195,2.477,5.405,4.043,8.977,4.043c6.627,0,11.998-5.373,11.998-11.998c0-3.576-1.564-6.781-4.044-8.979
				C292.823,88.158,293.962,90.941,293.962,93.994z"/>
			<path fill="#F3F3F3" d="M282.521,107.018c0.077,0,0.156-0.006,0.233-0.006c-6.512-0.129-11.758-5.441-11.758-11.988
				c0-6.631,5.37-11.998,11.995-11.998c6.547,0,11.866,5.24,11.992,11.758c0-0.076,0.006-0.158,0.006-0.234
				c0-6.889-5.583-12.471-12.469-12.471c-6.889,0-12.471,5.582-12.471,12.471C270.05,101.436,275.632,107.018,282.521,107.018z"/>
		</g>
		<g>
			<circle fill="#DFDFDE" cx="260.681" cy="111.611" r="7.261"/>
			<path fill="#BCBCBB" d="M267.317,110.99c0,4.01-3.248,7.26-7.259,7.26c-1.849,0-3.531-0.689-4.813-1.822
				c1.326,1.496,3.268,2.443,5.433,2.443c4.012,0,7.263-3.248,7.263-7.26c0-2.164-0.948-4.105-2.446-5.436
				C266.626,107.459,267.317,109.141,267.317,110.99z"/>
			<path fill="#F3F3F3" d="M260.396,118.871c0.045,0,0.094-0.002,0.139-0.002c-3.94-0.078-7.118-3.295-7.118-7.258
				c0-4.012,3.253-7.262,7.263-7.262c3.962,0,7.182,3.174,7.256,7.119c0.004-0.051,0.004-0.094,0.004-0.146
				c0-4.166-3.375-7.549-7.548-7.549c-4.167,0-7.547,3.383-7.547,7.549C252.848,115.494,256.224,118.871,260.396,118.871z"/>
		</g>
		<g>
			<circle fill="#DFDFDE" cx="164.217" cy="161.941" r="8.213"/>
			<path fill="#BCBCBB" d="M171.729,161.24c0,4.537-3.679,8.209-8.218,8.209c-2.085,0-3.993-0.779-5.442-2.063
				c1.506,1.695,3.7,2.77,6.148,2.77c4.533,0,8.212-3.68,8.212-8.215c0-2.449-1.07-4.641-2.769-6.145
				C170.946,157.244,171.729,159.15,171.729,161.24z"/>
			<path fill="#F3F3F3" d="M163.892,170.156c0.057,0,0.107-0.004,0.162-0.008c-4.461-0.084-8.05-3.725-8.05-8.207
				c0-4.535,3.673-8.213,8.214-8.213c4.479,0,8.12,3.592,8.208,8.053c0-0.055,0.004-0.109,0.004-0.16
				c0-4.717-3.822-8.539-8.538-8.539s-8.536,3.822-8.536,8.539C155.355,166.332,159.176,170.156,163.892,170.156z"/>
		</g>
		<g>
			<circle fill="#DFDFDE" cx="316.228" cy="151.777" r="10.825"/>
			<path fill="#BCBCBB" d="M326.131,150.852c0,5.979-4.844,10.828-10.829,10.828c-2.755,0-5.266-1.031-7.176-2.727
				c1.985,2.242,4.879,3.65,8.103,3.65c5.979,0,10.829-4.846,10.829-10.826c0-3.225-1.411-6.117-3.65-8.1
				C325.103,145.584,326.131,148.096,326.131,150.852z"/>
			<path fill="#F3F3F3" d="M315.803,162.604c0.07,0,0.142,0,0.212,0c-5.878-0.115-10.611-4.914-10.611-10.826
				c0-5.98,4.849-10.824,10.825-10.824c5.911,0,10.71,4.73,10.822,10.613c0-0.074,0.007-0.143,0.007-0.215
				c0-6.213-5.036-11.254-11.255-11.254c-6.216,0-11.256,5.041-11.256,11.254C304.547,157.568,309.587,162.604,315.803,162.604z"/>
		</g>
		<g>
			<circle fill="#DFDFDE" cx="291.591" cy="191.277" r="9.071"/>
			<path fill="#BCBCBB" d="M299.886,190.502c0,5.01-4.062,9.068-9.068,9.068c-2.309,0-4.417-0.859-6.019-2.279
				c1.669,1.871,4.092,3.059,6.794,3.059c5.01,0,9.069-4.063,9.069-9.072c0-2.705-1.181-5.127-3.058-6.791
				C299.026,186.088,299.886,188.191,299.886,190.502z"/>
			<path fill="#F3F3F3" d="M291.235,200.35c0.057,0,0.119-0.008,0.178-0.008c-4.93-0.092-8.892-4.113-8.892-9.064
				c0-5.01,4.061-9.07,9.071-9.07c4.952,0,8.972,3.961,9.067,8.891c0-0.059,0.002-0.121,0.002-0.178c0-5.211-4.22-9.434-9.427-9.434
				c-5.211,0-9.429,4.227-9.429,9.434C281.807,196.129,286.024,200.35,291.235,200.35z"/>
		</g>
		<g>
			<path fill="#DFDFDE" d="M301.821,88.682c0-3.383,2.74-6.119,6.12-6.119c3.377,0,6.117,2.736,6.117,6.119
				c0,3.377-2.74,6.117-6.117,6.117C304.562,94.799,301.821,92.059,301.821,88.682z"/>
			<path fill="#BCBCBB" d="M313.536,88.154c0,3.379-2.74,6.119-6.122,6.119c-1.554,0-2.974-0.584-4.054-1.539
				c1.123,1.264,2.756,2.061,4.581,2.061c3.38,0,6.117-2.736,6.117-6.113c0-1.828-0.798-3.465-2.063-4.582
				C312.95,85.18,313.536,86.598,313.536,88.154z"/>
			<path fill="#F3F3F3" d="M307.7,94.795c0.039,0,0.079-0.004,0.118-0.004c-3.321-0.063-5.997-2.775-5.997-6.109
				c0-3.387,2.738-6.121,6.12-6.121c3.335,0,6.047,2.674,6.114,5.994c0-0.041,0.003-0.078,0.003-0.119
				c0-3.51-2.851-6.357-6.358-6.357c-3.514,0-6.359,2.848-6.359,6.357C301.341,91.949,304.186,94.795,307.7,94.795z"/>
		</g>
		<path opacity="0.1" fill="#212121" enable-background="new    " d="M258.917,87.479c48.53,0,90.177,29.438,108.074,71.428
			c0.256-3.043,0.396-6.111,0.396-9.219c0-59.904-48.563-108.467-108.471-108.467c-59.9,0-108.463,48.563-108.463,108.467
			c0,3.107,0.137,6.176,0.39,9.219C168.744,116.916,210.393,87.479,258.917,87.479z"/>
		<path opacity="0.1" fill="#212121" enable-background="new    " d="M258.917,62.789c45.37,0,84.898,24.994,105.582,61.957
			c-11.268-47.879-54.261-83.525-105.582-83.525c-51.317,0-94.311,35.646-105.581,83.525
			C174.025,87.783,213.549,62.789,258.917,62.789z"/>
	</g>
</g>
</svg>
