<?xml version="1.0" encoding="utf-8"?>
<!-- Generator: Adobe Illustrator 16.0.0, SVG Export Plug-In . SVG Version: 6.00 Build 0)  -->
<!DOCTYPE svg PUBLIC "-//W3C//DTD SVG 1.1//EN" "http://www.w3.org/Graphics/SVG/1.1/DTD/svg11.dtd">
<svg version="1.1" id="Warstwa_1" xmlns="http://www.w3.org/2000/svg" xmlns:xlink="http://www.w3.org/1999/xlink" x="0px" y="0px"
	 width="248.446px" height="601.712px" viewBox="0 0 248.446 601.712" enable-background="new 0 0 248.446 601.712"
	 xml:space="preserve">
<g>
	<path fill="#F04E24" d="M248.445,382.541l-48.613-6.061l30.465,129.889l-47.527-50.574l-6.01,127.102l-24.953-67.943
		c0,0,0,0,4.951-6.074c4.945-6.076,22.434-62.203,22.434-62.203l21.664,15.717l-10.074-100.637l19.758-2.658l-25.252-111.179
		c-0.121-5.43-0.262-10.852-0.461-16.244C186.929,235.105,236.806,317.262,248.445,382.541"/>
	<path fill="#DC4528" d="M185.287,247.918l25.252,111.179l-19.758,2.658l10.074,100.637l-21.664-15.717
		c0,0-17.488,56.127-22.434,62.203c-4.951,6.074-4.951,6.074-4.951,6.074l-1.512-4.102c19.551-43.52,33.607-126.738,35.102-222.451
		C185.601,274.902,185.548,261.354,185.287,247.918"/>
	<path fill="#828383" d="M150.294,510.851c-8.434,18.797-17.902,30.166-27.828,31.979c52.594-137.648,47.432-293.115,33.033-402.185
		c6.912-2.178,13.984-5.416,21.082-10.016c4.15,31.057,7.006,65.566,8.244,101.045c0.199,5.393,0.34,10.814,0.461,16.244
		c0.262,13.436,0.314,26.984,0.109,40.482C183.902,384.113,169.845,467.332,150.294,510.851"/>
	<path fill="#DC4528" d="M174.369,115.297c0.77,4.994,1.51,10.125,2.213,15.332c-7.098,4.6-14.17,7.838-21.082,10.016
		c-0.688-5.168-1.385-10.238-2.115-15.186C160.201,123.203,167.228,119.902,174.369,115.297"/>
	<path fill="#828383" d="M127.933,0.501c19.479,0.302,36.119,47.842,46.436,114.795c-7.141,4.605-14.168,7.906-20.984,10.162
		c-1.65-11.402-3.385-22.211-5.146-32.348c2.752-4.059,4.15-8.791,4.207-13.504c0.09-6.311-2.221-12.648-6.963-17.531
		c-1.143-1.174-2.367-2.221-3.678-3.123C134.31,22.298,127.933,0.501,127.933,0.501"/>
	<path fill="#D9D8D7" d="M155.5,140.645c14.398,109.07,19.561,264.537-33.033,402.185l-0.055,0.008l12.16-174.105l-10.299-134.72
		l-14.486,134.322l6.617,171.596c-48.146-138.957-37.93-293.962-20.082-402.039C111.16,143.549,132.496,147.936,155.5,140.645"/>
	<path fill="#F04E24" d="M153.384,125.459c0.73,4.947,1.428,10.018,2.115,15.186c-23.004,7.291-44.34,2.904-59.178-2.754
		c0.758-4.6,1.525-9.117,2.311-13.527C112.353,129.254,131.773,132.607,153.384,125.459"/>
	<path fill="#6A6A6A" d="M152.445,79.607c-0.057,4.713-1.455,9.445-4.207,13.504c-0.238-1.35-0.469-2.691-0.705-4.021
		c1.463-2.941,2.23-6.15,2.293-9.381l0.295,0.02c-0.014,0.563,0.428,1.021,0.996,1.029c0.32,0.01,0.617-0.15,0.805-0.379
		c0.23-0.184,0.383-0.467,0.377-0.785L152.445,79.607z"/>
	<path fill="#6A6A6A" d="M145.457,63.086L145.457,63.086c0.045-0.291-0.037-0.6-0.268-0.83c-0.389-0.41-1.035-0.422-1.432-0.031
		c-0.24,0.242-0.338,0.533-0.293,0.836c-0.045,0.293,0.039,0.594,0.27,0.824c0.383,0.408,1.027,0.414,1.428,0.027
		C145.394,63.688,145.496,63.393,145.457,63.086 M152.445,79.607l-0.146-0.014c0.006-0.545-0.434-1.01-0.99-1.01
		c-0.332-0.02-0.625,0.135-0.811,0.383c-0.23,0.172-0.377,0.455-0.377,0.762l-0.295-0.02c0.105-5.674-1.975-11.396-6.232-15.797
		c-0.32-0.328-0.641-0.639-0.986-0.93c-0.273-1.373-0.543-2.715-0.803-4.029c1.311,0.902,2.535,1.949,3.678,3.123
		C150.224,66.959,152.535,73.297,152.445,79.607z"/>
	<path fill="#939596" d="M152.298,79.594c0.006,0.318-0.146,0.602-0.377,0.785c0.135-0.178,0.217-0.391,0.217-0.621
		c0.02-0.547-0.441-1.008-0.996-1.02c-0.242-0.01-0.479,0.076-0.645,0.229c0.186-0.248,0.479-0.402,0.811-0.383
		C151.865,78.584,152.304,79.049,152.298,79.594"/>
	<path fill="#6A6A6A" d="M152.138,79.758c0,0.23-0.082,0.443-0.217,0.621c-0.174,0.143-0.402,0.229-0.645,0.209
		c-0.568-0.012-1.002-0.459-0.998-1.012c0.016-0.238,0.076-0.443,0.219-0.609c0.166-0.152,0.402-0.238,0.645-0.229
		C151.697,78.75,152.158,79.211,152.138,79.758"/>
	<path fill="#424243" d="M151.277,80.588c0.242,0.02,0.471-0.066,0.645-0.209c-0.188,0.229-0.484,0.389-0.805,0.379
		c-0.568-0.008-1.01-0.467-0.996-1.029c0-0.307,0.146-0.59,0.377-0.762c-0.143,0.166-0.203,0.371-0.219,0.609
		C150.275,80.129,150.708,80.576,151.277,80.588"/>
	<path fill="#424243" d="M143.593,63.912c4.258,4.4,6.338,10.123,6.232,15.797c-0.063,3.23-0.83,6.439-2.293,9.381
		c-0.045-0.291-0.088-0.592-0.158-0.893c3.563-7.822,2.203-17.381-4.16-23.922c-0.127-0.154-0.268-0.297-0.426-0.434
		c-0.051-0.295-0.111-0.576-0.182-0.859C142.953,63.273,143.273,63.584,143.593,63.912"/>
	<path fill="#D9D8D7" d="M148.238,93.111c1.762,10.137,3.496,20.945,5.146,32.348c-21.611,7.148-41.031,3.795-54.752-1.096
		c2.18-12.268,4.42-23.824,6.656-34.594c1.119,2.395,2.627,4.633,4.551,6.639c0.035,0.076,0.082,0.133,0.137,0.184
		c0.059,0.078,0.137,0.127,0.201,0.154c4.721,4.76,10.891,7.178,17.092,7.291c6.184,0.111,12.4-2.08,17.256-6.613
		c0.012-0.006,0.012,0,0.025-0.006c0.053-0.021,0.076-0.059,0.129-0.105c0.023-0.037,0.064-0.057,0.082-0.088
		c0.059-0.039,0.113-0.102,0.172-0.154C146.197,95.838,147.292,94.51,148.238,93.111"/>
	<path fill="#898A8B" d="M147.533,89.09c0.236,1.33,0.467,2.672,0.705,4.021c-0.945,1.398-2.041,2.727-3.305,3.959
		c-0.059,0.053-0.113,0.115-0.172,0.154c0.324-0.385,0.32-0.963-0.047-1.348c-0.229-0.23-0.527-0.313-0.828-0.295
		c-0.293-0.037-0.602,0.059-0.832,0.273c-0.408,0.385-0.42,1.031-0.023,1.432c0.229,0.232,0.521,0.334,0.83,0.303
		c0.229,0.023,0.459-0.02,0.664-0.166c-4.855,4.533-11.072,6.725-17.256,6.613v-0.027c0.563,0.027,1.029-0.424,1.037-0.984
		c0.004-0.318-0.143-0.602-0.352-0.771c-0.193-0.252-0.473-0.422-0.807-0.416l0.014-0.449c5.719,0.156,11.5-1.916,15.945-6.215
		C144.966,93.379,146.453,91.297,147.533,89.09"/>
	<path fill="#406594" d="M143.214,64.275c6.363,6.541,7.723,16.1,4.16,23.922c-1.535-8.662-3.078-16.801-4.586-24.355
		C142.947,63.979,143.087,64.121,143.214,64.275"/>
	<path fill="#424243" d="M147.375,88.197c0.07,0.301,0.113,0.602,0.158,0.893c-1.08,2.207-2.566,4.289-4.426,6.084
		c-4.445,4.299-10.227,6.371-15.945,6.215c-5.57-0.127-11.129-2.375-15.326-6.701c-0.012-0.018-0.029-0.037-0.057-0.057
		c-2.729-2.822-4.537-6.195-5.467-9.756c0.088-0.389,0.172-0.785,0.254-1.188c0.793,3.879,2.684,7.582,5.637,10.643
		c8.309,8.574,21.979,8.791,30.537,0.48C144.744,92.85,146.306,90.613,147.375,88.197"/>
	<path fill="#424243" d="M145.189,62.256c0.23,0.23,0.313,0.539,0.268,0.83c-0.014-0.217-0.113-0.432-0.279-0.6
		c-0.385-0.41-1.023-0.422-1.424-0.02c-0.168,0.16-0.289,0.369-0.289,0.594c-0.045-0.303,0.053-0.594,0.293-0.836
		C144.154,61.834,144.8,61.846,145.189,62.256"/>
	<path fill="#939596" d="M145.457,63.086c0.039,0.307-0.063,0.602-0.295,0.826c-0.4,0.387-1.045,0.381-1.428-0.027
		c-0.23-0.23-0.314-0.531-0.27-0.824c0.02,0.223,0.121,0.443,0.27,0.6c0.375,0.404,1.027,0.41,1.428,0.027
		C145.337,63.52,145.431,63.303,145.457,63.086"/>
	<path fill="#424243" d="M144.714,95.877c0.367,0.385,0.371,0.963,0.047,1.348c-0.07,0.078-0.135,0.141-0.211,0.193
		c-0.014,0.006-0.014,0-0.025,0.006c-0.205,0.146-0.436,0.189-0.664,0.166c0.215-0.027,0.42-0.117,0.6-0.283
		c0.396-0.391,0.414-1.027,0.012-1.438c-0.152-0.16-0.369-0.262-0.586-0.287C144.187,95.564,144.486,95.646,144.714,95.877"/>
	<path fill="#6A6A6A" d="M145.177,62.486c0.166,0.168,0.266,0.383,0.279,0.6c-0.025,0.217-0.119,0.434-0.295,0.602
		c-0.4,0.383-1.053,0.377-1.428-0.027c-0.148-0.156-0.25-0.377-0.27-0.6c0-0.225,0.121-0.434,0.289-0.594
		C144.154,62.064,144.792,62.076,145.177,62.486"/>
	<path fill="#424243" d="M144.761,97.225c-0.018,0.031-0.059,0.051-0.082,0.088c-0.053,0.047-0.076,0.084-0.129,0.105
		C144.626,97.365,144.691,97.303,144.761,97.225"/>
	<path fill="#939596" d="M144.472,95.869c0.402,0.41,0.385,1.047-0.012,1.438c-0.18,0.166-0.385,0.256-0.6,0.283
		c-0.23-0.033-0.445-0.129-0.602-0.303c-0.389-0.395-0.383-1.041,0.025-1.418c0.166-0.178,0.385-0.271,0.602-0.287
		C144.103,95.607,144.32,95.709,144.472,95.869"/>
	<path fill="#939596" d="M143.054,95.855c0.23-0.215,0.539-0.311,0.832-0.273c-0.217,0.016-0.436,0.109-0.602,0.287
		c-0.408,0.377-0.414,1.023-0.025,1.418c0.156,0.174,0.371,0.27,0.602,0.303c-0.309,0.031-0.602-0.07-0.83-0.303
		C142.634,96.887,142.646,96.24,143.054,95.855"/>
	<path fill="#406594" d="M147.375,88.197c-1.068,2.416-2.631,4.652-4.635,6.613c-8.559,8.311-22.229,8.094-30.537-0.48
		c-2.953-3.061-4.844-6.764-5.637-10.643c1.291-6.041,2.58-11.818,3.84-17.291c0.678-0.908,1.424-1.783,2.281-2.607
		c8.42-8.156,21.771-8.094,30.102,0.053C144.296,71.396,145.839,79.535,147.375,88.197"/>
	<path fill="#424243" d="M142.607,62.982c0.07,0.283,0.131,0.564,0.182,0.859c-8.33-8.146-21.682-8.209-30.102-0.053
		c-0.857,0.824-1.604,1.699-2.281,2.607c0.084-0.404,0.174-0.791,0.264-1.172c0.516-0.629,1.057-1.217,1.66-1.801
		c4.369-4.24,10.053-6.305,15.688-6.229C133.269,57.262,138.48,59.201,142.607,62.982"/>
	<path fill="#898A8B" d="M141.804,58.953c0.26,1.314,0.529,2.656,0.803,4.029c-4.127-3.781-9.338-5.721-14.59-5.787v-0.17
		c0.563,0.012,1.01-0.447,1.023-0.99c0-0.322-0.146-0.613-0.379-0.801c-0.17-0.24-0.453-0.395-0.777-0.395v-0.275
		C132.759,54.578,137.63,56.059,141.804,58.953"/>
	<polygon fill="#DC4528" points="124.273,234.012 134.572,368.732 122.412,542.837 122.396,542.849 118.603,597.146 	"/>
	<path fill="#D9D8D7" d="M141.804,58.953c-4.174-2.895-9.045-4.375-13.92-4.389c-5.703-0.051-11.447,1.873-16.078,5.787
		c8.822-37.518,16.127-59.85,16.127-59.85S134.31,22.298,141.804,58.953"/>
	<path fill="#939596" d="M128.662,55.234c0.232,0.188,0.379,0.479,0.379,0.801c-0.014,0.543-0.461,1.002-1.023,0.99
		c-0.332-0.008-0.611-0.168-0.791-0.416c0.166,0.16,0.389,0.248,0.631,0.248c0.557,0.012,1.018-0.438,1.029-0.988
		C128.886,55.627,128.81,55.408,128.662,55.234"/>
	<path fill="#939596" d="M127.955,102.254c0.209,0.17,0.355,0.453,0.352,0.771c-0.008,0.561-0.475,1.012-1.037,0.984
		c-0.324,0-0.605-0.168-0.785-0.396c0.168,0.146,0.383,0.229,0.639,0.242c0.551,0.014,1.023-0.453,1.029-0.988
		C128.152,102.623,128.068,102.41,127.955,102.254"/>
	<path fill="#939596" d="M128.662,55.234c0.148,0.174,0.225,0.393,0.225,0.635c-0.012,0.551-0.473,1-1.029,0.988
		c-0.242,0-0.465-0.088-0.631-0.248c-0.141-0.158-0.205-0.377-0.219-0.613c0.018-0.549,0.475-1.002,1.041-1.002
		C128.285,55,128.509,55.082,128.662,55.234"/>
	<path fill="#939596" d="M127.955,102.254c0.113,0.156,0.197,0.369,0.197,0.613c-0.006,0.535-0.479,1.002-1.029,0.988
		c-0.256-0.014-0.471-0.096-0.639-0.242c-0.135-0.168-0.211-0.383-0.211-0.613c0.02-0.563,0.479-1.008,1.043-0.998
		C127.544,101.996,127.775,102.084,127.955,102.254"/>
	<path fill="#424243" d="M128.662,55.234c-0.152-0.152-0.377-0.234-0.613-0.24c-0.566,0-1.023,0.453-1.041,1.002
		c0.014,0.236,0.078,0.455,0.219,0.613c-0.23-0.178-0.371-0.467-0.371-0.787c0.012-0.541,0.467-0.998,1.029-0.982
		C128.208,54.84,128.492,54.994,128.662,55.234"/>
	<path fill="#424243" d="M127.955,102.254c-0.18-0.17-0.41-0.258-0.639-0.252c-0.564-0.01-1.023,0.436-1.043,0.998
		c0,0.23,0.076,0.445,0.211,0.613c-0.229-0.197-0.375-0.467-0.361-0.781c0.004-0.563,0.471-1.016,1.025-0.994
		C127.482,101.832,127.761,102.002,127.955,102.254"/>
	<path fill="#898A8B" d="M128.017,57.025v0.17c-5.635-0.076-11.318,1.988-15.688,6.229c-0.604,0.584-1.145,1.172-1.66,1.801
		c0.102-0.469,0.209-0.936,0.322-1.391c0.039,0.008,0.092,0.008,0.156-0.008c0.285,0.047,0.605-0.057,0.822-0.273
		c0.396-0.389,0.404-1.021,0.025-1.43c-0.152-0.154-0.342-0.242-0.549-0.283c0.115-0.504,0.236-0.996,0.359-1.488
		c4.631-3.914,10.375-5.838,16.078-5.787v0.275c-0.563-0.016-1.018,0.441-1.029,0.982c0,0.32,0.141,0.609,0.371,0.787
		C127.406,56.857,127.685,57.018,128.017,57.025"/>
	<path fill="#898A8B" d="M127.269,104.01v0.027c-6.201-0.113-12.371-2.531-17.092-7.291c0.389,0.25,0.887,0.197,1.232-0.115
		c0.223-0.223,0.324-0.531,0.279-0.824c0.064-0.295-0.035-0.609-0.256-0.842l0.346-0.334c0.027,0.02,0.045,0.039,0.057,0.057
		c4.197,4.326,9.756,6.574,15.326,6.701l-0.014,0.449c-0.555-0.021-1.021,0.432-1.025,0.994c-0.014,0.314,0.133,0.584,0.361,0.781
		C126.664,103.842,126.945,104.01,127.269,104.01"/>
	<polygon fill="#F04E24" points="124.273,234.012 118.603,597.146 116.505,542.744 116.505,542.744 116.404,539.943 
		116.404,539.929 109.787,368.333 	"/>
	<path fill="#D9D8D7" d="M116.404,539.943l0.102,2.801h-0.043c-5.916-1.26-11.582-5.975-16.848-13.666
		C75.789,494.3,59.763,398.697,61.513,286.465c0.102-7.039,0.285-14.08,0.541-21.102c0.168-4.977,0.363-9.932,0.594-14.875
		c2.102-43.363,6.619-85.92,12.912-123.258c0,0,7.961,5.787,20.762,10.66c-17.848,108.076-28.064,263.082,20.082,402.039V539.943z"
		/>
	<path fill="#898A8B" d="M111.779,94.631l-0.346,0.334c-0.396-0.396-1.033-0.418-1.416-0.021c-0.25,0.23-0.352,0.531-0.307,0.824
		c-0.045,0.219,0.008,0.461,0.129,0.641c-1.924-2.006-3.432-4.244-4.551-6.639c0.332-1.648,0.678-3.277,1.023-4.895
		C107.242,88.436,109.05,91.809,111.779,94.631"/>
	<path fill="#424243" d="M111.433,94.965c0.221,0.232,0.32,0.547,0.256,0.842c0-0.225-0.102-0.443-0.262-0.611
		c-0.396-0.398-1.027-0.418-1.424-0.021c-0.164,0.16-0.283,0.383-0.293,0.594c-0.045-0.293,0.057-0.594,0.307-0.824
		C110.4,94.547,111.037,94.568,111.433,94.965"/>
	<path fill="#939596" d="M111.689,95.807c0.045,0.293-0.057,0.602-0.279,0.824c-0.346,0.313-0.844,0.365-1.232,0.115
		c-0.08-0.059-0.16-0.146-0.227-0.213c-0.049-0.049-0.076-0.07-0.111-0.125c-0.121-0.18-0.174-0.422-0.129-0.641
		c0.01,0.223,0.109,0.438,0.273,0.607c0.391,0.398,1.029,0.408,1.43,0.025C111.574,96.232,111.677,96.023,111.689,95.807"/>
	<path fill="#424243" d="M111.996,62.123c0.379,0.408,0.371,1.041-0.025,1.43c-0.217,0.217-0.537,0.32-0.822,0.273
		c0.223-0.02,0.426-0.105,0.592-0.273c0.402-0.385,0.41-1.021,0.025-1.43c-0.088-0.104-0.203-0.174-0.332-0.213
		c0-0.012,0.014-0.043,0.014-0.07C111.654,61.881,111.843,61.969,111.996,62.123"/>
	<path fill="#939596" d="M111.427,95.195c0.16,0.168,0.262,0.387,0.262,0.611c-0.012,0.217-0.115,0.426-0.275,0.594
		c-0.4,0.383-1.039,0.373-1.43-0.025c-0.164-0.17-0.264-0.385-0.273-0.607c0.01-0.211,0.129-0.434,0.293-0.594
		C110.4,94.777,111.031,94.797,111.427,95.195"/>
	<path fill="#D9D8D7" d="M127.933,0.501c0,0-7.305,22.332-16.127,59.85c-0.467,0.373-0.883,0.76-1.316,1.17
		c-4.92,4.785-7.443,11.113-7.527,17.471c-0.037,3.668,0.729,7.375,2.326,10.777c-2.236,10.77-4.477,22.326-6.656,34.594
		c-12.84-4.607-20.697-10.582-20.697-10.582C90.33,47.18,108.439,0.188,127.933,0.501"/>
	<path fill="#939596" d="M111.765,62.123c0.385,0.408,0.377,1.045-0.025,1.43c-0.166,0.168-0.369,0.254-0.592,0.273
		c-0.059,0-0.104,0-0.148-0.037c0.154-0.625,0.281-1.258,0.434-1.879C111.562,61.949,111.677,62.02,111.765,62.123"/>
	<path fill="#898A8B" d="M111.806,60.352c-0.123,0.492-0.244,0.984-0.359,1.488c-0.1-0.012-0.178-0.025-0.268-0.006
		c-0.301-0.043-0.613,0.051-0.842,0.27c-0.404,0.391-0.41,1.033-0.016,1.432c0.178,0.186,0.422,0.291,0.67,0.299
		c-0.113,0.455-0.221,0.922-0.322,1.391c-3.273,3.945-4.984,8.783-5.074,13.66l-0.287-0.02c0.012-0.549-0.441-1.021-1.002-1.021
		c-0.322-0.014-0.59,0.141-0.779,0.363c-0.25,0.174-0.396,0.467-0.404,0.791l-0.16-0.006c0.084-6.357,2.607-12.686,7.527-17.471
		C110.923,61.111,111.339,60.725,111.806,60.352"/>
	<path fill="#424243" d="M111.179,61.834c0.09-0.02,0.168-0.006,0.268,0.006c0,0.027-0.014,0.059-0.014,0.07
		C111.347,61.867,111.269,61.855,111.179,61.834"/>
	<path fill="#939596" d="M111.433,61.91c-0.152,0.621-0.279,1.254-0.434,1.879c-0.18-0.039-0.318-0.129-0.459-0.248
		c-0.383-0.404-0.371-1.037,0.014-1.438c0.189-0.154,0.393-0.258,0.625-0.27C111.269,61.855,111.347,61.867,111.433,61.91"/>
	<path fill="#939596" d="M110.337,62.104c0.229-0.219,0.541-0.313,0.842-0.27c-0.232,0.012-0.436,0.115-0.625,0.27
		c-0.385,0.4-0.396,1.033-0.014,1.438c0.141,0.119,0.279,0.209,0.459,0.248c-0.012,0.014-0.012,0.014-0.008,0.045
		c-0.248-0.008-0.492-0.113-0.67-0.299C109.927,63.137,109.933,62.494,110.337,62.104"/>
	<path fill="#939596" d="M111.148,63.826c-0.064,0.016-0.117,0.016-0.156,0.008c-0.004-0.031-0.004-0.031,0.008-0.045
		C111.044,63.826,111.089,63.826,111.148,63.826"/>
	<path fill="#939596" d="M109.951,96.533c0.066,0.066,0.146,0.154,0.227,0.213c-0.064-0.027-0.143-0.076-0.201-0.154
		c-0.055-0.051-0.102-0.107-0.137-0.184C109.875,96.463,109.902,96.484,109.951,96.533"/>
	<path fill="#424243" d="M110.669,65.225c-0.09,0.381-0.18,0.768-0.264,1.172c-3.787,5.047-5.059,11.365-3.84,17.291
		c-0.082,0.402-0.166,0.799-0.254,1.188c-0.512-1.961-0.736-3.98-0.717-5.99C105.685,74.008,107.396,69.17,110.669,65.225"/>
	<path fill="#406594" d="M110.406,66.396c-1.26,5.473-2.549,11.25-3.84,17.291C105.347,77.762,106.619,71.443,110.406,66.396"/>
	<path fill="#DC4528" d="M99.615,529.078l-1.568,4.42c0,0,0,0-5.023-6.023c-4.988-6.02-23.104-61.965-23.104-61.965l-21.484,15.965
		l9.021-100.766l-19.793-2.428l24.391-112.917c-0.256,7.021-0.439,14.063-0.541,21.102C59.763,398.697,75.789,494.3,99.615,529.078"
		/>
	<path fill="#898A8B" d="M106.312,84.875c-0.346,1.617-0.691,3.246-1.023,4.895c-1.598-3.402-2.363-7.109-2.326-10.777l0.16,0.006
		c-0.006,0.564,0.436,1.018,0.998,1.023c0.326,0.014,0.619-0.148,0.811-0.391c0.217-0.172,0.377-0.459,0.377-0.766l0.287,0.02
		C105.576,80.895,105.8,82.914,106.312,84.875"/>
	<path fill="#F04E24" d="M98.046,533.498l-24.23,68.215l-7.354-127.041L19.47,525.755l29.068-130.215L0,402.138
		c11.182-66.83,62.072-151.675,62.072-151.675l0.576,0.025c-0.23,4.943-0.426,9.898-0.594,14.875L37.664,378.281l19.793,2.428
		l-9.021,100.766l21.484-15.965c0,0,18.115,55.945,23.104,61.965C98.046,533.498,98.046,533.498,98.046,533.498"/>
	<path fill="#939596" d="M105.308,78.865c0,0.307-0.16,0.594-0.377,0.766c0.129-0.16,0.217-0.377,0.217-0.605
		c0.008-0.549-0.447-1.016-1.01-1.021c-0.229,0-0.447,0.076-0.611,0.203c0.189-0.223,0.457-0.377,0.779-0.363
		C104.867,77.844,105.32,78.316,105.308,78.865"/>
	<path fill="#939596" d="M105.148,79.025c0,0.229-0.088,0.445-0.217,0.605c-0.18,0.141-0.4,0.229-0.658,0.229
		c-0.557-0.004-0.99-0.469-0.979-1.031c0-0.23,0.09-0.443,0.232-0.621c0.164-0.127,0.383-0.203,0.611-0.203
		C104.701,78.01,105.156,78.477,105.148,79.025"/>
	<path fill="#424243" d="M104.273,79.859c0.258,0,0.479-0.088,0.658-0.229c-0.191,0.242-0.484,0.404-0.811,0.391
		c-0.563-0.006-1.004-0.459-0.998-1.023c0.008-0.324,0.154-0.617,0.404-0.791c-0.143,0.178-0.232,0.391-0.232,0.621
		C103.283,79.391,103.716,79.855,104.273,79.859"/>
	<path fill="#DC4528" d="M98.632,124.363c-0.785,4.41-1.553,8.928-2.311,13.527c-12.801-4.873-20.762-10.66-20.762-10.66
		c0.766-4.563,1.559-9.047,2.375-13.449C77.935,113.781,85.792,119.756,98.632,124.363"/>
	<path fill="none" stroke="#231F20" stroke-width="1.0001" stroke-miterlimit="10" d="M116.462,542.744
		c-5.916-1.26-11.582-5.975-16.848-13.666C75.789,494.3,59.763,398.697,61.513,286.465c0.102-7.039,0.285-14.08,0.541-21.102
		c0.168-4.977,0.363-9.932,0.594-14.875c2.102-43.363,6.619-85.92,12.912-123.258c0.766-4.563,1.559-9.047,2.375-13.449
		C90.33,47.18,108.439,0.188,127.933,0.501c19.479,0.302,36.119,47.842,46.436,114.795c0.77,4.994,1.51,10.125,2.213,15.332
		c4.15,31.057,7.006,65.566,8.244,101.045c0.199,5.393,0.34,10.814,0.461,16.244c0.262,13.436,0.314,26.984,0.109,40.482
		c-1.494,95.712-15.551,178.931-35.102,222.451c-8.434,18.797-17.902,30.166-27.828,31.979"/>
	<path fill="none" stroke="#231F20" stroke-width="1.0001" stroke-miterlimit="10" d="M77.935,113.781
		c0,0,7.857,5.975,20.697,10.582c13.721,4.891,33.141,8.244,54.752,1.096c6.816-2.256,13.844-5.557,20.984-10.162"/>
	<path fill="none" stroke="#231F20" stroke-width="1.0001" stroke-miterlimit="10" d="M75.56,127.23c0,0,7.961,5.787,20.762,10.66
		c14.838,5.658,36.174,10.045,59.178,2.754c6.912-2.178,13.984-5.416,21.082-10.016"/>
</g>
</svg>
