<?xml version="1.0" encoding="utf-8"?>
<!-- Generator: Adobe Illustrator 16.0.0, SVG Export Plug-In . SVG Version: 6.00 Build 0)  -->
<!DOCTYPE svg PUBLIC "-//W3C//DTD SVG 1.1//EN" "http://www.w3.org/Graphics/SVG/1.1/DTD/svg11.dtd">
<svg version="1.1" id="Warstwa_1" xmlns="http://www.w3.org/2000/svg" xmlns:xlink="http://www.w3.org/1999/xlink" x="0px" y="0px"
	 width="264.76px" height="593.472px" viewBox="-8.157 4.12 264.76 593.472" enable-background="new -8.157 4.12 264.76 593.472"
	 xml:space="preserve">
<g>
	<g>
		<polygon fill="#2D292A" points="149.808,535.678 98.364,535.678 85.597,569.227 162.569,569.227 		"/>
	</g>
	<path fill="#F04E24" d="M60.185,443.78c0,0-67.462,33.402-68.342,134.41c0,0,1.95,27.902,7.221,16.785
		c24.918-52.56,70.08-59.176,70.08-59.176L60.185,443.78z"/>
	<path fill="#F04E24" d="M188.253,443.78c0,0,67.467,33.402,68.35,134.41c0,0-1.949,27.902-7.22,16.785
		c-24.921-52.56-70.086-59.176-70.086-59.176L188.253,443.78z"/>
	<g>
		<polygon fill="#BDC6C9" points="38.576,188.089 77.292,179.638 124.221,175.131 171.151,179.638 209.865,188.089 189.987,432.606 
			160.321,427.078 124.221,423.339 88.382,427.042 58.461,432.606 		"/>
		<path fill="#BDC6C9" d="M124.221,178.515l46.407,4.459l35.643,7.776l-19.34,237.861l-25.988-4.844l-0.271-0.047l-0.272-0.027
			l-35.483-3.672l-0.694-0.074l-0.696,0.074l-35.488,3.672l-0.273,0.027l-0.271,0.047l-25.976,4.844L42.171,190.75l35.641-7.776
			L124.221,178.515 M124.221,171.748l-47.452,4.559l-41.787,9.121l20.427,251.171l33.319-6.207l35.493-3.672l35.485,3.672
			l33.332,6.207l20.422-251.171l-41.788-9.121L124.221,171.748L124.221,171.748z"/>
	</g>
	<polygon fill="#FFFFFF" points="124.221,171.748 76.769,176.306 88.728,430.391 124.221,426.719 159.706,430.391 171.672,176.306 	
		"/>
	<polygon fill="#2D292A" points="124.221,426.719 88.541,430.427 95.142,540.08 124.221,537.328 153.298,540.08 159.89,430.391 	"/>
	<g>
		<path fill="#B33C1D" d="M76.769,176.306L124.221,4.12c0,0-89.239,120.4-89.239,181.308L76.769,176.306z"/>
		<path fill="#B33C1D" d="M124.221,4.12l47.451,172.187l41.788,9.121C213.46,124.521,124.221,4.12,124.221,4.12z"/>
	</g>
	<path fill="#DF4C26" d="M124.221,4.12c0,0-47.452,111.275-47.452,172.187l47.452-4.559l47.451,4.559
		C171.672,115.396,124.221,4.12,124.221,4.12z"/>
	<g>
		<path fill="#DF4C26" d="M124.221,196.142c-34.833,0-63.068,28.238-63.068,63.07c0,34.833,28.235,63.066,63.068,63.066
			c34.833,0,63.067-28.233,63.067-63.066C187.288,224.38,159.054,196.142,124.221,196.142z M124.221,303.333
			c-24.362,0-44.117-19.757-44.117-44.12c0-24.367,19.755-44.124,44.117-44.124c24.367,0,44.124,19.756,44.124,44.124
			C168.344,283.576,148.588,303.333,124.221,303.333z"/>
		<path fill="#CDC8C1" d="M124.221,209.165c-27.641,0-50.048,22.404-50.048,50.048c0,27.64,22.407,50.044,50.048,50.044
			c27.644,0,50.055-22.404,50.055-50.044C174.276,231.57,151.865,209.165,124.221,209.165z M124.221,303.333
			c-24.362,0-44.117-19.757-44.117-44.12c0-24.367,19.755-44.124,44.117-44.124c24.367,0,44.124,19.756,44.124,44.124
			C168.344,283.576,148.588,303.333,124.221,303.333z"/>
		<path fill="#406594" d="M168.344,259.213c0,24.363-19.756,44.12-44.123,44.12c-24.362,0-44.117-19.757-44.117-44.12
			c0-24.367,19.755-44.124,44.117-44.124C148.588,215.089,168.344,234.845,168.344,259.213z"/>
		<g>
			<path fill="#CFCBC7" d="M90.96,288.181c-6.757-7.753-10.856-17.879-10.856-28.968c0-24.367,19.755-44.124,44.117-44.124
				c11.09,0,21.215,4.1,28.963,10.855c-8.084-9.279-19.983-15.15-33.267-15.15c-24.36,0-44.113,19.756-44.113,44.12
				C75.804,268.186,81.673,280.092,90.96,288.181z"/>
			<path fill="#CFCBC7" d="M166.615,212.512c10.172,11.198,16.374,26.074,16.374,42.402c0,34.824-28.239,63.063-63.072,63.063
				c-16.316,0-31.194-6.19-42.388-16.369c11.537,12.693,28.183,20.672,46.691,20.672c34.833,0,63.067-28.233,63.067-63.066
				C187.288,240.7,179.319,224.049,166.615,212.512z"/>
		</g>
		<path fill="#FFFFFF" d="M90.605,287.769l77.537-32.672c-0.781-8.502-3.982-16.3-8.904-22.718l-78.676,33.159
			C81.77,273.945,85.347,281.589,90.605,287.769z"/>
		<path fill="#FFFFFF" d="M141.347,218.539l-58.18,24.516c-1.967,5.001-3.063,10.451-3.063,16.158c0,0.515,0.017,1.041,0.042,1.56
			l75.975-32.022C151.979,224.408,146.952,220.899,141.347,218.539z"/>
		<g>
			<path fill="#EEEEF7" d="M160.659,214.813c-11.602-8.378-25.881-12.457-39.719-11.229c-13.815,1.158-27.04,7.379-36.501,17.368
				c-9.603,9.854-15.306,23.303-15.917,37.154c-0.669,13.87,3.934,27.984,12.754,39.256c-5.135-5.007-9.138-11.197-12-17.889
				c-2.744-6.733-4.151-14.116-4.234-21.437c-0.211-14.766,5.828-29.53,16.137-40.222c10.279-10.717,24.795-17.326,39.562-17.692
				c7.348-0.197,14.724,0.892,21.576,3.391C149.116,206.12,155.451,209.881,160.659,214.813z"/>
		</g>
	</g>
	<g>
		<polygon fill="#B33C1D" points="55.408,436.598 66.942,547.733 95.142,540.08 88.728,430.391 		"/>
		<polygon fill="#B33C1D" points="159.706,430.391 153.298,540.08 181.498,547.733 193.038,436.598 		"/>
	</g>
	<rect x="88.541" y="569.227" fill="#CFCBC7" width="71.349" height="4.13"/>
</g>
<polygon fill="#DF4C26" points="124.221,426.719 88.541,430.427 95.142,540.08 124.221,537.328 153.298,540.08 159.89,430.391 "/>
<g>
	<g>
		<polygon fill="#2D292A" points="149.808,535.678 98.364,535.678 85.597,569.227 162.569,569.227 		"/>
	</g>
	<path fill="#F04E24" d="M60.185,443.78c0,0-67.462,33.402-68.342,134.41c0,0,1.95,27.902,7.221,16.785
		c24.918-52.56,70.08-59.176,70.08-59.176L60.185,443.78z"/>
	<path fill="#F04E24" d="M188.253,443.78c0,0,67.467,33.402,68.35,134.41c0,0-1.949,27.902-7.22,16.785
		c-24.921-52.56-70.086-59.176-70.086-59.176L188.253,443.78z"/>
	<g>
		<polygon fill="#BDC6C9" points="38.576,188.089 77.292,179.638 124.221,175.131 171.151,179.638 209.865,188.089 189.987,432.606 
			160.321,427.078 124.221,423.339 88.382,427.042 58.461,432.606 		"/>
		<path fill="#BDC6C9" d="M124.221,178.515l46.407,4.459l35.643,7.776l-19.34,237.861l-25.988-4.844l-0.271-0.047l-0.272-0.027
			l-35.483-3.672l-0.694-0.074l-0.696,0.074l-35.488,3.672l-0.273,0.027l-0.271,0.047l-25.976,4.844L42.171,190.75l35.641-7.776
			L124.221,178.515 M124.221,171.748l-47.452,4.559l-41.787,9.121l20.427,251.171l33.319-6.207l35.493-3.672l35.485,3.672
			l33.332,6.207l20.422-251.171l-41.788-9.121L124.221,171.748L124.221,171.748z"/>
	</g>
	<polygon fill="#FFFFFF" points="124.221,171.748 76.769,176.306 88.728,430.391 124.221,426.719 159.706,430.391 171.672,176.306 	
		"/>
	<polygon fill="#2D292A" points="124.221,426.719 88.541,430.427 95.142,540.08 124.221,537.328 153.298,540.08 159.89,430.391 	"/>
	<g>
		<path fill="#B33C1D" d="M76.769,176.306L124.221,4.12c0,0-89.239,120.4-89.239,181.308L76.769,176.306z"/>
		<path fill="#B33C1D" d="M124.221,4.12l47.451,172.187l41.788,9.121C213.46,124.521,124.221,4.12,124.221,4.12z"/>
	</g>
	<path fill="#DF4C26" d="M124.221,4.12c0,0-47.452,111.275-47.452,172.187l47.452-4.559l47.451,4.559
		C171.672,115.396,124.221,4.12,124.221,4.12z"/>
	<g>
		<path fill="#DF4C26" d="M124.221,196.142c-34.833,0-63.068,28.238-63.068,63.07c0,34.833,28.235,63.066,63.068,63.066
			c34.833,0,63.067-28.233,63.067-63.066C187.288,224.38,159.054,196.142,124.221,196.142z M124.221,303.333
			c-24.362,0-44.117-19.757-44.117-44.12c0-24.367,19.755-44.124,44.117-44.124c24.367,0,44.124,19.756,44.124,44.124
			C168.344,283.576,148.588,303.333,124.221,303.333z"/>
		<path fill="#CDC8C1" d="M124.221,209.165c-27.641,0-50.048,22.404-50.048,50.048c0,27.64,22.407,50.044,50.048,50.044
			c27.644,0,50.055-22.404,50.055-50.044C174.276,231.57,151.865,209.165,124.221,209.165z M124.221,303.333
			c-24.362,0-44.117-19.757-44.117-44.12c0-24.367,19.755-44.124,44.117-44.124c24.367,0,44.124,19.756,44.124,44.124
			C168.344,283.576,148.588,303.333,124.221,303.333z"/>
		<path fill="#406594" d="M168.344,259.213c0,24.363-19.756,44.12-44.123,44.12c-24.362,0-44.117-19.757-44.117-44.12
			c0-24.367,19.755-44.124,44.117-44.124C148.588,215.089,168.344,234.845,168.344,259.213z"/>
		<g>
			<path fill="#CFCBC7" d="M90.96,288.181c-6.757-7.753-10.856-17.879-10.856-28.968c0-24.367,19.755-44.124,44.117-44.124
				c11.09,0,21.215,4.1,28.963,10.855c-8.084-9.279-19.983-15.15-33.267-15.15c-24.36,0-44.113,19.756-44.113,44.12
				C75.804,268.186,81.673,280.092,90.96,288.181z"/>
			<path fill="#CFCBC7" d="M166.615,212.512c10.172,11.198,16.374,26.074,16.374,42.402c0,34.824-28.239,63.063-63.072,63.063
				c-16.316,0-31.194-6.19-42.388-16.369c11.537,12.693,28.183,20.672,46.691,20.672c34.833,0,63.067-28.233,63.067-63.066
				C187.288,240.7,179.319,224.049,166.615,212.512z"/>
		</g>
		<path fill="#FFFFFF" d="M90.605,287.769l77.537-32.672c-0.781-8.502-3.982-16.3-8.904-22.718l-78.676,33.159
			C81.77,273.945,85.347,281.589,90.605,287.769z"/>
		<path fill="#FFFFFF" d="M141.347,218.539l-58.18,24.516c-1.967,5.001-3.063,10.451-3.063,16.158c0,0.515,0.017,1.041,0.042,1.56
			l75.975-32.022C151.979,224.408,146.952,220.899,141.347,218.539z"/>
		<g>
			<path fill="#EEEEF7" d="M160.659,214.813c-11.602-8.378-25.881-12.457-39.719-11.229c-13.815,1.158-27.04,7.379-36.501,17.368
				c-9.603,9.854-15.306,23.303-15.917,37.154c-0.669,13.87,3.934,27.984,12.754,39.256c-5.135-5.007-9.138-11.197-12-17.889
				c-2.744-6.733-4.151-14.116-4.234-21.437c-0.211-14.766,5.828-29.53,16.137-40.222c10.279-10.717,24.795-17.326,39.562-17.692
				c7.348-0.197,14.724,0.892,21.576,3.391C149.116,206.12,155.451,209.881,160.659,214.813z"/>
		</g>
	</g>
	<g>
		<polygon fill="#B33C1D" points="55.408,436.598 66.942,547.733 95.142,540.08 88.728,430.391 		"/>
		<polygon fill="#B33C1D" points="159.706,430.391 153.298,540.08 181.498,547.733 193.038,436.598 		"/>
	</g>
	<rect x="88.541" y="569.227" fill="#CFCBC7" width="71.349" height="4.13"/>
</g>
<polygon fill="#DF4C26" points="124.221,426.719 88.541,430.427 95.142,540.08 124.221,537.328 153.298,540.08 159.89,430.391 "/>
<g>
	<g>
		<polygon fill="#2D292A" points="149.808,535.678 98.364,535.678 85.597,569.227 162.569,569.227 		"/>
	</g>
	<path fill="#F04E24" d="M60.185,443.78c0,0-67.462,33.402-68.342,134.41c0,0,1.95,27.902,7.221,16.785
		c24.918-52.56,70.08-59.176,70.08-59.176L60.185,443.78z"/>
	<path fill="#F04E24" d="M188.253,443.78c0,0,67.467,33.402,68.35,134.41c0,0-1.949,27.902-7.22,16.785
		c-24.921-52.56-70.086-59.176-70.086-59.176L188.253,443.78z"/>
	<g>
		<polygon fill="#BDC6C9" points="38.576,188.089 77.292,179.638 124.221,175.131 171.151,179.638 209.865,188.089 189.987,432.606 
			160.321,427.078 124.221,423.339 88.382,427.042 58.461,432.606 		"/>
		<path fill="#BDC6C9" d="M124.221,178.515l46.407,4.459l35.643,7.776l-19.34,237.861l-25.988-4.844l-0.271-0.047l-0.272-0.027
			l-35.483-3.672l-0.694-0.074l-0.696,0.074l-35.488,3.672l-0.273,0.027l-0.271,0.047l-25.976,4.844L42.171,190.75l35.641-7.776
			L124.221,178.515 M124.221,171.748l-47.452,4.559l-41.787,9.121l20.427,251.171l33.319-6.207l35.493-3.672l35.485,3.672
			l33.332,6.207l20.422-251.171l-41.788-9.121L124.221,171.748L124.221,171.748z"/>
	</g>
	<polygon fill="#FFFFFF" points="124.221,171.748 76.769,176.306 88.728,430.391 124.221,426.719 159.706,430.391 171.672,176.306 	
		"/>
	<polygon fill="#2D292A" points="124.221,426.719 88.541,430.427 95.142,540.08 124.221,537.328 153.298,540.08 159.89,430.391 	"/>
	<g>
		<path fill="#B33C1D" d="M76.769,176.306L124.221,4.12c0,0-89.239,120.4-89.239,181.308L76.769,176.306z"/>
		<path fill="#B33C1D" d="M124.221,4.12l47.451,172.187l41.788,9.121C213.46,124.521,124.221,4.12,124.221,4.12z"/>
	</g>
	<path fill="#DF4C26" d="M124.221,4.12c0,0-47.452,111.275-47.452,172.187l47.452-4.559l47.451,4.559
		C171.672,115.396,124.221,4.12,124.221,4.12z"/>
	<g>
		<path fill="#DF4C26" d="M124.221,196.142c-34.833,0-63.068,28.238-63.068,63.07c0,34.833,28.235,63.066,63.068,63.066
			c34.833,0,63.067-28.233,63.067-63.066C187.288,224.38,159.054,196.142,124.221,196.142z M124.221,303.333
			c-24.362,0-44.117-19.757-44.117-44.12c0-24.367,19.755-44.124,44.117-44.124c24.367,0,44.124,19.756,44.124,44.124
			C168.344,283.576,148.588,303.333,124.221,303.333z"/>
		<path fill="#CDC8C1" d="M124.221,209.165c-27.641,0-50.048,22.404-50.048,50.048c0,27.64,22.407,50.044,50.048,50.044
			c27.644,0,50.055-22.404,50.055-50.044C174.276,231.57,151.865,209.165,124.221,209.165z M124.221,303.333
			c-24.362,0-44.117-19.757-44.117-44.12c0-24.367,19.755-44.124,44.117-44.124c24.367,0,44.124,19.756,44.124,44.124
			C168.344,283.576,148.588,303.333,124.221,303.333z"/>
		<path fill="#406594" d="M168.344,259.213c0,24.363-19.756,44.12-44.123,44.12c-24.362,0-44.117-19.757-44.117-44.12
			c0-24.367,19.755-44.124,44.117-44.124C148.588,215.089,168.344,234.845,168.344,259.213z"/>
		<g>
			<path fill="#CFCBC7" d="M90.96,288.181c-6.757-7.753-10.856-17.879-10.856-28.968c0-24.367,19.755-44.124,44.117-44.124
				c11.09,0,21.215,4.1,28.963,10.855c-8.084-9.279-19.983-15.15-33.267-15.15c-24.36,0-44.113,19.756-44.113,44.12
				C75.804,268.186,81.673,280.092,90.96,288.181z"/>
			<path fill="#CFCBC7" d="M166.615,212.512c10.172,11.198,16.374,26.074,16.374,42.402c0,34.824-28.239,63.063-63.072,63.063
				c-16.316,0-31.194-6.19-42.388-16.369c11.537,12.693,28.183,20.672,46.691,20.672c34.833,0,63.067-28.233,63.067-63.066
				C187.288,240.7,179.319,224.049,166.615,212.512z"/>
		</g>
		<path fill="#FFFFFF" d="M90.605,287.769l77.537-32.672c-0.781-8.502-3.982-16.3-8.904-22.718l-78.676,33.159
			C81.77,273.945,85.347,281.589,90.605,287.769z"/>
		<path fill="#FFFFFF" d="M141.347,218.539l-58.18,24.516c-1.967,5.001-3.063,10.451-3.063,16.158c0,0.515,0.017,1.041,0.042,1.56
			l75.975-32.022C151.979,224.408,146.952,220.899,141.347,218.539z"/>
		<g>
			<path fill="#EEEEF7" d="M160.659,214.813c-11.602-8.378-25.881-12.457-39.719-11.229c-13.815,1.158-27.04,7.379-36.501,17.368
				c-9.603,9.854-15.306,23.303-15.917,37.154c-0.669,13.87,3.934,27.984,12.754,39.256c-5.135-5.007-9.138-11.197-12-17.889
				c-2.744-6.733-4.151-14.116-4.234-21.437c-0.211-14.766,5.828-29.53,16.137-40.222c10.279-10.717,24.795-17.326,39.562-17.692
				c7.348-0.197,14.724,0.892,21.576,3.391C149.116,206.12,155.451,209.881,160.659,214.813z"/>
		</g>
	</g>
	<g>
		<polygon fill="#B33C1D" points="55.408,436.598 66.942,547.733 95.142,540.08 88.728,430.391 		"/>
		<polygon fill="#B33C1D" points="159.706,430.391 153.298,540.08 181.498,547.733 193.038,436.598 		"/>
	</g>
	<rect x="88.541" y="569.227" fill="#CFCBC7" width="71.349" height="4.13"/>
</g>
<polygon fill="#DF4C26" points="124.221,426.719 88.541,430.427 95.142,540.08 124.221,537.328 153.298,540.08 159.89,430.391 "/>
</svg>
